<?xml version="1.0" encoding="utf-8" standalone="no"?>
<!DOCTYPE svg PUBLIC "-//W3C//DTD SVG 1.1//EN"
  "http://www.w3.org/Graphics/SVG/1.1/DTD/svg11.dtd">
<!-- Created with matplotlib (https://matplotlib.org/) -->
<svg height="710.498504pt" version="1.1" viewBox="0 0 1085.925625 710.498504" width="1085.925625pt" xmlns="http://www.w3.org/2000/svg" xmlns:xlink="http://www.w3.org/1999/xlink">
 <metadata>
  <rdf:RDF xmlns:cc="http://creativecommons.org/ns#" xmlns:dc="http://purl.org/dc/elements/1.1/" xmlns:rdf="http://www.w3.org/1999/02/22-rdf-syntax-ns#">
   <cc:Work>
    <dc:type rdf:resource="http://purl.org/dc/dcmitype/StillImage"/>
    <dc:date>2021-05-04T14:28:59.788988</dc:date>
    <dc:format>image/svg+xml</dc:format>
    <dc:creator>
     <cc:Agent>
      <dc:title>Matplotlib v3.3.3, https://matplotlib.org/</dc:title>
     </cc:Agent>
    </dc:creator>
   </cc:Work>
  </rdf:RDF>
 </metadata>
 <defs>
  <style type="text/css">*{stroke-linecap:butt;stroke-linejoin:round;}</style>
 </defs>
 <g id="figure_1">
  <g id="patch_1">
   <path d="M 0 710.498504 
L 1085.925625 710.498504 
L 1085.925625 0 
L 0 0 
z
" style="fill:none;"/>
  </g>
  <g id="axes_1">
   <g id="patch_2">
    <path d="M 55.950625 334.213504 
L 372.717292 334.213504 
L 372.717292 8.413504 
L 55.950625 8.413504 
z
" style="fill:#ffffff;"/>
   </g>
   <g id="patch_3">
    <path clip-path="url(#pf62bdf9bc0)" d="M 71.788958 334.213504 
L 103.465625 334.213504 
L 103.465625 334.213504 
L 71.788958 334.213504 
z
" style="fill:#3274a1;"/>
   </g>
   <g id="patch_4">
    <path clip-path="url(#pf62bdf9bc0)" d="M 230.172292 334.213504 
L 261.848958 334.213504 
L 261.848958 334.213504 
L 230.172292 334.213504 
z
" style="fill:#3274a1;"/>
   </g>
   <g id="patch_5">
    <path clip-path="url(#pf62bdf9bc0)" d="M 103.465625 334.213504 
L 135.142292 334.213504 
L 135.142292 334.213504 
L 103.465625 334.213504 
z
" style="fill:#e1812c;"/>
   </g>
   <g id="patch_6">
    <path clip-path="url(#pf62bdf9bc0)" d="M 261.848958 334.213504 
L 293.525625 334.213504 
L 293.525625 334.213504 
L 261.848958 334.213504 
z
" style="fill:#e1812c;"/>
   </g>
   <g id="patch_7">
    <path clip-path="url(#pf62bdf9bc0)" d="M 135.142292 334.213504 
L 166.818958 334.213504 
L 166.818958 318.05279 
L 135.142292 318.05279 
z
" style="fill:#3a923a;"/>
   </g>
   <g id="patch_8">
    <path clip-path="url(#pf62bdf9bc0)" d="M 293.525625 334.213504 
L 325.202292 334.213504 
L 325.202292 318.05279 
L 293.525625 318.05279 
z
" style="fill:#3a923a;"/>
   </g>
   <g id="patch_9">
    <path clip-path="url(#pf62bdf9bc0)" d="M 166.818958 334.213504 
L 198.495625 334.213504 
L 198.495625 283.513224 
L 166.818958 283.513224 
z
" style="fill:#c03d3e;"/>
   </g>
   <g id="patch_10">
    <path clip-path="url(#pf62bdf9bc0)" d="M 325.202292 334.213504 
L 356.878958 334.213504 
L 356.878958 283.513224 
L 325.202292 283.513224 
z
" style="fill:#c03d3e;"/>
   </g>
   <g id="matplotlib.axis_1">
    <g id="xtick_1">
     <g id="line2d_1">
      <defs>
       <path d="M 0 0 
L 0 3.5 
" id="mae26344bc1" style="stroke:#000000;stroke-width:0.8;"/>
      </defs>
      <g>
       <use style="stroke:#000000;stroke-width:0.8;" x="135.142292" xlink:href="#mae26344bc1" y="334.213504"/>
      </g>
     </g>
    </g>
    <g id="xtick_2">
     <g id="line2d_2">
      <g>
       <use style="stroke:#000000;stroke-width:0.8;" x="293.525625" xlink:href="#mae26344bc1" y="334.213504"/>
      </g>
     </g>
    </g>
   </g>
   <g id="matplotlib.axis_2">
    <g id="ytick_1">
     <g id="line2d_3">
      <defs>
       <path d="M 0 0 
L -3.5 0 
" id="m37065fa0f6" style="stroke:#000000;stroke-width:0.8;"/>
      </defs>
      <g>
       <use style="stroke:#000000;stroke-width:0.8;" x="55.950625" xlink:href="#m37065fa0f6" y="334.213504"/>
      </g>
     </g>
     <g id="text_1">
      <!-- 0.00 -->
      <g transform="translate(26.685 338.012723)scale(0.1 -0.1)">
       <defs>
        <path d="M 31.78125 66.40625 
Q 24.171875 66.40625 20.328125 58.90625 
Q 16.5 51.421875 16.5 36.375 
Q 16.5 21.390625 20.328125 13.890625 
Q 24.171875 6.390625 31.78125 6.390625 
Q 39.453125 6.390625 43.28125 13.890625 
Q 47.125 21.390625 47.125 36.375 
Q 47.125 51.421875 43.28125 58.90625 
Q 39.453125 66.40625 31.78125 66.40625 
z
M 31.78125 74.21875 
Q 44.046875 74.21875 50.515625 64.515625 
Q 56.984375 54.828125 56.984375 36.375 
Q 56.984375 17.96875 50.515625 8.265625 
Q 44.046875 -1.421875 31.78125 -1.421875 
Q 19.53125 -1.421875 13.0625 8.265625 
Q 6.59375 17.96875 6.59375 36.375 
Q 6.59375 54.828125 13.0625 64.515625 
Q 19.53125 74.21875 31.78125 74.21875 
z
" id="DejaVuSans-48"/>
        <path d="M 10.6875 12.40625 
L 21 12.40625 
L 21 0 
L 10.6875 0 
z
" id="DejaVuSans-46"/>
       </defs>
       <use xlink:href="#DejaVuSans-48"/>
       <use x="63.623047" xlink:href="#DejaVuSans-46"/>
       <use x="95.410156" xlink:href="#DejaVuSans-48"/>
       <use x="159.033203" xlink:href="#DejaVuSans-48"/>
      </g>
     </g>
    </g>
    <g id="ytick_2">
     <g id="line2d_4">
      <g>
       <use style="stroke:#000000;stroke-width:0.8;" x="55.950625" xlink:href="#m37065fa0f6" y="269.570647"/>
      </g>
     </g>
     <g id="text_2">
      <!-- 0.05 -->
      <g transform="translate(26.685 273.369866)scale(0.1 -0.1)">
       <defs>
        <path d="M 10.796875 72.90625 
L 49.515625 72.90625 
L 49.515625 64.59375 
L 19.828125 64.59375 
L 19.828125 46.734375 
Q 21.96875 47.46875 24.109375 47.828125 
Q 26.265625 48.1875 28.421875 48.1875 
Q 40.625 48.1875 47.75 41.5 
Q 54.890625 34.8125 54.890625 23.390625 
Q 54.890625 11.625 47.5625 5.09375 
Q 40.234375 -1.421875 26.90625 -1.421875 
Q 22.3125 -1.421875 17.546875 -0.640625 
Q 12.796875 0.140625 7.71875 1.703125 
L 7.71875 11.625 
Q 12.109375 9.234375 16.796875 8.0625 
Q 21.484375 6.890625 26.703125 6.890625 
Q 35.15625 6.890625 40.078125 11.328125 
Q 45.015625 15.765625 45.015625 23.390625 
Q 45.015625 31 40.078125 35.4375 
Q 35.15625 39.890625 26.703125 39.890625 
Q 22.75 39.890625 18.8125 39.015625 
Q 14.890625 38.140625 10.796875 36.28125 
z
" id="DejaVuSans-53"/>
       </defs>
       <use xlink:href="#DejaVuSans-48"/>
       <use x="63.623047" xlink:href="#DejaVuSans-46"/>
       <use x="95.410156" xlink:href="#DejaVuSans-48"/>
       <use x="159.033203" xlink:href="#DejaVuSans-53"/>
      </g>
     </g>
    </g>
    <g id="ytick_3">
     <g id="line2d_5">
      <g>
       <use style="stroke:#000000;stroke-width:0.8;" x="55.950625" xlink:href="#m37065fa0f6" y="204.92779"/>
      </g>
     </g>
     <g id="text_3">
      <!-- 0.10 -->
      <g transform="translate(26.685 208.727009)scale(0.1 -0.1)">
       <defs>
        <path d="M 12.40625 8.296875 
L 28.515625 8.296875 
L 28.515625 63.921875 
L 10.984375 60.40625 
L 10.984375 69.390625 
L 28.421875 72.90625 
L 38.28125 72.90625 
L 38.28125 8.296875 
L 54.390625 8.296875 
L 54.390625 0 
L 12.40625 0 
z
" id="DejaVuSans-49"/>
       </defs>
       <use xlink:href="#DejaVuSans-48"/>
       <use x="63.623047" xlink:href="#DejaVuSans-46"/>
       <use x="95.410156" xlink:href="#DejaVuSans-49"/>
       <use x="159.033203" xlink:href="#DejaVuSans-48"/>
      </g>
     </g>
    </g>
    <g id="ytick_4">
     <g id="line2d_6">
      <g>
       <use style="stroke:#000000;stroke-width:0.8;" x="55.950625" xlink:href="#m37065fa0f6" y="140.284933"/>
      </g>
     </g>
     <g id="text_4">
      <!-- 0.15 -->
      <g transform="translate(26.685 144.084152)scale(0.1 -0.1)">
       <use xlink:href="#DejaVuSans-48"/>
       <use x="63.623047" xlink:href="#DejaVuSans-46"/>
       <use x="95.410156" xlink:href="#DejaVuSans-49"/>
       <use x="159.033203" xlink:href="#DejaVuSans-53"/>
      </g>
     </g>
    </g>
    <g id="ytick_5">
     <g id="line2d_7">
      <g>
       <use style="stroke:#000000;stroke-width:0.8;" x="55.950625" xlink:href="#m37065fa0f6" y="75.642076"/>
      </g>
     </g>
     <g id="text_5">
      <!-- 0.20 -->
      <g transform="translate(26.685 79.441295)scale(0.1 -0.1)">
       <defs>
        <path d="M 19.1875 8.296875 
L 53.609375 8.296875 
L 53.609375 0 
L 7.328125 0 
L 7.328125 8.296875 
Q 12.9375 14.109375 22.625 23.890625 
Q 32.328125 33.6875 34.8125 36.53125 
Q 39.546875 41.84375 41.421875 45.53125 
Q 43.3125 49.21875 43.3125 52.78125 
Q 43.3125 58.59375 39.234375 62.25 
Q 35.15625 65.921875 28.609375 65.921875 
Q 23.96875 65.921875 18.8125 64.3125 
Q 13.671875 62.703125 7.8125 59.421875 
L 7.8125 69.390625 
Q 13.765625 71.78125 18.9375 73 
Q 24.125 74.21875 28.421875 74.21875 
Q 39.75 74.21875 46.484375 68.546875 
Q 53.21875 62.890625 53.21875 53.421875 
Q 53.21875 48.921875 51.53125 44.890625 
Q 49.859375 40.875 45.40625 35.40625 
Q 44.1875 33.984375 37.640625 27.21875 
Q 31.109375 20.453125 19.1875 8.296875 
z
" id="DejaVuSans-50"/>
       </defs>
       <use xlink:href="#DejaVuSans-48"/>
       <use x="63.623047" xlink:href="#DejaVuSans-46"/>
       <use x="95.410156" xlink:href="#DejaVuSans-50"/>
       <use x="159.033203" xlink:href="#DejaVuSans-48"/>
      </g>
     </g>
    </g>
    <g id="ytick_6">
     <g id="line2d_8">
      <g>
       <use style="stroke:#000000;stroke-width:0.8;" x="55.950625" xlink:href="#m37065fa0f6" y="10.999219"/>
      </g>
     </g>
     <g id="text_6">
      <!-- 0.25 -->
      <g transform="translate(26.685 14.798437)scale(0.1 -0.1)">
       <use xlink:href="#DejaVuSans-48"/>
       <use x="63.623047" xlink:href="#DejaVuSans-46"/>
       <use x="95.410156" xlink:href="#DejaVuSans-50"/>
       <use x="159.033203" xlink:href="#DejaVuSans-53"/>
      </g>
     </g>
    </g>
    <g id="text_7">
     <!-- AD FN -->
     <g transform="translate(19.3575 196.074754)rotate(-90)scale(0.16 -0.16)">
      <defs>
       <path d="M 34.1875 63.1875 
L 20.796875 26.90625 
L 47.609375 26.90625 
z
M 28.609375 72.90625 
L 39.796875 72.90625 
L 67.578125 0 
L 57.328125 0 
L 50.6875 18.703125 
L 17.828125 18.703125 
L 11.1875 0 
L 0.78125 0 
z
" id="DejaVuSans-65"/>
       <path d="M 19.671875 64.796875 
L 19.671875 8.109375 
L 31.59375 8.109375 
Q 46.6875 8.109375 53.6875 14.9375 
Q 60.6875 21.78125 60.6875 36.53125 
Q 60.6875 51.171875 53.6875 57.984375 
Q 46.6875 64.796875 31.59375 64.796875 
z
M 9.8125 72.90625 
L 30.078125 72.90625 
Q 51.265625 72.90625 61.171875 64.09375 
Q 71.09375 55.28125 71.09375 36.53125 
Q 71.09375 17.671875 61.125 8.828125 
Q 51.171875 0 30.078125 0 
L 9.8125 0 
z
" id="DejaVuSans-68"/>
       <path id="DejaVuSans-32"/>
       <path d="M 9.8125 72.90625 
L 51.703125 72.90625 
L 51.703125 64.59375 
L 19.671875 64.59375 
L 19.671875 43.109375 
L 48.578125 43.109375 
L 48.578125 34.8125 
L 19.671875 34.8125 
L 19.671875 0 
L 9.8125 0 
z
" id="DejaVuSans-70"/>
       <path d="M 9.8125 72.90625 
L 23.09375 72.90625 
L 55.421875 11.921875 
L 55.421875 72.90625 
L 64.984375 72.90625 
L 64.984375 0 
L 51.703125 0 
L 19.390625 60.984375 
L 19.390625 0 
L 9.8125 0 
z
" id="DejaVuSans-78"/>
      </defs>
      <use xlink:href="#DejaVuSans-65"/>
      <use x="68.408203" xlink:href="#DejaVuSans-68"/>
      <use x="145.410156" xlink:href="#DejaVuSans-32"/>
      <use x="177.197266" xlink:href="#DejaVuSans-70"/>
      <use x="234.716797" xlink:href="#DejaVuSans-78"/>
     </g>
    </g>
   </g>
   <g id="line2d_9">
    <path clip-path="url(#pf62bdf9bc0)" d="M 87.627292 334.213504 
L 87.627292 334.213504 
" style="fill:none;stroke:#424242;stroke-linecap:square;stroke-width:2.7;"/>
   </g>
   <g id="line2d_10">
    <path clip-path="url(#pf62bdf9bc0)" d="M 246.010625 334.213504 
L 246.010625 334.213504 
" style="fill:none;stroke:#424242;stroke-linecap:square;stroke-width:2.7;"/>
   </g>
   <g id="line2d_11">
    <path clip-path="url(#pf62bdf9bc0)" d="M 119.303958 334.213504 
L 119.303958 334.213504 
" style="fill:none;stroke:#424242;stroke-linecap:square;stroke-width:2.7;"/>
   </g>
   <g id="line2d_12">
    <path clip-path="url(#pf62bdf9bc0)" d="M 277.687292 334.213504 
L 277.687292 334.213504 
" style="fill:none;stroke:#424242;stroke-linecap:square;stroke-width:2.7;"/>
   </g>
   <g id="line2d_13">
    <path clip-path="url(#pf62bdf9bc0)" d="M 150.980625 334.213504 
L 150.980625 285.731362 
" style="fill:none;stroke:#424242;stroke-linecap:square;stroke-width:2.7;"/>
   </g>
   <g id="line2d_14">
    <path clip-path="url(#pf62bdf9bc0)" d="M 309.363958 334.213504 
L 309.363958 285.731362 
" style="fill:none;stroke:#424242;stroke-linecap:square;stroke-width:2.7;"/>
   </g>
   <g id="line2d_15">
    <path clip-path="url(#pf62bdf9bc0)" d="M 182.657292 323.439695 
L 182.657292 240.417986 
" style="fill:none;stroke:#424242;stroke-linecap:square;stroke-width:2.7;"/>
   </g>
   <g id="line2d_16">
    <path clip-path="url(#pf62bdf9bc0)" d="M 341.040625 323.439695 
L 341.040625 240.362533 
" style="fill:none;stroke:#424242;stroke-linecap:square;stroke-width:2.7;"/>
   </g>
   <g id="patch_11">
    <path d="M 55.950625 334.213504 
L 55.950625 8.413504 
" style="fill:none;stroke:#000000;stroke-linecap:square;stroke-linejoin:miter;stroke-width:0.8;"/>
   </g>
   <g id="patch_12">
    <path d="M 372.717292 334.213504 
L 372.717292 8.413504 
" style="fill:none;stroke:#000000;stroke-linecap:square;stroke-linejoin:miter;stroke-width:0.8;"/>
   </g>
   <g id="patch_13">
    <path d="M 55.950625 334.213504 
L 372.717292 334.213504 
" style="fill:none;stroke:#000000;stroke-linecap:square;stroke-linejoin:miter;stroke-width:0.8;"/>
   </g>
   <g id="patch_14">
    <path d="M 55.950625 8.413504 
L 372.717292 8.413504 
" style="fill:none;stroke:#000000;stroke-linecap:square;stroke-linejoin:miter;stroke-width:0.8;"/>
   </g>
   <g id="legend_1">
    <g id="patch_15">
     <path d="M 299.825104 89.804129 
L 365.717292 89.804129 
Q 367.717292 89.804129 367.717292 87.804129 
L 367.717292 15.413504 
Q 367.717292 13.413504 365.717292 13.413504 
L 299.825104 13.413504 
Q 297.825104 13.413504 297.825104 15.413504 
L 297.825104 87.804129 
Q 297.825104 89.804129 299.825104 89.804129 
z
" style="fill:#ffffff;opacity:0.8;stroke:#cccccc;stroke-linejoin:miter;"/>
    </g>
    <g id="text_8">
     <!-- missing rate -->
     <g transform="translate(301.825104 25.011942)scale(0.1 -0.1)">
      <defs>
       <path d="M 52 44.1875 
Q 55.375 50.25 60.0625 53.125 
Q 64.75 56 71.09375 56 
Q 79.640625 56 84.28125 50.015625 
Q 88.921875 44.046875 88.921875 33.015625 
L 88.921875 0 
L 79.890625 0 
L 79.890625 32.71875 
Q 79.890625 40.578125 77.09375 44.375 
Q 74.3125 48.1875 68.609375 48.1875 
Q 61.625 48.1875 57.5625 43.546875 
Q 53.515625 38.921875 53.515625 30.90625 
L 53.515625 0 
L 44.484375 0 
L 44.484375 32.71875 
Q 44.484375 40.625 41.703125 44.40625 
Q 38.921875 48.1875 33.109375 48.1875 
Q 26.21875 48.1875 22.15625 43.53125 
Q 18.109375 38.875 18.109375 30.90625 
L 18.109375 0 
L 9.078125 0 
L 9.078125 54.6875 
L 18.109375 54.6875 
L 18.109375 46.1875 
Q 21.1875 51.21875 25.484375 53.609375 
Q 29.78125 56 35.6875 56 
Q 41.65625 56 45.828125 52.96875 
Q 50 49.953125 52 44.1875 
z
" id="DejaVuSans-109"/>
       <path d="M 9.421875 54.6875 
L 18.40625 54.6875 
L 18.40625 0 
L 9.421875 0 
z
M 9.421875 75.984375 
L 18.40625 75.984375 
L 18.40625 64.59375 
L 9.421875 64.59375 
z
" id="DejaVuSans-105"/>
       <path d="M 44.28125 53.078125 
L 44.28125 44.578125 
Q 40.484375 46.53125 36.375 47.5 
Q 32.28125 48.484375 27.875 48.484375 
Q 21.1875 48.484375 17.84375 46.4375 
Q 14.5 44.390625 14.5 40.28125 
Q 14.5 37.15625 16.890625 35.375 
Q 19.28125 33.59375 26.515625 31.984375 
L 29.59375 31.296875 
Q 39.15625 29.25 43.1875 25.515625 
Q 47.21875 21.78125 47.21875 15.09375 
Q 47.21875 7.46875 41.1875 3.015625 
Q 35.15625 -1.421875 24.609375 -1.421875 
Q 20.21875 -1.421875 15.453125 -0.5625 
Q 10.6875 0.296875 5.421875 2 
L 5.421875 11.28125 
Q 10.40625 8.6875 15.234375 7.390625 
Q 20.0625 6.109375 24.8125 6.109375 
Q 31.15625 6.109375 34.5625 8.28125 
Q 37.984375 10.453125 37.984375 14.40625 
Q 37.984375 18.0625 35.515625 20.015625 
Q 33.0625 21.96875 24.703125 23.78125 
L 21.578125 24.515625 
Q 13.234375 26.265625 9.515625 29.90625 
Q 5.8125 33.546875 5.8125 39.890625 
Q 5.8125 47.609375 11.28125 51.796875 
Q 16.75 56 26.8125 56 
Q 31.78125 56 36.171875 55.265625 
Q 40.578125 54.546875 44.28125 53.078125 
z
" id="DejaVuSans-115"/>
       <path d="M 54.890625 33.015625 
L 54.890625 0 
L 45.90625 0 
L 45.90625 32.71875 
Q 45.90625 40.484375 42.875 44.328125 
Q 39.84375 48.1875 33.796875 48.1875 
Q 26.515625 48.1875 22.3125 43.546875 
Q 18.109375 38.921875 18.109375 30.90625 
L 18.109375 0 
L 9.078125 0 
L 9.078125 54.6875 
L 18.109375 54.6875 
L 18.109375 46.1875 
Q 21.34375 51.125 25.703125 53.5625 
Q 30.078125 56 35.796875 56 
Q 45.21875 56 50.046875 50.171875 
Q 54.890625 44.34375 54.890625 33.015625 
z
" id="DejaVuSans-110"/>
       <path d="M 45.40625 27.984375 
Q 45.40625 37.75 41.375 43.109375 
Q 37.359375 48.484375 30.078125 48.484375 
Q 22.859375 48.484375 18.828125 43.109375 
Q 14.796875 37.75 14.796875 27.984375 
Q 14.796875 18.265625 18.828125 12.890625 
Q 22.859375 7.515625 30.078125 7.515625 
Q 37.359375 7.515625 41.375 12.890625 
Q 45.40625 18.265625 45.40625 27.984375 
z
M 54.390625 6.78125 
Q 54.390625 -7.171875 48.1875 -13.984375 
Q 42 -20.796875 29.203125 -20.796875 
Q 24.46875 -20.796875 20.265625 -20.09375 
Q 16.0625 -19.390625 12.109375 -17.921875 
L 12.109375 -9.1875 
Q 16.0625 -11.328125 19.921875 -12.34375 
Q 23.78125 -13.375 27.78125 -13.375 
Q 36.625 -13.375 41.015625 -8.765625 
Q 45.40625 -4.15625 45.40625 5.171875 
L 45.40625 9.625 
Q 42.625 4.78125 38.28125 2.390625 
Q 33.9375 0 27.875 0 
Q 17.828125 0 11.671875 7.65625 
Q 5.515625 15.328125 5.515625 27.984375 
Q 5.515625 40.671875 11.671875 48.328125 
Q 17.828125 56 27.875 56 
Q 33.9375 56 38.28125 53.609375 
Q 42.625 51.21875 45.40625 46.390625 
L 45.40625 54.6875 
L 54.390625 54.6875 
z
" id="DejaVuSans-103"/>
       <path d="M 41.109375 46.296875 
Q 39.59375 47.171875 37.8125 47.578125 
Q 36.03125 48 33.890625 48 
Q 26.265625 48 22.1875 43.046875 
Q 18.109375 38.09375 18.109375 28.8125 
L 18.109375 0 
L 9.078125 0 
L 9.078125 54.6875 
L 18.109375 54.6875 
L 18.109375 46.1875 
Q 20.953125 51.171875 25.484375 53.578125 
Q 30.03125 56 36.53125 56 
Q 37.453125 56 38.578125 55.875 
Q 39.703125 55.765625 41.0625 55.515625 
z
" id="DejaVuSans-114"/>
       <path d="M 34.28125 27.484375 
Q 23.390625 27.484375 19.1875 25 
Q 14.984375 22.515625 14.984375 16.5 
Q 14.984375 11.71875 18.140625 8.90625 
Q 21.296875 6.109375 26.703125 6.109375 
Q 34.1875 6.109375 38.703125 11.40625 
Q 43.21875 16.703125 43.21875 25.484375 
L 43.21875 27.484375 
z
M 52.203125 31.203125 
L 52.203125 0 
L 43.21875 0 
L 43.21875 8.296875 
Q 40.140625 3.328125 35.546875 0.953125 
Q 30.953125 -1.421875 24.3125 -1.421875 
Q 15.921875 -1.421875 10.953125 3.296875 
Q 6 8.015625 6 15.921875 
Q 6 25.140625 12.171875 29.828125 
Q 18.359375 34.515625 30.609375 34.515625 
L 43.21875 34.515625 
L 43.21875 35.40625 
Q 43.21875 41.609375 39.140625 45 
Q 35.0625 48.390625 27.6875 48.390625 
Q 23 48.390625 18.546875 47.265625 
Q 14.109375 46.140625 10.015625 43.890625 
L 10.015625 52.203125 
Q 14.9375 54.109375 19.578125 55.046875 
Q 24.21875 56 28.609375 56 
Q 40.484375 56 46.34375 49.84375 
Q 52.203125 43.703125 52.203125 31.203125 
z
" id="DejaVuSans-97"/>
       <path d="M 18.3125 70.21875 
L 18.3125 54.6875 
L 36.8125 54.6875 
L 36.8125 47.703125 
L 18.3125 47.703125 
L 18.3125 18.015625 
Q 18.3125 11.328125 20.140625 9.421875 
Q 21.96875 7.515625 27.59375 7.515625 
L 36.8125 7.515625 
L 36.8125 0 
L 27.59375 0 
Q 17.1875 0 13.234375 3.875 
Q 9.28125 7.765625 9.28125 18.015625 
L 9.28125 47.703125 
L 2.6875 47.703125 
L 2.6875 54.6875 
L 9.28125 54.6875 
L 9.28125 70.21875 
z
" id="DejaVuSans-116"/>
       <path d="M 56.203125 29.59375 
L 56.203125 25.203125 
L 14.890625 25.203125 
Q 15.484375 15.921875 20.484375 11.0625 
Q 25.484375 6.203125 34.421875 6.203125 
Q 39.59375 6.203125 44.453125 7.46875 
Q 49.3125 8.734375 54.109375 11.28125 
L 54.109375 2.78125 
Q 49.265625 0.734375 44.1875 -0.34375 
Q 39.109375 -1.421875 33.890625 -1.421875 
Q 20.796875 -1.421875 13.15625 6.1875 
Q 5.515625 13.8125 5.515625 26.8125 
Q 5.515625 40.234375 12.765625 48.109375 
Q 20.015625 56 32.328125 56 
Q 43.359375 56 49.78125 48.890625 
Q 56.203125 41.796875 56.203125 29.59375 
z
M 47.21875 32.234375 
Q 47.125 39.59375 43.09375 43.984375 
Q 39.0625 48.390625 32.421875 48.390625 
Q 24.90625 48.390625 20.390625 44.140625 
Q 15.875 39.890625 15.1875 32.171875 
z
" id="DejaVuSans-101"/>
      </defs>
      <use xlink:href="#DejaVuSans-109"/>
      <use x="97.412109" xlink:href="#DejaVuSans-105"/>
      <use x="125.195312" xlink:href="#DejaVuSans-115"/>
      <use x="177.294922" xlink:href="#DejaVuSans-115"/>
      <use x="229.394531" xlink:href="#DejaVuSans-105"/>
      <use x="257.177734" xlink:href="#DejaVuSans-110"/>
      <use x="320.556641" xlink:href="#DejaVuSans-103"/>
      <use x="384.033203" xlink:href="#DejaVuSans-32"/>
      <use x="415.820312" xlink:href="#DejaVuSans-114"/>
      <use x="456.933594" xlink:href="#DejaVuSans-97"/>
      <use x="518.212891" xlink:href="#DejaVuSans-116"/>
      <use x="557.421875" xlink:href="#DejaVuSans-101"/>
     </g>
    </g>
    <g id="patch_16">
     <path d="M 304.457135 39.690067 
L 324.457135 39.690067 
L 324.457135 32.690067 
L 304.457135 32.690067 
z
" style="fill:#3274a1;"/>
    </g>
    <g id="text_9">
     <!-- 0.0 -->
     <g transform="translate(332.457135 39.690067)scale(0.1 -0.1)">
      <use xlink:href="#DejaVuSans-48"/>
      <use x="63.623047" xlink:href="#DejaVuSans-46"/>
      <use x="95.410156" xlink:href="#DejaVuSans-48"/>
     </g>
    </g>
    <g id="patch_17">
     <path d="M 304.457135 54.368192 
L 324.457135 54.368192 
L 324.457135 47.368192 
L 304.457135 47.368192 
z
" style="fill:#e1812c;"/>
    </g>
    <g id="text_10">
     <!-- 0.125 -->
     <g transform="translate(332.457135 54.368192)scale(0.1 -0.1)">
      <use xlink:href="#DejaVuSans-48"/>
      <use x="63.623047" xlink:href="#DejaVuSans-46"/>
      <use x="95.410156" xlink:href="#DejaVuSans-49"/>
      <use x="159.033203" xlink:href="#DejaVuSans-50"/>
      <use x="222.65625" xlink:href="#DejaVuSans-53"/>
     </g>
    </g>
    <g id="patch_18">
     <path d="M 304.457135 69.046317 
L 324.457135 69.046317 
L 324.457135 62.046317 
L 304.457135 62.046317 
z
" style="fill:#3a923a;"/>
    </g>
    <g id="text_11">
     <!-- 0.25 -->
     <g transform="translate(332.457135 69.046317)scale(0.1 -0.1)">
      <use xlink:href="#DejaVuSans-48"/>
      <use x="63.623047" xlink:href="#DejaVuSans-46"/>
      <use x="95.410156" xlink:href="#DejaVuSans-50"/>
      <use x="159.033203" xlink:href="#DejaVuSans-53"/>
     </g>
    </g>
    <g id="patch_19">
     <path d="M 304.457135 83.724442 
L 324.457135 83.724442 
L 324.457135 76.724442 
L 304.457135 76.724442 
z
" style="fill:#c03d3e;"/>
    </g>
    <g id="text_12">
     <!-- 0.5 -->
     <g transform="translate(332.457135 83.724442)scale(0.1 -0.1)">
      <use xlink:href="#DejaVuSans-48"/>
      <use x="63.623047" xlink:href="#DejaVuSans-46"/>
      <use x="95.410156" xlink:href="#DejaVuSans-53"/>
     </g>
    </g>
   </g>
  </g>
  <g id="axes_2">
   <g id="patch_20">
    <path d="M 408.954792 334.213504 
L 725.721458 334.213504 
L 725.721458 8.413504 
L 408.954792 8.413504 
z
" style="fill:#ffffff;"/>
   </g>
   <g id="patch_21">
    <path clip-path="url(#pb24595cce3)" d="M 424.793125 334.213504 
L 456.469792 334.213504 
L 456.469792 334.213504 
L 424.793125 334.213504 
z
" style="fill:#3274a1;"/>
   </g>
   <g id="patch_22">
    <path clip-path="url(#pb24595cce3)" d="M 583.176458 334.213504 
L 614.853125 334.213504 
L 614.853125 334.213504 
L 583.176458 334.213504 
z
" style="fill:#3274a1;"/>
   </g>
   <g id="patch_23">
    <path clip-path="url(#pb24595cce3)" d="M 456.469792 334.213504 
L 488.146458 334.213504 
L 488.146458 334.213504 
L 456.469792 334.213504 
z
" style="fill:#e1812c;"/>
   </g>
   <g id="patch_24">
    <path clip-path="url(#pb24595cce3)" d="M 614.853125 334.213504 
L 646.529792 334.213504 
L 646.529792 334.213504 
L 614.853125 334.213504 
z
" style="fill:#e1812c;"/>
   </g>
   <g id="patch_25">
    <path clip-path="url(#pb24595cce3)" d="M 488.146458 334.213504 
L 519.823125 334.213504 
L 519.823125 230.784933 
L 488.146458 230.784933 
z
" style="fill:#3a923a;"/>
   </g>
   <g id="patch_26">
    <path clip-path="url(#pb24595cce3)" d="M 646.529792 334.213504 
L 678.206458 334.213504 
L 678.206458 230.784933 
L 646.529792 230.784933 
z
" style="fill:#3a923a;"/>
   </g>
   <g id="patch_27">
    <path clip-path="url(#pb24595cce3)" d="M 519.823125 334.213504 
L 551.499792 334.213504 
L 551.499792 230.784933 
L 519.823125 230.784933 
z
" style="fill:#c03d3e;"/>
   </g>
   <g id="patch_28">
    <path clip-path="url(#pb24595cce3)" d="M 678.206458 334.213504 
L 709.883125 334.213504 
L 709.883125 230.784933 
L 678.206458 230.784933 
z
" style="fill:#c03d3e;"/>
   </g>
   <g id="matplotlib.axis_3">
    <g id="xtick_3">
     <g id="line2d_17">
      <g>
       <use style="stroke:#000000;stroke-width:0.8;" x="488.146458" xlink:href="#mae26344bc1" y="334.213504"/>
      </g>
     </g>
    </g>
    <g id="xtick_4">
     <g id="line2d_18">
      <g>
       <use style="stroke:#000000;stroke-width:0.8;" x="646.529792" xlink:href="#mae26344bc1" y="334.213504"/>
      </g>
     </g>
    </g>
   </g>
   <g id="matplotlib.axis_4">
    <g id="ytick_7">
     <g id="line2d_19">
      <g>
       <use style="stroke:#000000;stroke-width:0.8;" x="408.954792" xlink:href="#m37065fa0f6" y="334.213504"/>
      </g>
     </g>
    </g>
    <g id="ytick_8">
     <g id="line2d_20">
      <g>
       <use style="stroke:#000000;stroke-width:0.8;" x="408.954792" xlink:href="#m37065fa0f6" y="269.570647"/>
      </g>
     </g>
    </g>
    <g id="ytick_9">
     <g id="line2d_21">
      <g>
       <use style="stroke:#000000;stroke-width:0.8;" x="408.954792" xlink:href="#m37065fa0f6" y="204.92779"/>
      </g>
     </g>
    </g>
    <g id="ytick_10">
     <g id="line2d_22">
      <g>
       <use style="stroke:#000000;stroke-width:0.8;" x="408.954792" xlink:href="#m37065fa0f6" y="140.284933"/>
      </g>
     </g>
    </g>
    <g id="ytick_11">
     <g id="line2d_23">
      <g>
       <use style="stroke:#000000;stroke-width:0.8;" x="408.954792" xlink:href="#m37065fa0f6" y="75.642076"/>
      </g>
     </g>
    </g>
    <g id="ytick_12">
     <g id="line2d_24">
      <g>
       <use style="stroke:#000000;stroke-width:0.8;" x="408.954792" xlink:href="#m37065fa0f6" y="10.999219"/>
      </g>
     </g>
    </g>
    <g id="text_13">
     <!-- DB FN -->
     <g transform="translate(401.627292 196.091004)rotate(-90)scale(0.16 -0.16)">
      <defs>
       <path d="M 19.671875 34.8125 
L 19.671875 8.109375 
L 35.5 8.109375 
Q 43.453125 8.109375 47.28125 11.40625 
Q 51.125 14.703125 51.125 21.484375 
Q 51.125 28.328125 47.28125 31.5625 
Q 43.453125 34.8125 35.5 34.8125 
z
M 19.671875 64.796875 
L 19.671875 42.828125 
L 34.28125 42.828125 
Q 41.5 42.828125 45.03125 45.53125 
Q 48.578125 48.25 48.578125 53.8125 
Q 48.578125 59.328125 45.03125 62.0625 
Q 41.5 64.796875 34.28125 64.796875 
z
M 9.8125 72.90625 
L 35.015625 72.90625 
Q 46.296875 72.90625 52.390625 68.21875 
Q 58.5 63.53125 58.5 54.890625 
Q 58.5 48.1875 55.375 44.234375 
Q 52.25 40.28125 46.1875 39.3125 
Q 53.46875 37.75 57.5 32.78125 
Q 61.53125 27.828125 61.53125 20.40625 
Q 61.53125 10.640625 54.890625 5.3125 
Q 48.25 0 35.984375 0 
L 9.8125 0 
z
" id="DejaVuSans-66"/>
      </defs>
      <use xlink:href="#DejaVuSans-68"/>
      <use x="77.001953" xlink:href="#DejaVuSans-66"/>
      <use x="145.605469" xlink:href="#DejaVuSans-32"/>
      <use x="177.392578" xlink:href="#DejaVuSans-70"/>
      <use x="234.912109" xlink:href="#DejaVuSans-78"/>
     </g>
    </g>
   </g>
   <g id="line2d_25">
    <path clip-path="url(#pb24595cce3)" d="M 440.631458 334.213504 
L 440.631458 334.213504 
" style="fill:none;stroke:#424242;stroke-linecap:square;stroke-width:2.7;"/>
   </g>
   <g id="line2d_26">
    <path clip-path="url(#pb24595cce3)" d="M 599.014792 334.213504 
L 599.014792 334.213504 
" style="fill:none;stroke:#424242;stroke-linecap:square;stroke-width:2.7;"/>
   </g>
   <g id="line2d_27">
    <path clip-path="url(#pb24595cce3)" d="M 472.308125 334.213504 
L 472.308125 334.213504 
" style="fill:none;stroke:#424242;stroke-linecap:square;stroke-width:2.7;"/>
   </g>
   <g id="line2d_28">
    <path clip-path="url(#pb24595cce3)" d="M 630.691458 334.213504 
L 630.691458 334.213504 
" style="fill:none;stroke:#424242;stroke-linecap:square;stroke-width:2.7;"/>
   </g>
   <g id="line2d_29">
    <path clip-path="url(#pb24595cce3)" d="M 503.984792 334.213504 
L 503.984792 23.92779 
" style="fill:none;stroke:#424242;stroke-linecap:square;stroke-width:2.7;"/>
   </g>
   <g id="line2d_30">
    <path clip-path="url(#pb24595cce3)" d="M 662.368125 334.213504 
L 662.368125 23.92779 
" style="fill:none;stroke:#424242;stroke-linecap:square;stroke-width:2.7;"/>
   </g>
   <g id="line2d_31">
    <path clip-path="url(#pb24595cce3)" d="M 535.661458 334.213504 
L 535.661458 23.92779 
" style="fill:none;stroke:#424242;stroke-linecap:square;stroke-width:2.7;"/>
   </g>
   <g id="line2d_32">
    <path clip-path="url(#pb24595cce3)" d="M 694.044792 334.213504 
L 694.044792 23.92779 
" style="fill:none;stroke:#424242;stroke-linecap:square;stroke-width:2.7;"/>
   </g>
   <g id="patch_29">
    <path d="M 408.954792 334.213504 
L 408.954792 8.413504 
" style="fill:none;stroke:#000000;stroke-linecap:square;stroke-linejoin:miter;stroke-width:0.8;"/>
   </g>
   <g id="patch_30">
    <path d="M 725.721458 334.213504 
L 725.721458 8.413504 
" style="fill:none;stroke:#000000;stroke-linecap:square;stroke-linejoin:miter;stroke-width:0.8;"/>
   </g>
   <g id="patch_31">
    <path d="M 408.954792 334.213504 
L 725.721458 334.213504 
" style="fill:none;stroke:#000000;stroke-linecap:square;stroke-linejoin:miter;stroke-width:0.8;"/>
   </g>
   <g id="patch_32">
    <path d="M 408.954792 8.413504 
L 725.721458 8.413504 
" style="fill:none;stroke:#000000;stroke-linecap:square;stroke-linejoin:miter;stroke-width:0.8;"/>
   </g>
  </g>
  <g id="axes_3">
   <g id="patch_33">
    <path d="M 761.958958 334.213504 
L 1078.725625 334.213504 
L 1078.725625 8.413504 
L 761.958958 8.413504 
z
" style="fill:#ffffff;"/>
   </g>
   <g id="patch_34">
    <path clip-path="url(#p768c4e842f)" d="M 777.797292 334.213504 
L 809.473958 334.213504 
L 809.473958 334.213504 
L 777.797292 334.213504 
z
" style="fill:#3274a1;"/>
   </g>
   <g id="patch_35">
    <path clip-path="url(#p768c4e842f)" d="M 936.180625 334.213504 
L 967.857292 334.213504 
L 967.857292 334.213504 
L 936.180625 334.213504 
z
" style="fill:#3274a1;"/>
   </g>
   <g id="patch_36">
    <path clip-path="url(#p768c4e842f)" d="M 809.473958 334.213504 
L 841.150625 334.213504 
L 841.150625 334.213504 
L 809.473958 334.213504 
z
" style="fill:#e1812c;"/>
   </g>
   <g id="patch_37">
    <path clip-path="url(#p768c4e842f)" d="M 967.857292 334.213504 
L 999.533958 334.213504 
L 999.533958 334.213504 
L 967.857292 334.213504 
z
" style="fill:#e1812c;"/>
   </g>
   <g id="patch_38">
    <path clip-path="url(#p768c4e842f)" d="M 841.150625 334.213504 
L 872.827292 334.213504 
L 872.827292 334.213504 
L 841.150625 334.213504 
z
" style="fill:#3a923a;"/>
   </g>
   <g id="patch_39">
    <path clip-path="url(#p768c4e842f)" d="M 999.533958 334.213504 
L 1031.210625 334.213504 
L 1031.210625 334.213504 
L 999.533958 334.213504 
z
" style="fill:#3a923a;"/>
   </g>
   <g id="patch_40">
    <path clip-path="url(#p768c4e842f)" d="M 872.827292 334.213504 
L 904.503958 334.213504 
L 904.503958 334.213504 
L 872.827292 334.213504 
z
" style="fill:#c03d3e;"/>
   </g>
   <g id="patch_41">
    <path clip-path="url(#p768c4e842f)" d="M 1031.210625 334.213504 
L 1062.887292 334.213504 
L 1062.887292 334.213504 
L 1031.210625 334.213504 
z
" style="fill:#c03d3e;"/>
   </g>
   <g id="matplotlib.axis_5">
    <g id="xtick_5">
     <g id="line2d_33">
      <g>
       <use style="stroke:#000000;stroke-width:0.8;" x="841.150625" xlink:href="#mae26344bc1" y="334.213504"/>
      </g>
     </g>
    </g>
    <g id="xtick_6">
     <g id="line2d_34">
      <g>
       <use style="stroke:#000000;stroke-width:0.8;" x="999.533958" xlink:href="#mae26344bc1" y="334.213504"/>
      </g>
     </g>
    </g>
   </g>
   <g id="matplotlib.axis_6">
    <g id="ytick_13">
     <g id="line2d_35">
      <g>
       <use style="stroke:#000000;stroke-width:0.8;" x="761.958958" xlink:href="#m37065fa0f6" y="334.213504"/>
      </g>
     </g>
    </g>
    <g id="ytick_14">
     <g id="line2d_36">
      <g>
       <use style="stroke:#000000;stroke-width:0.8;" x="761.958958" xlink:href="#m37065fa0f6" y="269.570647"/>
      </g>
     </g>
    </g>
    <g id="ytick_15">
     <g id="line2d_37">
      <g>
       <use style="stroke:#000000;stroke-width:0.8;" x="761.958958" xlink:href="#m37065fa0f6" y="204.92779"/>
      </g>
     </g>
    </g>
    <g id="ytick_16">
     <g id="line2d_38">
      <g>
       <use style="stroke:#000000;stroke-width:0.8;" x="761.958958" xlink:href="#m37065fa0f6" y="140.284933"/>
      </g>
     </g>
    </g>
    <g id="ytick_17">
     <g id="line2d_39">
      <g>
       <use style="stroke:#000000;stroke-width:0.8;" x="761.958958" xlink:href="#m37065fa0f6" y="75.642076"/>
      </g>
     </g>
    </g>
    <g id="ytick_18">
     <g id="line2d_40">
      <g>
       <use style="stroke:#000000;stroke-width:0.8;" x="761.958958" xlink:href="#m37065fa0f6" y="10.999219"/>
      </g>
     </g>
    </g>
    <g id="text_14">
     <!-- SNL FN -->
     <g transform="translate(754.631458 199.963504)rotate(-90)scale(0.16 -0.16)">
      <defs>
       <path d="M 53.515625 70.515625 
L 53.515625 60.890625 
Q 47.90625 63.578125 42.921875 64.890625 
Q 37.9375 66.21875 33.296875 66.21875 
Q 25.25 66.21875 20.875 63.09375 
Q 16.5 59.96875 16.5 54.203125 
Q 16.5 49.359375 19.40625 46.890625 
Q 22.3125 44.4375 30.421875 42.921875 
L 36.375 41.703125 
Q 47.40625 39.59375 52.65625 34.296875 
Q 57.90625 29 57.90625 20.125 
Q 57.90625 9.515625 50.796875 4.046875 
Q 43.703125 -1.421875 29.984375 -1.421875 
Q 24.8125 -1.421875 18.96875 -0.25 
Q 13.140625 0.921875 6.890625 3.21875 
L 6.890625 13.375 
Q 12.890625 10.015625 18.65625 8.296875 
Q 24.421875 6.59375 29.984375 6.59375 
Q 38.421875 6.59375 43.015625 9.90625 
Q 47.609375 13.234375 47.609375 19.390625 
Q 47.609375 24.75 44.3125 27.78125 
Q 41.015625 30.8125 33.5 32.328125 
L 27.484375 33.5 
Q 16.453125 35.6875 11.515625 40.375 
Q 6.59375 45.0625 6.59375 53.421875 
Q 6.59375 63.09375 13.40625 68.65625 
Q 20.21875 74.21875 32.171875 74.21875 
Q 37.3125 74.21875 42.625 73.28125 
Q 47.953125 72.359375 53.515625 70.515625 
z
" id="DejaVuSans-83"/>
       <path d="M 9.8125 72.90625 
L 19.671875 72.90625 
L 19.671875 8.296875 
L 55.171875 8.296875 
L 55.171875 0 
L 9.8125 0 
z
" id="DejaVuSans-76"/>
      </defs>
      <use xlink:href="#DejaVuSans-83"/>
      <use x="63.476562" xlink:href="#DejaVuSans-78"/>
      <use x="138.28125" xlink:href="#DejaVuSans-76"/>
      <use x="193.994141" xlink:href="#DejaVuSans-32"/>
      <use x="225.78125" xlink:href="#DejaVuSans-70"/>
      <use x="283.300781" xlink:href="#DejaVuSans-78"/>
     </g>
    </g>
   </g>
   <g id="line2d_41">
    <path clip-path="url(#p768c4e842f)" d="M 793.635625 334.213504 
L 793.635625 334.213504 
" style="fill:none;stroke:#424242;stroke-linecap:square;stroke-width:2.7;"/>
   </g>
   <g id="line2d_42">
    <path clip-path="url(#p768c4e842f)" d="M 952.018958 334.213504 
L 952.018958 334.213504 
" style="fill:none;stroke:#424242;stroke-linecap:square;stroke-width:2.7;"/>
   </g>
   <g id="line2d_43">
    <path clip-path="url(#p768c4e842f)" d="M 825.312292 334.213504 
L 825.312292 334.213504 
" style="fill:none;stroke:#424242;stroke-linecap:square;stroke-width:2.7;"/>
   </g>
   <g id="line2d_44">
    <path clip-path="url(#p768c4e842f)" d="M 983.695625 334.213504 
L 983.695625 334.213504 
" style="fill:none;stroke:#424242;stroke-linecap:square;stroke-width:2.7;"/>
   </g>
   <g id="line2d_45">
    <path clip-path="url(#p768c4e842f)" d="M 856.988958 334.213504 
L 856.988958 334.213504 
" style="fill:none;stroke:#424242;stroke-linecap:square;stroke-width:2.7;"/>
   </g>
   <g id="line2d_46">
    <path clip-path="url(#p768c4e842f)" d="M 1015.372292 334.213504 
L 1015.372292 334.213504 
" style="fill:none;stroke:#424242;stroke-linecap:square;stroke-width:2.7;"/>
   </g>
   <g id="line2d_47">
    <path clip-path="url(#p768c4e842f)" d="M 888.665625 334.213504 
L 888.665625 334.213504 
" style="fill:none;stroke:#424242;stroke-linecap:square;stroke-width:2.7;"/>
   </g>
   <g id="line2d_48">
    <path clip-path="url(#p768c4e842f)" d="M 1047.048958 334.213504 
L 1047.048958 334.213504 
" style="fill:none;stroke:#424242;stroke-linecap:square;stroke-width:2.7;"/>
   </g>
   <g id="patch_42">
    <path d="M 761.958958 334.213504 
L 761.958958 8.413504 
" style="fill:none;stroke:#000000;stroke-linecap:square;stroke-linejoin:miter;stroke-width:0.8;"/>
   </g>
   <g id="patch_43">
    <path d="M 1078.725625 334.213504 
L 1078.725625 8.413504 
" style="fill:none;stroke:#000000;stroke-linecap:square;stroke-linejoin:miter;stroke-width:0.8;"/>
   </g>
   <g id="patch_44">
    <path d="M 761.958958 334.213504 
L 1078.725625 334.213504 
" style="fill:none;stroke:#000000;stroke-linecap:square;stroke-linejoin:miter;stroke-width:0.8;"/>
   </g>
   <g id="patch_45">
    <path d="M 761.958958 8.413504 
L 1078.725625 8.413504 
" style="fill:none;stroke:#000000;stroke-linecap:square;stroke-linejoin:miter;stroke-width:0.8;"/>
   </g>
  </g>
  <g id="axes_4">
   <g id="patch_46">
    <path d="M 55.950625 680.813504 
L 372.717292 680.813504 
L 372.717292 355.013504 
L 55.950625 355.013504 
z
" style="fill:#ffffff;"/>
   </g>
   <g id="patch_47">
    <path clip-path="url(#p2a24d590ac)" d="M 71.788958 680.813504 
L 103.465625 680.813504 
L 103.465625 680.813504 
L 71.788958 680.813504 
z
" style="fill:#3274a1;"/>
   </g>
   <g id="patch_48">
    <path clip-path="url(#p2a24d590ac)" d="M 230.172292 680.813504 
L 261.848958 680.813504 
L 261.848958 680.813504 
L 230.172292 680.813504 
z
" style="fill:#3274a1;"/>
   </g>
   <g id="patch_49">
    <path clip-path="url(#p2a24d590ac)" d="M 103.465625 680.813504 
L 135.142292 680.813504 
L 135.142292 680.813504 
L 103.465625 680.813504 
z
" style="fill:#e1812c;"/>
   </g>
   <g id="patch_50">
    <path clip-path="url(#p2a24d590ac)" d="M 261.848958 680.813504 
L 293.525625 680.813504 
L 293.525625 680.813504 
L 261.848958 680.813504 
z
" style="fill:#e1812c;"/>
   </g>
   <g id="patch_51">
    <path clip-path="url(#p2a24d590ac)" d="M 135.142292 680.813504 
L 166.818958 680.813504 
L 166.818958 680.813504 
L 135.142292 680.813504 
z
" style="fill:#3a923a;"/>
   </g>
   <g id="patch_52">
    <path clip-path="url(#p2a24d590ac)" d="M 293.525625 680.813504 
L 325.202292 680.813504 
L 325.202292 680.813504 
L 293.525625 680.813504 
z
" style="fill:#3a923a;"/>
   </g>
   <g id="patch_53">
    <path clip-path="url(#p2a24d590ac)" d="M 166.818958 680.813504 
L 198.495625 680.813504 
L 198.495625 680.813504 
L 166.818958 680.813504 
z
" style="fill:#c03d3e;"/>
   </g>
   <g id="patch_54">
    <path clip-path="url(#p2a24d590ac)" d="M 325.202292 680.813504 
L 356.878958 680.813504 
L 356.878958 680.813504 
L 325.202292 680.813504 
z
" style="fill:#c03d3e;"/>
   </g>
   <g id="matplotlib.axis_7">
    <g id="xtick_7">
     <g id="line2d_49">
      <g>
       <use style="stroke:#000000;stroke-width:0.8;" x="135.142292" xlink:href="#mae26344bc1" y="680.813504"/>
      </g>
     </g>
     <g id="text_15">
      <!-- PhISCS-I -->
      <g transform="translate(101.898542 699.971004)scale(0.16 -0.16)">
       <defs>
        <path d="M 19.671875 64.796875 
L 19.671875 37.40625 
L 32.078125 37.40625 
Q 38.96875 37.40625 42.71875 40.96875 
Q 46.484375 44.53125 46.484375 51.125 
Q 46.484375 57.671875 42.71875 61.234375 
Q 38.96875 64.796875 32.078125 64.796875 
z
M 9.8125 72.90625 
L 32.078125 72.90625 
Q 44.34375 72.90625 50.609375 67.359375 
Q 56.890625 61.8125 56.890625 51.125 
Q 56.890625 40.328125 50.609375 34.8125 
Q 44.34375 29.296875 32.078125 29.296875 
L 19.671875 29.296875 
L 19.671875 0 
L 9.8125 0 
z
" id="DejaVuSans-80"/>
        <path d="M 54.890625 33.015625 
L 54.890625 0 
L 45.90625 0 
L 45.90625 32.71875 
Q 45.90625 40.484375 42.875 44.328125 
Q 39.84375 48.1875 33.796875 48.1875 
Q 26.515625 48.1875 22.3125 43.546875 
Q 18.109375 38.921875 18.109375 30.90625 
L 18.109375 0 
L 9.078125 0 
L 9.078125 75.984375 
L 18.109375 75.984375 
L 18.109375 46.1875 
Q 21.34375 51.125 25.703125 53.5625 
Q 30.078125 56 35.796875 56 
Q 45.21875 56 50.046875 50.171875 
Q 54.890625 44.34375 54.890625 33.015625 
z
" id="DejaVuSans-104"/>
        <path d="M 9.8125 72.90625 
L 19.671875 72.90625 
L 19.671875 0 
L 9.8125 0 
z
" id="DejaVuSans-73"/>
        <path d="M 64.40625 67.28125 
L 64.40625 56.890625 
Q 59.421875 61.53125 53.78125 63.8125 
Q 48.140625 66.109375 41.796875 66.109375 
Q 29.296875 66.109375 22.65625 58.46875 
Q 16.015625 50.828125 16.015625 36.375 
Q 16.015625 21.96875 22.65625 14.328125 
Q 29.296875 6.6875 41.796875 6.6875 
Q 48.140625 6.6875 53.78125 8.984375 
Q 59.421875 11.28125 64.40625 15.921875 
L 64.40625 5.609375 
Q 59.234375 2.09375 53.4375 0.328125 
Q 47.65625 -1.421875 41.21875 -1.421875 
Q 24.65625 -1.421875 15.125 8.703125 
Q 5.609375 18.84375 5.609375 36.375 
Q 5.609375 53.953125 15.125 64.078125 
Q 24.65625 74.21875 41.21875 74.21875 
Q 47.75 74.21875 53.53125 72.484375 
Q 59.328125 70.75 64.40625 67.28125 
z
" id="DejaVuSans-67"/>
        <path d="M 4.890625 31.390625 
L 31.203125 31.390625 
L 31.203125 23.390625 
L 4.890625 23.390625 
z
" id="DejaVuSans-45"/>
       </defs>
       <use xlink:href="#DejaVuSans-80"/>
       <use x="60.302734" xlink:href="#DejaVuSans-104"/>
       <use x="123.681641" xlink:href="#DejaVuSans-73"/>
       <use x="153.173828" xlink:href="#DejaVuSans-83"/>
       <use x="216.650391" xlink:href="#DejaVuSans-67"/>
       <use x="286.474609" xlink:href="#DejaVuSans-83"/>
       <use x="349.951172" xlink:href="#DejaVuSans-45"/>
       <use x="386.035156" xlink:href="#DejaVuSans-73"/>
      </g>
     </g>
    </g>
    <g id="xtick_8">
     <g id="line2d_50">
      <g>
       <use style="stroke:#000000;stroke-width:0.8;" x="293.525625" xlink:href="#mae26344bc1" y="680.813504"/>
      </g>
     </g>
     <g id="text_16">
      <!-- PhISCS-MI -->
      <g transform="translate(253.379375 699.971004)scale(0.16 -0.16)">
       <defs>
        <path d="M 9.8125 72.90625 
L 24.515625 72.90625 
L 43.109375 23.296875 
L 61.8125 72.90625 
L 76.515625 72.90625 
L 76.515625 0 
L 66.890625 0 
L 66.890625 64.015625 
L 48.09375 14.015625 
L 38.1875 14.015625 
L 19.390625 64.015625 
L 19.390625 0 
L 9.8125 0 
z
" id="DejaVuSans-77"/>
       </defs>
       <use xlink:href="#DejaVuSans-80"/>
       <use x="60.302734" xlink:href="#DejaVuSans-104"/>
       <use x="123.681641" xlink:href="#DejaVuSans-73"/>
       <use x="153.173828" xlink:href="#DejaVuSans-83"/>
       <use x="216.650391" xlink:href="#DejaVuSans-67"/>
       <use x="286.474609" xlink:href="#DejaVuSans-83"/>
       <use x="349.951172" xlink:href="#DejaVuSans-45"/>
       <use x="386.035156" xlink:href="#DejaVuSans-77"/>
       <use x="472.314453" xlink:href="#DejaVuSans-73"/>
      </g>
     </g>
    </g>
   </g>
   <g id="matplotlib.axis_8">
    <g id="ytick_19">
     <g id="line2d_51">
      <g>
       <use style="stroke:#000000;stroke-width:0.8;" x="55.950625" xlink:href="#m37065fa0f6" y="680.813504"/>
      </g>
     </g>
     <g id="text_17">
      <!-- 0.00 -->
      <g transform="translate(26.685 684.612723)scale(0.1 -0.1)">
       <use xlink:href="#DejaVuSans-48"/>
       <use x="63.623047" xlink:href="#DejaVuSans-46"/>
       <use x="95.410156" xlink:href="#DejaVuSans-48"/>
       <use x="159.033203" xlink:href="#DejaVuSans-48"/>
      </g>
     </g>
    </g>
    <g id="ytick_20">
     <g id="line2d_52">
      <g>
       <use style="stroke:#000000;stroke-width:0.8;" x="55.950625" xlink:href="#m37065fa0f6" y="616.170647"/>
      </g>
     </g>
     <g id="text_18">
      <!-- 0.05 -->
      <g transform="translate(26.685 619.969866)scale(0.1 -0.1)">
       <use xlink:href="#DejaVuSans-48"/>
       <use x="63.623047" xlink:href="#DejaVuSans-46"/>
       <use x="95.410156" xlink:href="#DejaVuSans-48"/>
       <use x="159.033203" xlink:href="#DejaVuSans-53"/>
      </g>
     </g>
    </g>
    <g id="ytick_21">
     <g id="line2d_53">
      <g>
       <use style="stroke:#000000;stroke-width:0.8;" x="55.950625" xlink:href="#m37065fa0f6" y="551.52779"/>
      </g>
     </g>
     <g id="text_19">
      <!-- 0.10 -->
      <g transform="translate(26.685 555.327009)scale(0.1 -0.1)">
       <use xlink:href="#DejaVuSans-48"/>
       <use x="63.623047" xlink:href="#DejaVuSans-46"/>
       <use x="95.410156" xlink:href="#DejaVuSans-49"/>
       <use x="159.033203" xlink:href="#DejaVuSans-48"/>
      </g>
     </g>
    </g>
    <g id="ytick_22">
     <g id="line2d_54">
      <g>
       <use style="stroke:#000000;stroke-width:0.8;" x="55.950625" xlink:href="#m37065fa0f6" y="486.884933"/>
      </g>
     </g>
     <g id="text_20">
      <!-- 0.15 -->
      <g transform="translate(26.685 490.684152)scale(0.1 -0.1)">
       <use xlink:href="#DejaVuSans-48"/>
       <use x="63.623047" xlink:href="#DejaVuSans-46"/>
       <use x="95.410156" xlink:href="#DejaVuSans-49"/>
       <use x="159.033203" xlink:href="#DejaVuSans-53"/>
      </g>
     </g>
    </g>
    <g id="ytick_23">
     <g id="line2d_55">
      <g>
       <use style="stroke:#000000;stroke-width:0.8;" x="55.950625" xlink:href="#m37065fa0f6" y="422.242076"/>
      </g>
     </g>
     <g id="text_21">
      <!-- 0.20 -->
      <g transform="translate(26.685 426.041295)scale(0.1 -0.1)">
       <use xlink:href="#DejaVuSans-48"/>
       <use x="63.623047" xlink:href="#DejaVuSans-46"/>
       <use x="95.410156" xlink:href="#DejaVuSans-50"/>
       <use x="159.033203" xlink:href="#DejaVuSans-48"/>
      </g>
     </g>
    </g>
    <g id="ytick_24">
     <g id="line2d_56">
      <g>
       <use style="stroke:#000000;stroke-width:0.8;" x="55.950625" xlink:href="#m37065fa0f6" y="357.599219"/>
      </g>
     </g>
     <g id="text_22">
      <!-- 0.25 -->
      <g transform="translate(26.685 361.398437)scale(0.1 -0.1)">
       <use xlink:href="#DejaVuSans-48"/>
       <use x="63.623047" xlink:href="#DejaVuSans-46"/>
       <use x="95.410156" xlink:href="#DejaVuSans-50"/>
       <use x="159.033203" xlink:href="#DejaVuSans-53"/>
      </g>
     </g>
    </g>
    <g id="text_23">
     <!-- AD FP -->
     <g transform="translate(19.3575 541.513504)rotate(-90)scale(0.16 -0.16)">
      <use xlink:href="#DejaVuSans-65"/>
      <use x="68.408203" xlink:href="#DejaVuSans-68"/>
      <use x="145.410156" xlink:href="#DejaVuSans-32"/>
      <use x="177.197266" xlink:href="#DejaVuSans-70"/>
      <use x="234.716797" xlink:href="#DejaVuSans-80"/>
     </g>
    </g>
   </g>
   <g id="line2d_57">
    <path clip-path="url(#p2a24d590ac)" d="M 87.627292 680.813504 
L 87.627292 680.813504 
" style="fill:none;stroke:#424242;stroke-linecap:square;stroke-width:2.7;"/>
   </g>
   <g id="line2d_58">
    <path clip-path="url(#p2a24d590ac)" d="M 246.010625 680.813504 
L 246.010625 680.813504 
" style="fill:none;stroke:#424242;stroke-linecap:square;stroke-width:2.7;"/>
   </g>
   <g id="line2d_59">
    <path clip-path="url(#p2a24d590ac)" d="M 119.303958 680.813504 
L 119.303958 680.813504 
" style="fill:none;stroke:#424242;stroke-linecap:square;stroke-width:2.7;"/>
   </g>
   <g id="line2d_60">
    <path clip-path="url(#p2a24d590ac)" d="M 277.687292 680.813504 
L 277.687292 680.813504 
" style="fill:none;stroke:#424242;stroke-linecap:square;stroke-width:2.7;"/>
   </g>
   <g id="line2d_61">
    <path clip-path="url(#p2a24d590ac)" d="M 150.980625 680.813504 
L 150.980625 680.813504 
" style="fill:none;stroke:#424242;stroke-linecap:square;stroke-width:2.7;"/>
   </g>
   <g id="line2d_62">
    <path clip-path="url(#p2a24d590ac)" d="M 309.363958 680.813504 
L 309.363958 680.813504 
" style="fill:none;stroke:#424242;stroke-linecap:square;stroke-width:2.7;"/>
   </g>
   <g id="line2d_63">
    <path clip-path="url(#p2a24d590ac)" d="M 182.657292 680.813504 
L 182.657292 680.813504 
" style="fill:none;stroke:#424242;stroke-linecap:square;stroke-width:2.7;"/>
   </g>
   <g id="line2d_64">
    <path clip-path="url(#p2a24d590ac)" d="M 341.040625 680.813504 
L 341.040625 680.813504 
" style="fill:none;stroke:#424242;stroke-linecap:square;stroke-width:2.7;"/>
   </g>
   <g id="patch_55">
    <path d="M 55.950625 680.813504 
L 55.950625 355.013504 
" style="fill:none;stroke:#000000;stroke-linecap:square;stroke-linejoin:miter;stroke-width:0.8;"/>
   </g>
   <g id="patch_56">
    <path d="M 372.717292 680.813504 
L 372.717292 355.013504 
" style="fill:none;stroke:#000000;stroke-linecap:square;stroke-linejoin:miter;stroke-width:0.8;"/>
   </g>
   <g id="patch_57">
    <path d="M 55.950625 680.813504 
L 372.717292 680.813504 
" style="fill:none;stroke:#000000;stroke-linecap:square;stroke-linejoin:miter;stroke-width:0.8;"/>
   </g>
   <g id="patch_58">
    <path d="M 55.950625 355.013504 
L 372.717292 355.013504 
" style="fill:none;stroke:#000000;stroke-linecap:square;stroke-linejoin:miter;stroke-width:0.8;"/>
   </g>
  </g>
  <g id="axes_5">
   <g id="patch_59">
    <path d="M 408.954792 680.813504 
L 725.721458 680.813504 
L 725.721458 355.013504 
L 408.954792 355.013504 
z
" style="fill:#ffffff;"/>
   </g>
   <g id="patch_60">
    <path clip-path="url(#pcfeed173aa)" d="M 424.793125 680.813504 
L 456.469792 680.813504 
L 456.469792 680.813504 
L 424.793125 680.813504 
z
" style="fill:#3274a1;"/>
   </g>
   <g id="patch_61">
    <path clip-path="url(#pcfeed173aa)" d="M 583.176458 680.813504 
L 614.853125 680.813504 
L 614.853125 680.813504 
L 583.176458 680.813504 
z
" style="fill:#3274a1;"/>
   </g>
   <g id="patch_62">
    <path clip-path="url(#pcfeed173aa)" d="M 456.469792 680.813504 
L 488.146458 680.813504 
L 488.146458 680.813504 
L 456.469792 680.813504 
z
" style="fill:#e1812c;"/>
   </g>
   <g id="patch_63">
    <path clip-path="url(#pcfeed173aa)" d="M 614.853125 680.813504 
L 646.529792 680.813504 
L 646.529792 680.813504 
L 614.853125 680.813504 
z
" style="fill:#e1812c;"/>
   </g>
   <g id="patch_64">
    <path clip-path="url(#pcfeed173aa)" d="M 488.146458 680.813504 
L 519.823125 680.813504 
L 519.823125 680.813504 
L 488.146458 680.813504 
z
" style="fill:#3a923a;"/>
   </g>
   <g id="patch_65">
    <path clip-path="url(#pcfeed173aa)" d="M 646.529792 680.813504 
L 678.206458 680.813504 
L 678.206458 680.813504 
L 646.529792 680.813504 
z
" style="fill:#3a923a;"/>
   </g>
   <g id="patch_66">
    <path clip-path="url(#pcfeed173aa)" d="M 519.823125 680.813504 
L 551.499792 680.813504 
L 551.499792 632.793096 
L 519.823125 632.793096 
z
" style="fill:#c03d3e;"/>
   </g>
   <g id="patch_67">
    <path clip-path="url(#pcfeed173aa)" d="M 678.206458 680.813504 
L 709.883125 680.813504 
L 709.883125 632.793096 
L 678.206458 632.793096 
z
" style="fill:#c03d3e;"/>
   </g>
   <g id="matplotlib.axis_9">
    <g id="xtick_9">
     <g id="line2d_65">
      <g>
       <use style="stroke:#000000;stroke-width:0.8;" x="488.146458" xlink:href="#mae26344bc1" y="680.813504"/>
      </g>
     </g>
     <g id="text_24">
      <!-- PhISCS-I -->
      <g transform="translate(454.902708 699.971004)scale(0.16 -0.16)">
       <use xlink:href="#DejaVuSans-80"/>
       <use x="60.302734" xlink:href="#DejaVuSans-104"/>
       <use x="123.681641" xlink:href="#DejaVuSans-73"/>
       <use x="153.173828" xlink:href="#DejaVuSans-83"/>
       <use x="216.650391" xlink:href="#DejaVuSans-67"/>
       <use x="286.474609" xlink:href="#DejaVuSans-83"/>
       <use x="349.951172" xlink:href="#DejaVuSans-45"/>
       <use x="386.035156" xlink:href="#DejaVuSans-73"/>
      </g>
     </g>
    </g>
    <g id="xtick_10">
     <g id="line2d_66">
      <g>
       <use style="stroke:#000000;stroke-width:0.8;" x="646.529792" xlink:href="#mae26344bc1" y="680.813504"/>
      </g>
     </g>
     <g id="text_25">
      <!-- PhISCS-MI -->
      <g transform="translate(606.383542 699.971004)scale(0.16 -0.16)">
       <use xlink:href="#DejaVuSans-80"/>
       <use x="60.302734" xlink:href="#DejaVuSans-104"/>
       <use x="123.681641" xlink:href="#DejaVuSans-73"/>
       <use x="153.173828" xlink:href="#DejaVuSans-83"/>
       <use x="216.650391" xlink:href="#DejaVuSans-67"/>
       <use x="286.474609" xlink:href="#DejaVuSans-83"/>
       <use x="349.951172" xlink:href="#DejaVuSans-45"/>
       <use x="386.035156" xlink:href="#DejaVuSans-77"/>
       <use x="472.314453" xlink:href="#DejaVuSans-73"/>
      </g>
     </g>
    </g>
   </g>
   <g id="matplotlib.axis_10">
    <g id="ytick_25">
     <g id="line2d_67">
      <g>
       <use style="stroke:#000000;stroke-width:0.8;" x="408.954792" xlink:href="#m37065fa0f6" y="680.813504"/>
      </g>
     </g>
    </g>
    <g id="ytick_26">
     <g id="line2d_68">
      <g>
       <use style="stroke:#000000;stroke-width:0.8;" x="408.954792" xlink:href="#m37065fa0f6" y="616.170647"/>
      </g>
     </g>
    </g>
    <g id="ytick_27">
     <g id="line2d_69">
      <g>
       <use style="stroke:#000000;stroke-width:0.8;" x="408.954792" xlink:href="#m37065fa0f6" y="551.52779"/>
      </g>
     </g>
    </g>
    <g id="ytick_28">
     <g id="line2d_70">
      <g>
       <use style="stroke:#000000;stroke-width:0.8;" x="408.954792" xlink:href="#m37065fa0f6" y="486.884933"/>
      </g>
     </g>
    </g>
    <g id="ytick_29">
     <g id="line2d_71">
      <g>
       <use style="stroke:#000000;stroke-width:0.8;" x="408.954792" xlink:href="#m37065fa0f6" y="422.242076"/>
      </g>
     </g>
    </g>
    <g id="ytick_30">
     <g id="line2d_72">
      <g>
       <use style="stroke:#000000;stroke-width:0.8;" x="408.954792" xlink:href="#m37065fa0f6" y="357.599219"/>
      </g>
     </g>
    </g>
    <g id="text_26">
     <!-- DB FP -->
     <g transform="translate(401.627292 541.529754)rotate(-90)scale(0.16 -0.16)">
      <use xlink:href="#DejaVuSans-68"/>
      <use x="77.001953" xlink:href="#DejaVuSans-66"/>
      <use x="145.605469" xlink:href="#DejaVuSans-32"/>
      <use x="177.392578" xlink:href="#DejaVuSans-70"/>
      <use x="234.912109" xlink:href="#DejaVuSans-80"/>
     </g>
    </g>
   </g>
   <g id="line2d_73">
    <path clip-path="url(#pcfeed173aa)" d="M 440.631458 680.813504 
L 440.631458 680.813504 
" style="fill:none;stroke:#424242;stroke-linecap:square;stroke-width:2.7;"/>
   </g>
   <g id="line2d_74">
    <path clip-path="url(#pcfeed173aa)" d="M 599.014792 680.813504 
L 599.014792 680.813504 
" style="fill:none;stroke:#424242;stroke-linecap:square;stroke-width:2.7;"/>
   </g>
   <g id="line2d_75">
    <path clip-path="url(#pcfeed173aa)" d="M 472.308125 680.813504 
L 472.308125 680.813504 
" style="fill:none;stroke:#424242;stroke-linecap:square;stroke-width:2.7;"/>
   </g>
   <g id="line2d_76">
    <path clip-path="url(#pcfeed173aa)" d="M 630.691458 680.813504 
L 630.691458 680.813504 
" style="fill:none;stroke:#424242;stroke-linecap:square;stroke-width:2.7;"/>
   </g>
   <g id="line2d_77">
    <path clip-path="url(#pcfeed173aa)" d="M 503.984792 680.813504 
L 503.984792 680.813504 
" style="fill:none;stroke:#424242;stroke-linecap:square;stroke-width:2.7;"/>
   </g>
   <g id="line2d_78">
    <path clip-path="url(#pcfeed173aa)" d="M 662.368125 680.813504 
L 662.368125 680.813504 
" style="fill:none;stroke:#424242;stroke-linecap:square;stroke-width:2.7;"/>
   </g>
   <g id="line2d_79">
    <path clip-path="url(#pcfeed173aa)" d="M 535.661458 680.813504 
L 535.661458 575.445647 
" style="fill:none;stroke:#424242;stroke-linecap:square;stroke-width:2.7;"/>
   </g>
   <g id="line2d_80">
    <path clip-path="url(#pcfeed173aa)" d="M 694.044792 680.813504 
L 694.044792 581.078811 
" style="fill:none;stroke:#424242;stroke-linecap:square;stroke-width:2.7;"/>
   </g>
   <g id="patch_68">
    <path d="M 408.954792 680.813504 
L 408.954792 355.013504 
" style="fill:none;stroke:#000000;stroke-linecap:square;stroke-linejoin:miter;stroke-width:0.8;"/>
   </g>
   <g id="patch_69">
    <path d="M 725.721458 680.813504 
L 725.721458 355.013504 
" style="fill:none;stroke:#000000;stroke-linecap:square;stroke-linejoin:miter;stroke-width:0.8;"/>
   </g>
   <g id="patch_70">
    <path d="M 408.954792 680.813504 
L 725.721458 680.813504 
" style="fill:none;stroke:#000000;stroke-linecap:square;stroke-linejoin:miter;stroke-width:0.8;"/>
   </g>
   <g id="patch_71">
    <path d="M 408.954792 355.013504 
L 725.721458 355.013504 
" style="fill:none;stroke:#000000;stroke-linecap:square;stroke-linejoin:miter;stroke-width:0.8;"/>
   </g>
  </g>
  <g id="axes_6">
   <g id="patch_72">
    <path d="M 761.958958 680.813504 
L 1078.725625 680.813504 
L 1078.725625 355.013504 
L 761.958958 355.013504 
z
" style="fill:#ffffff;"/>
   </g>
   <g id="patch_73">
    <path clip-path="url(#p3cebdddd7b)" d="M 777.797292 680.813504 
L 809.473958 680.813504 
L 809.473958 680.813504 
L 777.797292 680.813504 
z
" style="fill:#3274a1;"/>
   </g>
   <g id="patch_74">
    <path clip-path="url(#p3cebdddd7b)" d="M 936.180625 680.813504 
L 967.857292 680.813504 
L 967.857292 680.813504 
L 936.180625 680.813504 
z
" style="fill:#3274a1;"/>
   </g>
   <g id="patch_75">
    <path clip-path="url(#p3cebdddd7b)" d="M 809.473958 680.813504 
L 841.150625 680.813504 
L 841.150625 680.813504 
L 809.473958 680.813504 
z
" style="fill:#e1812c;"/>
   </g>
   <g id="patch_76">
    <path clip-path="url(#p3cebdddd7b)" d="M 967.857292 680.813504 
L 999.533958 680.813504 
L 999.533958 680.813504 
L 967.857292 680.813504 
z
" style="fill:#e1812c;"/>
   </g>
   <g id="patch_77">
    <path clip-path="url(#p3cebdddd7b)" d="M 841.150625 680.813504 
L 872.827292 680.813504 
L 872.827292 680.813504 
L 841.150625 680.813504 
z
" style="fill:#3a923a;"/>
   </g>
   <g id="patch_78">
    <path clip-path="url(#p3cebdddd7b)" d="M 999.533958 680.813504 
L 1031.210625 680.813504 
L 1031.210625 680.813504 
L 999.533958 680.813504 
z
" style="fill:#3a923a;"/>
   </g>
   <g id="patch_79">
    <path clip-path="url(#p3cebdddd7b)" d="M 872.827292 680.813504 
L 904.503958 680.813504 
L 904.503958 680.813504 
L 872.827292 680.813504 
z
" style="fill:#c03d3e;"/>
   </g>
   <g id="patch_80">
    <path clip-path="url(#p3cebdddd7b)" d="M 1031.210625 680.813504 
L 1062.887292 680.813504 
L 1062.887292 680.813504 
L 1031.210625 680.813504 
z
" style="fill:#c03d3e;"/>
   </g>
   <g id="matplotlib.axis_11">
    <g id="xtick_11">
     <g id="line2d_81">
      <g>
       <use style="stroke:#000000;stroke-width:0.8;" x="841.150625" xlink:href="#mae26344bc1" y="680.813504"/>
      </g>
     </g>
     <g id="text_27">
      <!-- PhISCS-I -->
      <g transform="translate(807.906875 699.971004)scale(0.16 -0.16)">
       <use xlink:href="#DejaVuSans-80"/>
       <use x="60.302734" xlink:href="#DejaVuSans-104"/>
       <use x="123.681641" xlink:href="#DejaVuSans-73"/>
       <use x="153.173828" xlink:href="#DejaVuSans-83"/>
       <use x="216.650391" xlink:href="#DejaVuSans-67"/>
       <use x="286.474609" xlink:href="#DejaVuSans-83"/>
       <use x="349.951172" xlink:href="#DejaVuSans-45"/>
       <use x="386.035156" xlink:href="#DejaVuSans-73"/>
      </g>
     </g>
    </g>
    <g id="xtick_12">
     <g id="line2d_82">
      <g>
       <use style="stroke:#000000;stroke-width:0.8;" x="999.533958" xlink:href="#mae26344bc1" y="680.813504"/>
      </g>
     </g>
     <g id="text_28">
      <!-- PhISCS-MI -->
      <g transform="translate(959.387708 699.971004)scale(0.16 -0.16)">
       <use xlink:href="#DejaVuSans-80"/>
       <use x="60.302734" xlink:href="#DejaVuSans-104"/>
       <use x="123.681641" xlink:href="#DejaVuSans-73"/>
       <use x="153.173828" xlink:href="#DejaVuSans-83"/>
       <use x="216.650391" xlink:href="#DejaVuSans-67"/>
       <use x="286.474609" xlink:href="#DejaVuSans-83"/>
       <use x="349.951172" xlink:href="#DejaVuSans-45"/>
       <use x="386.035156" xlink:href="#DejaVuSans-77"/>
       <use x="472.314453" xlink:href="#DejaVuSans-73"/>
      </g>
     </g>
    </g>
   </g>
   <g id="matplotlib.axis_12">
    <g id="ytick_31">
     <g id="line2d_83">
      <g>
       <use style="stroke:#000000;stroke-width:0.8;" x="761.958958" xlink:href="#m37065fa0f6" y="680.813504"/>
      </g>
     </g>
    </g>
    <g id="ytick_32">
     <g id="line2d_84">
      <g>
       <use style="stroke:#000000;stroke-width:0.8;" x="761.958958" xlink:href="#m37065fa0f6" y="616.170647"/>
      </g>
     </g>
    </g>
    <g id="ytick_33">
     <g id="line2d_85">
      <g>
       <use style="stroke:#000000;stroke-width:0.8;" x="761.958958" xlink:href="#m37065fa0f6" y="551.52779"/>
      </g>
     </g>
    </g>
    <g id="ytick_34">
     <g id="line2d_86">
      <g>
       <use style="stroke:#000000;stroke-width:0.8;" x="761.958958" xlink:href="#m37065fa0f6" y="486.884933"/>
      </g>
     </g>
    </g>
    <g id="ytick_35">
     <g id="line2d_87">
      <g>
       <use style="stroke:#000000;stroke-width:0.8;" x="761.958958" xlink:href="#m37065fa0f6" y="422.242076"/>
      </g>
     </g>
    </g>
    <g id="ytick_36">
     <g id="line2d_88">
      <g>
       <use style="stroke:#000000;stroke-width:0.8;" x="761.958958" xlink:href="#m37065fa0f6" y="357.599219"/>
      </g>
     </g>
    </g>
    <g id="text_29">
     <!-- SNL FP -->
     <g transform="translate(754.631458 545.402254)rotate(-90)scale(0.16 -0.16)">
      <use xlink:href="#DejaVuSans-83"/>
      <use x="63.476562" xlink:href="#DejaVuSans-78"/>
      <use x="138.28125" xlink:href="#DejaVuSans-76"/>
      <use x="193.994141" xlink:href="#DejaVuSans-32"/>
      <use x="225.78125" xlink:href="#DejaVuSans-70"/>
      <use x="283.300781" xlink:href="#DejaVuSans-80"/>
     </g>
    </g>
   </g>
   <g id="line2d_89">
    <path clip-path="url(#p3cebdddd7b)" d="M 793.635625 680.813504 
L 793.635625 680.813504 
" style="fill:none;stroke:#424242;stroke-linecap:square;stroke-width:2.7;"/>
   </g>
   <g id="line2d_90">
    <path clip-path="url(#p3cebdddd7b)" d="M 952.018958 680.813504 
L 952.018958 680.813504 
" style="fill:none;stroke:#424242;stroke-linecap:square;stroke-width:2.7;"/>
   </g>
   <g id="line2d_91">
    <path clip-path="url(#p3cebdddd7b)" d="M 825.312292 680.813504 
L 825.312292 680.813504 
" style="fill:none;stroke:#424242;stroke-linecap:square;stroke-width:2.7;"/>
   </g>
   <g id="line2d_92">
    <path clip-path="url(#p3cebdddd7b)" d="M 983.695625 680.813504 
L 983.695625 680.813504 
" style="fill:none;stroke:#424242;stroke-linecap:square;stroke-width:2.7;"/>
   </g>
   <g id="line2d_93">
    <path clip-path="url(#p3cebdddd7b)" d="M 856.988958 680.813504 
L 856.988958 680.813504 
" style="fill:none;stroke:#424242;stroke-linecap:square;stroke-width:2.7;"/>
   </g>
   <g id="line2d_94">
    <path clip-path="url(#p3cebdddd7b)" d="M 1015.372292 680.813504 
L 1015.372292 680.813504 
" style="fill:none;stroke:#424242;stroke-linecap:square;stroke-width:2.7;"/>
   </g>
   <g id="line2d_95">
    <path clip-path="url(#p3cebdddd7b)" d="M 888.665625 680.813504 
L 888.665625 680.813504 
" style="fill:none;stroke:#424242;stroke-linecap:square;stroke-width:2.7;"/>
   </g>
   <g id="line2d_96">
    <path clip-path="url(#p3cebdddd7b)" d="M 1047.048958 680.813504 
L 1047.048958 680.813504 
" style="fill:none;stroke:#424242;stroke-linecap:square;stroke-width:2.7;"/>
   </g>
   <g id="patch_81">
    <path d="M 761.958958 680.813504 
L 761.958958 355.013504 
" style="fill:none;stroke:#000000;stroke-linecap:square;stroke-linejoin:miter;stroke-width:0.8;"/>
   </g>
   <g id="patch_82">
    <path d="M 1078.725625 680.813504 
L 1078.725625 355.013504 
" style="fill:none;stroke:#000000;stroke-linecap:square;stroke-linejoin:miter;stroke-width:0.8;"/>
   </g>
   <g id="patch_83">
    <path d="M 761.958958 680.813504 
L 1078.725625 680.813504 
" style="fill:none;stroke:#000000;stroke-linecap:square;stroke-linejoin:miter;stroke-width:0.8;"/>
   </g>
   <g id="patch_84">
    <path d="M 761.958958 355.013504 
L 1078.725625 355.013504 
" style="fill:none;stroke:#000000;stroke-linecap:square;stroke-linejoin:miter;stroke-width:0.8;"/>
   </g>
  </g>
 </g>
 <defs>
  <clipPath id="pf62bdf9bc0">
   <rect height="325.8" width="316.766667" x="55.950625" y="8.413504"/>
  </clipPath>
  <clipPath id="pb24595cce3">
   <rect height="325.8" width="316.766667" x="408.954792" y="8.413504"/>
  </clipPath>
  <clipPath id="p768c4e842f">
   <rect height="325.8" width="316.766667" x="761.958958" y="8.413504"/>
  </clipPath>
  <clipPath id="p2a24d590ac">
   <rect height="325.8" width="316.766667" x="55.950625" y="355.013504"/>
  </clipPath>
  <clipPath id="pcfeed173aa">
   <rect height="325.8" width="316.766667" x="408.954792" y="355.013504"/>
  </clipPath>
  <clipPath id="p3cebdddd7b">
   <rect height="325.8" width="316.766667" x="761.958958" y="355.013504"/>
  </clipPath>
 </defs>
</svg>
