<?xml version="1.0" encoding="utf-8" standalone="no"?>
<!DOCTYPE svg PUBLIC "-//W3C//DTD SVG 1.1//EN"
  "http://www.w3.org/Graphics/SVG/1.1/DTD/svg11.dtd">
<!-- Created with matplotlib (https://matplotlib.org/) -->
<svg height="709.285pt" version="1.1" viewBox="0 0 1079.563125 709.285" width="1079.563125pt" xmlns="http://www.w3.org/2000/svg" xmlns:xlink="http://www.w3.org/1999/xlink">
 <metadata>
  <rdf:RDF xmlns:cc="http://creativecommons.org/ns#" xmlns:dc="http://purl.org/dc/elements/1.1/" xmlns:rdf="http://www.w3.org/1999/02/22-rdf-syntax-ns#">
   <cc:Work>
    <dc:type rdf:resource="http://purl.org/dc/dcmitype/StillImage"/>
    <dc:date>2021-05-04T14:28:54.267610</dc:date>
    <dc:format>image/svg+xml</dc:format>
    <dc:creator>
     <cc:Agent>
      <dc:title>Matplotlib v3.3.3, https://matplotlib.org/</dc:title>
     </cc:Agent>
    </dc:creator>
   </cc:Work>
  </rdf:RDF>
 </metadata>
 <defs>
  <style type="text/css">*{stroke-linecap:butt;stroke-linejoin:round;}</style>
 </defs>
 <g id="figure_1">
  <g id="patch_1">
   <path d="M 0 709.285 
L 1079.563125 709.285 
L 1079.563125 0 
L 0 0 
z
" style="fill:none;"/>
  </g>
  <g id="axes_1">
   <g id="patch_2">
    <path d="M 49.588125 333 
L 366.354792 333 
L 366.354792 7.2 
L 49.588125 7.2 
z
" style="fill:#ffffff;"/>
   </g>
   <g id="patch_3">
    <path clip-path="url(#p65f8c5c2ff)" d="M 65.426458 333 
L 97.103125 333 
L 97.103125 214.268177 
L 65.426458 214.268177 
z
" style="fill:#3274a1;"/>
   </g>
   <g id="patch_4">
    <path clip-path="url(#p65f8c5c2ff)" d="M 223.809792 333 
L 255.486458 333 
L 255.486458 214.268177 
L 223.809792 214.268177 
z
" style="fill:#3274a1;"/>
   </g>
   <g id="patch_5">
    <path clip-path="url(#p65f8c5c2ff)" d="M 97.103125 333 
L 128.779792 333 
L 128.779792 197.748336 
L 97.103125 197.748336 
z
" style="fill:#e1812c;"/>
   </g>
   <g id="patch_6">
    <path clip-path="url(#p65f8c5c2ff)" d="M 255.486458 333 
L 287.163125 333 
L 287.163125 197.748336 
L 255.486458 197.748336 
z
" style="fill:#e1812c;"/>
   </g>
   <g id="patch_7">
    <path clip-path="url(#p65f8c5c2ff)" d="M 128.779792 333 
L 160.456458 333 
L 160.456458 194.980621 
L 128.779792 194.980621 
z
" style="fill:#3a923a;"/>
   </g>
   <g id="patch_8">
    <path clip-path="url(#p65f8c5c2ff)" d="M 287.163125 333 
L 318.839792 333 
L 318.839792 194.980621 
L 287.163125 194.980621 
z
" style="fill:#3a923a;"/>
   </g>
   <g id="patch_9">
    <path clip-path="url(#p65f8c5c2ff)" d="M 160.456458 333 
L 192.133125 333 
L 192.133125 146.660437 
L 160.456458 146.660437 
z
" style="fill:#c03d3e;"/>
   </g>
   <g id="patch_10">
    <path clip-path="url(#p65f8c5c2ff)" d="M 318.839792 333 
L 350.516458 333 
L 350.516458 143.787421 
L 318.839792 143.787421 
z
" style="fill:#c03d3e;"/>
   </g>
   <g id="matplotlib.axis_1">
    <g id="xtick_1">
     <g id="line2d_1">
      <defs>
       <path d="M 0 0 
L 0 3.5 
" id="m4bb27c0b2a" style="stroke:#000000;stroke-width:0.8;"/>
      </defs>
      <g>
       <use style="stroke:#000000;stroke-width:0.8;" x="128.779792" xlink:href="#m4bb27c0b2a" y="333"/>
      </g>
     </g>
    </g>
    <g id="xtick_2">
     <g id="line2d_2">
      <g>
       <use style="stroke:#000000;stroke-width:0.8;" x="287.163125" xlink:href="#m4bb27c0b2a" y="333"/>
      </g>
     </g>
    </g>
   </g>
   <g id="matplotlib.axis_2">
    <g id="ytick_1">
     <g id="line2d_3">
      <defs>
       <path d="M 0 0 
L -3.5 0 
" id="m6602cb29bd" style="stroke:#000000;stroke-width:0.8;"/>
      </defs>
      <g>
       <use style="stroke:#000000;stroke-width:0.8;" x="49.588125" xlink:href="#m6602cb29bd" y="333"/>
      </g>
     </g>
     <g id="text_1">
      <!-- 0.0 -->
      <g transform="translate(26.685 336.799219)scale(0.1 -0.1)">
       <defs>
        <path d="M 31.78125 66.40625 
Q 24.171875 66.40625 20.328125 58.90625 
Q 16.5 51.421875 16.5 36.375 
Q 16.5 21.390625 20.328125 13.890625 
Q 24.171875 6.390625 31.78125 6.390625 
Q 39.453125 6.390625 43.28125 13.890625 
Q 47.125 21.390625 47.125 36.375 
Q 47.125 51.421875 43.28125 58.90625 
Q 39.453125 66.40625 31.78125 66.40625 
z
M 31.78125 74.21875 
Q 44.046875 74.21875 50.515625 64.515625 
Q 56.984375 54.828125 56.984375 36.375 
Q 56.984375 17.96875 50.515625 8.265625 
Q 44.046875 -1.421875 31.78125 -1.421875 
Q 19.53125 -1.421875 13.0625 8.265625 
Q 6.59375 17.96875 6.59375 36.375 
Q 6.59375 54.828125 13.0625 64.515625 
Q 19.53125 74.21875 31.78125 74.21875 
z
" id="DejaVuSans-48"/>
        <path d="M 10.6875 12.40625 
L 21 12.40625 
L 21 0 
L 10.6875 0 
z
" id="DejaVuSans-46"/>
       </defs>
       <use xlink:href="#DejaVuSans-48"/>
       <use x="63.623047" xlink:href="#DejaVuSans-46"/>
       <use x="95.410156" xlink:href="#DejaVuSans-48"/>
      </g>
     </g>
    </g>
    <g id="ytick_2">
     <g id="line2d_4">
      <g>
       <use style="stroke:#000000;stroke-width:0.8;" x="49.588125" xlink:href="#m6602cb29bd" y="264.047619"/>
      </g>
     </g>
     <g id="text_2">
      <!-- 0.2 -->
      <g transform="translate(26.685 267.846838)scale(0.1 -0.1)">
       <defs>
        <path d="M 19.1875 8.296875 
L 53.609375 8.296875 
L 53.609375 0 
L 7.328125 0 
L 7.328125 8.296875 
Q 12.9375 14.109375 22.625 23.890625 
Q 32.328125 33.6875 34.8125 36.53125 
Q 39.546875 41.84375 41.421875 45.53125 
Q 43.3125 49.21875 43.3125 52.78125 
Q 43.3125 58.59375 39.234375 62.25 
Q 35.15625 65.921875 28.609375 65.921875 
Q 23.96875 65.921875 18.8125 64.3125 
Q 13.671875 62.703125 7.8125 59.421875 
L 7.8125 69.390625 
Q 13.765625 71.78125 18.9375 73 
Q 24.125 74.21875 28.421875 74.21875 
Q 39.75 74.21875 46.484375 68.546875 
Q 53.21875 62.890625 53.21875 53.421875 
Q 53.21875 48.921875 51.53125 44.890625 
Q 49.859375 40.875 45.40625 35.40625 
Q 44.1875 33.984375 37.640625 27.21875 
Q 31.109375 20.453125 19.1875 8.296875 
z
" id="DejaVuSans-50"/>
       </defs>
       <use xlink:href="#DejaVuSans-48"/>
       <use x="63.623047" xlink:href="#DejaVuSans-46"/>
       <use x="95.410156" xlink:href="#DejaVuSans-50"/>
      </g>
     </g>
    </g>
    <g id="ytick_3">
     <g id="line2d_5">
      <g>
       <use style="stroke:#000000;stroke-width:0.8;" x="49.588125" xlink:href="#m6602cb29bd" y="195.095238"/>
      </g>
     </g>
     <g id="text_3">
      <!-- 0.4 -->
      <g transform="translate(26.685 198.894457)scale(0.1 -0.1)">
       <defs>
        <path d="M 37.796875 64.3125 
L 12.890625 25.390625 
L 37.796875 25.390625 
z
M 35.203125 72.90625 
L 47.609375 72.90625 
L 47.609375 25.390625 
L 58.015625 25.390625 
L 58.015625 17.1875 
L 47.609375 17.1875 
L 47.609375 0 
L 37.796875 0 
L 37.796875 17.1875 
L 4.890625 17.1875 
L 4.890625 26.703125 
z
" id="DejaVuSans-52"/>
       </defs>
       <use xlink:href="#DejaVuSans-48"/>
       <use x="63.623047" xlink:href="#DejaVuSans-46"/>
       <use x="95.410156" xlink:href="#DejaVuSans-52"/>
      </g>
     </g>
    </g>
    <g id="ytick_4">
     <g id="line2d_6">
      <g>
       <use style="stroke:#000000;stroke-width:0.8;" x="49.588125" xlink:href="#m6602cb29bd" y="126.142857"/>
      </g>
     </g>
     <g id="text_4">
      <!-- 0.6 -->
      <g transform="translate(26.685 129.942076)scale(0.1 -0.1)">
       <defs>
        <path d="M 33.015625 40.375 
Q 26.375 40.375 22.484375 35.828125 
Q 18.609375 31.296875 18.609375 23.390625 
Q 18.609375 15.53125 22.484375 10.953125 
Q 26.375 6.390625 33.015625 6.390625 
Q 39.65625 6.390625 43.53125 10.953125 
Q 47.40625 15.53125 47.40625 23.390625 
Q 47.40625 31.296875 43.53125 35.828125 
Q 39.65625 40.375 33.015625 40.375 
z
M 52.59375 71.296875 
L 52.59375 62.3125 
Q 48.875 64.0625 45.09375 64.984375 
Q 41.3125 65.921875 37.59375 65.921875 
Q 27.828125 65.921875 22.671875 59.328125 
Q 17.53125 52.734375 16.796875 39.40625 
Q 19.671875 43.65625 24.015625 45.921875 
Q 28.375 48.1875 33.59375 48.1875 
Q 44.578125 48.1875 50.953125 41.515625 
Q 57.328125 34.859375 57.328125 23.390625 
Q 57.328125 12.15625 50.6875 5.359375 
Q 44.046875 -1.421875 33.015625 -1.421875 
Q 20.359375 -1.421875 13.671875 8.265625 
Q 6.984375 17.96875 6.984375 36.375 
Q 6.984375 53.65625 15.1875 63.9375 
Q 23.390625 74.21875 37.203125 74.21875 
Q 40.921875 74.21875 44.703125 73.484375 
Q 48.484375 72.75 52.59375 71.296875 
z
" id="DejaVuSans-54"/>
       </defs>
       <use xlink:href="#DejaVuSans-48"/>
       <use x="63.623047" xlink:href="#DejaVuSans-46"/>
       <use x="95.410156" xlink:href="#DejaVuSans-54"/>
      </g>
     </g>
    </g>
    <g id="ytick_5">
     <g id="line2d_7">
      <g>
       <use style="stroke:#000000;stroke-width:0.8;" x="49.588125" xlink:href="#m6602cb29bd" y="57.190476"/>
      </g>
     </g>
     <g id="text_5">
      <!-- 0.8 -->
      <g transform="translate(26.685 60.989695)scale(0.1 -0.1)">
       <defs>
        <path d="M 31.78125 34.625 
Q 24.75 34.625 20.71875 30.859375 
Q 16.703125 27.09375 16.703125 20.515625 
Q 16.703125 13.921875 20.71875 10.15625 
Q 24.75 6.390625 31.78125 6.390625 
Q 38.8125 6.390625 42.859375 10.171875 
Q 46.921875 13.96875 46.921875 20.515625 
Q 46.921875 27.09375 42.890625 30.859375 
Q 38.875 34.625 31.78125 34.625 
z
M 21.921875 38.8125 
Q 15.578125 40.375 12.03125 44.71875 
Q 8.5 49.078125 8.5 55.328125 
Q 8.5 64.0625 14.71875 69.140625 
Q 20.953125 74.21875 31.78125 74.21875 
Q 42.671875 74.21875 48.875 69.140625 
Q 55.078125 64.0625 55.078125 55.328125 
Q 55.078125 49.078125 51.53125 44.71875 
Q 48 40.375 41.703125 38.8125 
Q 48.828125 37.15625 52.796875 32.3125 
Q 56.78125 27.484375 56.78125 20.515625 
Q 56.78125 9.90625 50.3125 4.234375 
Q 43.84375 -1.421875 31.78125 -1.421875 
Q 19.734375 -1.421875 13.25 4.234375 
Q 6.78125 9.90625 6.78125 20.515625 
Q 6.78125 27.484375 10.78125 32.3125 
Q 14.796875 37.15625 21.921875 38.8125 
z
M 18.3125 54.390625 
Q 18.3125 48.734375 21.84375 45.5625 
Q 25.390625 42.390625 31.78125 42.390625 
Q 38.140625 42.390625 41.71875 45.5625 
Q 45.3125 48.734375 45.3125 54.390625 
Q 45.3125 60.0625 41.71875 63.234375 
Q 38.140625 66.40625 31.78125 66.40625 
Q 25.390625 66.40625 21.84375 63.234375 
Q 18.3125 60.0625 18.3125 54.390625 
z
" id="DejaVuSans-56"/>
       </defs>
       <use xlink:href="#DejaVuSans-48"/>
       <use x="63.623047" xlink:href="#DejaVuSans-46"/>
       <use x="95.410156" xlink:href="#DejaVuSans-56"/>
      </g>
     </g>
    </g>
    <g id="text_6">
     <!-- AD FN -->
     <g transform="translate(19.3575 194.86125)rotate(-90)scale(0.16 -0.16)">
      <defs>
       <path d="M 34.1875 63.1875 
L 20.796875 26.90625 
L 47.609375 26.90625 
z
M 28.609375 72.90625 
L 39.796875 72.90625 
L 67.578125 0 
L 57.328125 0 
L 50.6875 18.703125 
L 17.828125 18.703125 
L 11.1875 0 
L 0.78125 0 
z
" id="DejaVuSans-65"/>
       <path d="M 19.671875 64.796875 
L 19.671875 8.109375 
L 31.59375 8.109375 
Q 46.6875 8.109375 53.6875 14.9375 
Q 60.6875 21.78125 60.6875 36.53125 
Q 60.6875 51.171875 53.6875 57.984375 
Q 46.6875 64.796875 31.59375 64.796875 
z
M 9.8125 72.90625 
L 30.078125 72.90625 
Q 51.265625 72.90625 61.171875 64.09375 
Q 71.09375 55.28125 71.09375 36.53125 
Q 71.09375 17.671875 61.125 8.828125 
Q 51.171875 0 30.078125 0 
L 9.8125 0 
z
" id="DejaVuSans-68"/>
       <path id="DejaVuSans-32"/>
       <path d="M 9.8125 72.90625 
L 51.703125 72.90625 
L 51.703125 64.59375 
L 19.671875 64.59375 
L 19.671875 43.109375 
L 48.578125 43.109375 
L 48.578125 34.8125 
L 19.671875 34.8125 
L 19.671875 0 
L 9.8125 0 
z
" id="DejaVuSans-70"/>
       <path d="M 9.8125 72.90625 
L 23.09375 72.90625 
L 55.421875 11.921875 
L 55.421875 72.90625 
L 64.984375 72.90625 
L 64.984375 0 
L 51.703125 0 
L 19.390625 60.984375 
L 19.390625 0 
L 9.8125 0 
z
" id="DejaVuSans-78"/>
      </defs>
      <use xlink:href="#DejaVuSans-65"/>
      <use x="68.408203" xlink:href="#DejaVuSans-68"/>
      <use x="145.410156" xlink:href="#DejaVuSans-32"/>
      <use x="177.197266" xlink:href="#DejaVuSans-70"/>
      <use x="234.716797" xlink:href="#DejaVuSans-78"/>
     </g>
    </g>
   </g>
   <g id="line2d_8">
    <path clip-path="url(#p65f8c5c2ff)" d="M 81.264792 241.236637 
L 81.264792 186.289937 
" style="fill:none;stroke:#424242;stroke-linecap:square;stroke-width:2.7;"/>
   </g>
   <g id="line2d_9">
    <path clip-path="url(#p65f8c5c2ff)" d="M 239.648125 242.666238 
L 239.648125 185.383453 
" style="fill:none;stroke:#424242;stroke-linecap:square;stroke-width:2.7;"/>
   </g>
   <g id="line2d_10">
    <path clip-path="url(#p65f8c5c2ff)" d="M 112.941458 225.931977 
L 112.941458 172.462276 
" style="fill:none;stroke:#424242;stroke-linecap:square;stroke-width:2.7;"/>
   </g>
   <g id="line2d_11">
    <path clip-path="url(#p65f8c5c2ff)" d="M 271.324792 224.43315 
L 271.324792 172.277295 
" style="fill:none;stroke:#424242;stroke-linecap:square;stroke-width:2.7;"/>
   </g>
   <g id="line2d_12">
    <path clip-path="url(#p65f8c5c2ff)" d="M 144.618125 215.365091 
L 144.618125 169.78887 
" style="fill:none;stroke:#424242;stroke-linecap:square;stroke-width:2.7;"/>
   </g>
   <g id="line2d_13">
    <path clip-path="url(#p65f8c5c2ff)" d="M 303.001458 216.029384 
L 303.001458 170.867335 
" style="fill:none;stroke:#424242;stroke-linecap:square;stroke-width:2.7;"/>
   </g>
   <g id="line2d_14">
    <path clip-path="url(#p65f8c5c2ff)" d="M 176.294792 182.720654 
L 176.294792 113.407228 
" style="fill:none;stroke:#424242;stroke-linecap:square;stroke-width:2.7;"/>
   </g>
   <g id="line2d_15">
    <path clip-path="url(#p65f8c5c2ff)" d="M 334.678125 178.566075 
L 334.678125 110.328031 
" style="fill:none;stroke:#424242;stroke-linecap:square;stroke-width:2.7;"/>
   </g>
   <g id="patch_11">
    <path d="M 49.588125 333 
L 49.588125 7.2 
" style="fill:none;stroke:#000000;stroke-linecap:square;stroke-linejoin:miter;stroke-width:0.8;"/>
   </g>
   <g id="patch_12">
    <path d="M 366.354792 333 
L 366.354792 7.2 
" style="fill:none;stroke:#000000;stroke-linecap:square;stroke-linejoin:miter;stroke-width:0.8;"/>
   </g>
   <g id="patch_13">
    <path d="M 49.588125 333 
L 366.354792 333 
" style="fill:none;stroke:#000000;stroke-linecap:square;stroke-linejoin:miter;stroke-width:0.8;"/>
   </g>
   <g id="patch_14">
    <path d="M 49.588125 7.2 
L 366.354792 7.2 
" style="fill:none;stroke:#000000;stroke-linecap:square;stroke-linejoin:miter;stroke-width:0.8;"/>
   </g>
   <g id="legend_1">
    <g id="patch_15">
     <path d="M 293.462604 88.590625 
L 359.354792 88.590625 
Q 361.354792 88.590625 361.354792 86.590625 
L 361.354792 14.2 
Q 361.354792 12.2 359.354792 12.2 
L 293.462604 12.2 
Q 291.462604 12.2 291.462604 14.2 
L 291.462604 86.590625 
Q 291.462604 88.590625 293.462604 88.590625 
z
" style="fill:#ffffff;opacity:0.8;stroke:#cccccc;stroke-linejoin:miter;"/>
    </g>
    <g id="text_7">
     <!-- missing rate -->
     <g transform="translate(295.462604 23.798437)scale(0.1 -0.1)">
      <defs>
       <path d="M 52 44.1875 
Q 55.375 50.25 60.0625 53.125 
Q 64.75 56 71.09375 56 
Q 79.640625 56 84.28125 50.015625 
Q 88.921875 44.046875 88.921875 33.015625 
L 88.921875 0 
L 79.890625 0 
L 79.890625 32.71875 
Q 79.890625 40.578125 77.09375 44.375 
Q 74.3125 48.1875 68.609375 48.1875 
Q 61.625 48.1875 57.5625 43.546875 
Q 53.515625 38.921875 53.515625 30.90625 
L 53.515625 0 
L 44.484375 0 
L 44.484375 32.71875 
Q 44.484375 40.625 41.703125 44.40625 
Q 38.921875 48.1875 33.109375 48.1875 
Q 26.21875 48.1875 22.15625 43.53125 
Q 18.109375 38.875 18.109375 30.90625 
L 18.109375 0 
L 9.078125 0 
L 9.078125 54.6875 
L 18.109375 54.6875 
L 18.109375 46.1875 
Q 21.1875 51.21875 25.484375 53.609375 
Q 29.78125 56 35.6875 56 
Q 41.65625 56 45.828125 52.96875 
Q 50 49.953125 52 44.1875 
z
" id="DejaVuSans-109"/>
       <path d="M 9.421875 54.6875 
L 18.40625 54.6875 
L 18.40625 0 
L 9.421875 0 
z
M 9.421875 75.984375 
L 18.40625 75.984375 
L 18.40625 64.59375 
L 9.421875 64.59375 
z
" id="DejaVuSans-105"/>
       <path d="M 44.28125 53.078125 
L 44.28125 44.578125 
Q 40.484375 46.53125 36.375 47.5 
Q 32.28125 48.484375 27.875 48.484375 
Q 21.1875 48.484375 17.84375 46.4375 
Q 14.5 44.390625 14.5 40.28125 
Q 14.5 37.15625 16.890625 35.375 
Q 19.28125 33.59375 26.515625 31.984375 
L 29.59375 31.296875 
Q 39.15625 29.25 43.1875 25.515625 
Q 47.21875 21.78125 47.21875 15.09375 
Q 47.21875 7.46875 41.1875 3.015625 
Q 35.15625 -1.421875 24.609375 -1.421875 
Q 20.21875 -1.421875 15.453125 -0.5625 
Q 10.6875 0.296875 5.421875 2 
L 5.421875 11.28125 
Q 10.40625 8.6875 15.234375 7.390625 
Q 20.0625 6.109375 24.8125 6.109375 
Q 31.15625 6.109375 34.5625 8.28125 
Q 37.984375 10.453125 37.984375 14.40625 
Q 37.984375 18.0625 35.515625 20.015625 
Q 33.0625 21.96875 24.703125 23.78125 
L 21.578125 24.515625 
Q 13.234375 26.265625 9.515625 29.90625 
Q 5.8125 33.546875 5.8125 39.890625 
Q 5.8125 47.609375 11.28125 51.796875 
Q 16.75 56 26.8125 56 
Q 31.78125 56 36.171875 55.265625 
Q 40.578125 54.546875 44.28125 53.078125 
z
" id="DejaVuSans-115"/>
       <path d="M 54.890625 33.015625 
L 54.890625 0 
L 45.90625 0 
L 45.90625 32.71875 
Q 45.90625 40.484375 42.875 44.328125 
Q 39.84375 48.1875 33.796875 48.1875 
Q 26.515625 48.1875 22.3125 43.546875 
Q 18.109375 38.921875 18.109375 30.90625 
L 18.109375 0 
L 9.078125 0 
L 9.078125 54.6875 
L 18.109375 54.6875 
L 18.109375 46.1875 
Q 21.34375 51.125 25.703125 53.5625 
Q 30.078125 56 35.796875 56 
Q 45.21875 56 50.046875 50.171875 
Q 54.890625 44.34375 54.890625 33.015625 
z
" id="DejaVuSans-110"/>
       <path d="M 45.40625 27.984375 
Q 45.40625 37.75 41.375 43.109375 
Q 37.359375 48.484375 30.078125 48.484375 
Q 22.859375 48.484375 18.828125 43.109375 
Q 14.796875 37.75 14.796875 27.984375 
Q 14.796875 18.265625 18.828125 12.890625 
Q 22.859375 7.515625 30.078125 7.515625 
Q 37.359375 7.515625 41.375 12.890625 
Q 45.40625 18.265625 45.40625 27.984375 
z
M 54.390625 6.78125 
Q 54.390625 -7.171875 48.1875 -13.984375 
Q 42 -20.796875 29.203125 -20.796875 
Q 24.46875 -20.796875 20.265625 -20.09375 
Q 16.0625 -19.390625 12.109375 -17.921875 
L 12.109375 -9.1875 
Q 16.0625 -11.328125 19.921875 -12.34375 
Q 23.78125 -13.375 27.78125 -13.375 
Q 36.625 -13.375 41.015625 -8.765625 
Q 45.40625 -4.15625 45.40625 5.171875 
L 45.40625 9.625 
Q 42.625 4.78125 38.28125 2.390625 
Q 33.9375 0 27.875 0 
Q 17.828125 0 11.671875 7.65625 
Q 5.515625 15.328125 5.515625 27.984375 
Q 5.515625 40.671875 11.671875 48.328125 
Q 17.828125 56 27.875 56 
Q 33.9375 56 38.28125 53.609375 
Q 42.625 51.21875 45.40625 46.390625 
L 45.40625 54.6875 
L 54.390625 54.6875 
z
" id="DejaVuSans-103"/>
       <path d="M 41.109375 46.296875 
Q 39.59375 47.171875 37.8125 47.578125 
Q 36.03125 48 33.890625 48 
Q 26.265625 48 22.1875 43.046875 
Q 18.109375 38.09375 18.109375 28.8125 
L 18.109375 0 
L 9.078125 0 
L 9.078125 54.6875 
L 18.109375 54.6875 
L 18.109375 46.1875 
Q 20.953125 51.171875 25.484375 53.578125 
Q 30.03125 56 36.53125 56 
Q 37.453125 56 38.578125 55.875 
Q 39.703125 55.765625 41.0625 55.515625 
z
" id="DejaVuSans-114"/>
       <path d="M 34.28125 27.484375 
Q 23.390625 27.484375 19.1875 25 
Q 14.984375 22.515625 14.984375 16.5 
Q 14.984375 11.71875 18.140625 8.90625 
Q 21.296875 6.109375 26.703125 6.109375 
Q 34.1875 6.109375 38.703125 11.40625 
Q 43.21875 16.703125 43.21875 25.484375 
L 43.21875 27.484375 
z
M 52.203125 31.203125 
L 52.203125 0 
L 43.21875 0 
L 43.21875 8.296875 
Q 40.140625 3.328125 35.546875 0.953125 
Q 30.953125 -1.421875 24.3125 -1.421875 
Q 15.921875 -1.421875 10.953125 3.296875 
Q 6 8.015625 6 15.921875 
Q 6 25.140625 12.171875 29.828125 
Q 18.359375 34.515625 30.609375 34.515625 
L 43.21875 34.515625 
L 43.21875 35.40625 
Q 43.21875 41.609375 39.140625 45 
Q 35.0625 48.390625 27.6875 48.390625 
Q 23 48.390625 18.546875 47.265625 
Q 14.109375 46.140625 10.015625 43.890625 
L 10.015625 52.203125 
Q 14.9375 54.109375 19.578125 55.046875 
Q 24.21875 56 28.609375 56 
Q 40.484375 56 46.34375 49.84375 
Q 52.203125 43.703125 52.203125 31.203125 
z
" id="DejaVuSans-97"/>
       <path d="M 18.3125 70.21875 
L 18.3125 54.6875 
L 36.8125 54.6875 
L 36.8125 47.703125 
L 18.3125 47.703125 
L 18.3125 18.015625 
Q 18.3125 11.328125 20.140625 9.421875 
Q 21.96875 7.515625 27.59375 7.515625 
L 36.8125 7.515625 
L 36.8125 0 
L 27.59375 0 
Q 17.1875 0 13.234375 3.875 
Q 9.28125 7.765625 9.28125 18.015625 
L 9.28125 47.703125 
L 2.6875 47.703125 
L 2.6875 54.6875 
L 9.28125 54.6875 
L 9.28125 70.21875 
z
" id="DejaVuSans-116"/>
       <path d="M 56.203125 29.59375 
L 56.203125 25.203125 
L 14.890625 25.203125 
Q 15.484375 15.921875 20.484375 11.0625 
Q 25.484375 6.203125 34.421875 6.203125 
Q 39.59375 6.203125 44.453125 7.46875 
Q 49.3125 8.734375 54.109375 11.28125 
L 54.109375 2.78125 
Q 49.265625 0.734375 44.1875 -0.34375 
Q 39.109375 -1.421875 33.890625 -1.421875 
Q 20.796875 -1.421875 13.15625 6.1875 
Q 5.515625 13.8125 5.515625 26.8125 
Q 5.515625 40.234375 12.765625 48.109375 
Q 20.015625 56 32.328125 56 
Q 43.359375 56 49.78125 48.890625 
Q 56.203125 41.796875 56.203125 29.59375 
z
M 47.21875 32.234375 
Q 47.125 39.59375 43.09375 43.984375 
Q 39.0625 48.390625 32.421875 48.390625 
Q 24.90625 48.390625 20.390625 44.140625 
Q 15.875 39.890625 15.1875 32.171875 
z
" id="DejaVuSans-101"/>
      </defs>
      <use xlink:href="#DejaVuSans-109"/>
      <use x="97.412109" xlink:href="#DejaVuSans-105"/>
      <use x="125.195312" xlink:href="#DejaVuSans-115"/>
      <use x="177.294922" xlink:href="#DejaVuSans-115"/>
      <use x="229.394531" xlink:href="#DejaVuSans-105"/>
      <use x="257.177734" xlink:href="#DejaVuSans-110"/>
      <use x="320.556641" xlink:href="#DejaVuSans-103"/>
      <use x="384.033203" xlink:href="#DejaVuSans-32"/>
      <use x="415.820312" xlink:href="#DejaVuSans-114"/>
      <use x="456.933594" xlink:href="#DejaVuSans-97"/>
      <use x="518.212891" xlink:href="#DejaVuSans-116"/>
      <use x="557.421875" xlink:href="#DejaVuSans-101"/>
     </g>
    </g>
    <g id="patch_16">
     <path d="M 298.094635 38.476562 
L 318.094635 38.476562 
L 318.094635 31.476562 
L 298.094635 31.476562 
z
" style="fill:#3274a1;"/>
    </g>
    <g id="text_8">
     <!-- 0.0 -->
     <g transform="translate(326.094635 38.476562)scale(0.1 -0.1)">
      <use xlink:href="#DejaVuSans-48"/>
      <use x="63.623047" xlink:href="#DejaVuSans-46"/>
      <use x="95.410156" xlink:href="#DejaVuSans-48"/>
     </g>
    </g>
    <g id="patch_17">
     <path d="M 298.094635 53.154688 
L 318.094635 53.154688 
L 318.094635 46.154688 
L 298.094635 46.154688 
z
" style="fill:#e1812c;"/>
    </g>
    <g id="text_9">
     <!-- 0.125 -->
     <g transform="translate(326.094635 53.154688)scale(0.1 -0.1)">
      <defs>
       <path d="M 12.40625 8.296875 
L 28.515625 8.296875 
L 28.515625 63.921875 
L 10.984375 60.40625 
L 10.984375 69.390625 
L 28.421875 72.90625 
L 38.28125 72.90625 
L 38.28125 8.296875 
L 54.390625 8.296875 
L 54.390625 0 
L 12.40625 0 
z
" id="DejaVuSans-49"/>
       <path d="M 10.796875 72.90625 
L 49.515625 72.90625 
L 49.515625 64.59375 
L 19.828125 64.59375 
L 19.828125 46.734375 
Q 21.96875 47.46875 24.109375 47.828125 
Q 26.265625 48.1875 28.421875 48.1875 
Q 40.625 48.1875 47.75 41.5 
Q 54.890625 34.8125 54.890625 23.390625 
Q 54.890625 11.625 47.5625 5.09375 
Q 40.234375 -1.421875 26.90625 -1.421875 
Q 22.3125 -1.421875 17.546875 -0.640625 
Q 12.796875 0.140625 7.71875 1.703125 
L 7.71875 11.625 
Q 12.109375 9.234375 16.796875 8.0625 
Q 21.484375 6.890625 26.703125 6.890625 
Q 35.15625 6.890625 40.078125 11.328125 
Q 45.015625 15.765625 45.015625 23.390625 
Q 45.015625 31 40.078125 35.4375 
Q 35.15625 39.890625 26.703125 39.890625 
Q 22.75 39.890625 18.8125 39.015625 
Q 14.890625 38.140625 10.796875 36.28125 
z
" id="DejaVuSans-53"/>
      </defs>
      <use xlink:href="#DejaVuSans-48"/>
      <use x="63.623047" xlink:href="#DejaVuSans-46"/>
      <use x="95.410156" xlink:href="#DejaVuSans-49"/>
      <use x="159.033203" xlink:href="#DejaVuSans-50"/>
      <use x="222.65625" xlink:href="#DejaVuSans-53"/>
     </g>
    </g>
    <g id="patch_18">
     <path d="M 298.094635 67.832813 
L 318.094635 67.832813 
L 318.094635 60.832813 
L 298.094635 60.832813 
z
" style="fill:#3a923a;"/>
    </g>
    <g id="text_10">
     <!-- 0.25 -->
     <g transform="translate(326.094635 67.832813)scale(0.1 -0.1)">
      <use xlink:href="#DejaVuSans-48"/>
      <use x="63.623047" xlink:href="#DejaVuSans-46"/>
      <use x="95.410156" xlink:href="#DejaVuSans-50"/>
      <use x="159.033203" xlink:href="#DejaVuSans-53"/>
     </g>
    </g>
    <g id="patch_19">
     <path d="M 298.094635 82.510937 
L 318.094635 82.510937 
L 318.094635 75.510937 
L 298.094635 75.510937 
z
" style="fill:#c03d3e;"/>
    </g>
    <g id="text_11">
     <!-- 0.5 -->
     <g transform="translate(326.094635 82.510937)scale(0.1 -0.1)">
      <use xlink:href="#DejaVuSans-48"/>
      <use x="63.623047" xlink:href="#DejaVuSans-46"/>
      <use x="95.410156" xlink:href="#DejaVuSans-53"/>
     </g>
    </g>
   </g>
  </g>
  <g id="axes_2">
   <g id="patch_20">
    <path d="M 402.592292 333 
L 719.358958 333 
L 719.358958 7.2 
L 402.592292 7.2 
z
" style="fill:#ffffff;"/>
   </g>
   <g id="patch_21">
    <path clip-path="url(#p2982140355)" d="M 418.430625 333 
L 450.107292 333 
L 450.107292 141.465608 
L 418.430625 141.465608 
z
" style="fill:#3274a1;"/>
   </g>
   <g id="patch_22">
    <path clip-path="url(#p2982140355)" d="M 576.813958 333 
L 608.490625 333 
L 608.490625 141.465608 
L 576.813958 141.465608 
z
" style="fill:#3274a1;"/>
   </g>
   <g id="patch_23">
    <path clip-path="url(#p2982140355)" d="M 450.107292 333 
L 481.783958 333 
L 481.783958 123.078307 
L 450.107292 123.078307 
z
" style="fill:#e1812c;"/>
   </g>
   <g id="patch_24">
    <path clip-path="url(#p2982140355)" d="M 608.490625 333 
L 640.167292 333 
L 640.167292 123.078307 
L 608.490625 123.078307 
z
" style="fill:#e1812c;"/>
   </g>
   <g id="patch_25">
    <path clip-path="url(#p2982140355)" d="M 481.783958 333 
L 513.460625 333 
L 513.460625 118.481481 
L 481.783958 118.481481 
z
" style="fill:#3a923a;"/>
   </g>
   <g id="patch_26">
    <path clip-path="url(#p2982140355)" d="M 640.167292 333 
L 671.843958 333 
L 671.843958 118.481481 
L 640.167292 118.481481 
z
" style="fill:#3a923a;"/>
   </g>
   <g id="patch_27">
    <path clip-path="url(#p2982140355)" d="M 513.460625 333 
L 545.137292 333 
L 545.137292 94.348148 
L 513.460625 94.348148 
z
" style="fill:#c03d3e;"/>
   </g>
   <g id="patch_28">
    <path clip-path="url(#p2982140355)" d="M 671.843958 333 
L 703.520625 333 
L 703.520625 94.348148 
L 671.843958 94.348148 
z
" style="fill:#c03d3e;"/>
   </g>
   <g id="matplotlib.axis_3">
    <g id="xtick_3">
     <g id="line2d_16">
      <g>
       <use style="stroke:#000000;stroke-width:0.8;" x="481.783958" xlink:href="#m4bb27c0b2a" y="333"/>
      </g>
     </g>
    </g>
    <g id="xtick_4">
     <g id="line2d_17">
      <g>
       <use style="stroke:#000000;stroke-width:0.8;" x="640.167292" xlink:href="#m4bb27c0b2a" y="333"/>
      </g>
     </g>
    </g>
   </g>
   <g id="matplotlib.axis_4">
    <g id="ytick_6">
     <g id="line2d_18">
      <g>
       <use style="stroke:#000000;stroke-width:0.8;" x="402.592292" xlink:href="#m6602cb29bd" y="333"/>
      </g>
     </g>
    </g>
    <g id="ytick_7">
     <g id="line2d_19">
      <g>
       <use style="stroke:#000000;stroke-width:0.8;" x="402.592292" xlink:href="#m6602cb29bd" y="264.047619"/>
      </g>
     </g>
    </g>
    <g id="ytick_8">
     <g id="line2d_20">
      <g>
       <use style="stroke:#000000;stroke-width:0.8;" x="402.592292" xlink:href="#m6602cb29bd" y="195.095238"/>
      </g>
     </g>
    </g>
    <g id="ytick_9">
     <g id="line2d_21">
      <g>
       <use style="stroke:#000000;stroke-width:0.8;" x="402.592292" xlink:href="#m6602cb29bd" y="126.142857"/>
      </g>
     </g>
    </g>
    <g id="ytick_10">
     <g id="line2d_22">
      <g>
       <use style="stroke:#000000;stroke-width:0.8;" x="402.592292" xlink:href="#m6602cb29bd" y="57.190476"/>
      </g>
     </g>
    </g>
    <g id="text_12">
     <!-- DB FN -->
     <g transform="translate(395.264792 194.8775)rotate(-90)scale(0.16 -0.16)">
      <defs>
       <path d="M 19.671875 34.8125 
L 19.671875 8.109375 
L 35.5 8.109375 
Q 43.453125 8.109375 47.28125 11.40625 
Q 51.125 14.703125 51.125 21.484375 
Q 51.125 28.328125 47.28125 31.5625 
Q 43.453125 34.8125 35.5 34.8125 
z
M 19.671875 64.796875 
L 19.671875 42.828125 
L 34.28125 42.828125 
Q 41.5 42.828125 45.03125 45.53125 
Q 48.578125 48.25 48.578125 53.8125 
Q 48.578125 59.328125 45.03125 62.0625 
Q 41.5 64.796875 34.28125 64.796875 
z
M 9.8125 72.90625 
L 35.015625 72.90625 
Q 46.296875 72.90625 52.390625 68.21875 
Q 58.5 63.53125 58.5 54.890625 
Q 58.5 48.1875 55.375 44.234375 
Q 52.25 40.28125 46.1875 39.3125 
Q 53.46875 37.75 57.5 32.78125 
Q 61.53125 27.828125 61.53125 20.40625 
Q 61.53125 10.640625 54.890625 5.3125 
Q 48.25 0 35.984375 0 
L 9.8125 0 
z
" id="DejaVuSans-66"/>
      </defs>
      <use xlink:href="#DejaVuSans-68"/>
      <use x="77.001953" xlink:href="#DejaVuSans-66"/>
      <use x="145.605469" xlink:href="#DejaVuSans-32"/>
      <use x="177.392578" xlink:href="#DejaVuSans-70"/>
      <use x="234.912109" xlink:href="#DejaVuSans-78"/>
     </g>
    </g>
   </g>
   <g id="line2d_23">
    <path clip-path="url(#p2982140355)" d="M 434.268958 217.351534 
L 434.268958 64.066561 
" style="fill:none;stroke:#424242;stroke-linecap:square;stroke-width:2.7;"/>
   </g>
   <g id="line2d_24">
    <path clip-path="url(#p2982140355)" d="M 592.652292 218.098519 
L 592.652292 67.916402 
" style="fill:none;stroke:#424242;stroke-linecap:square;stroke-width:2.7;"/>
   </g>
   <g id="line2d_25">
    <path clip-path="url(#p2982140355)" d="M 465.945625 198.925926 
L 465.945625 38.803175 
" style="fill:none;stroke:#424242;stroke-linecap:square;stroke-width:2.7;"/>
   </g>
   <g id="line2d_26">
    <path clip-path="url(#p2982140355)" d="M 624.328958 199.711217 
L 624.328958 45.698413 
" style="fill:none;stroke:#424242;stroke-linecap:square;stroke-width:2.7;"/>
   </g>
   <g id="line2d_27">
    <path clip-path="url(#p2982140355)" d="M 497.622292 201.224339 
L 497.622292 45.698413 
" style="fill:none;stroke:#424242;stroke-linecap:square;stroke-width:2.7;"/>
   </g>
   <g id="line2d_28">
    <path clip-path="url(#p2982140355)" d="M 656.005625 198.964233 
L 656.005625 41.101587 
" style="fill:none;stroke:#424242;stroke-linecap:square;stroke-width:2.7;"/>
   </g>
   <g id="line2d_29">
    <path clip-path="url(#p2982140355)" d="M 529.298958 152.58418 
L 529.298958 36.092963 
" style="fill:none;stroke:#424242;stroke-linecap:square;stroke-width:2.7;"/>
   </g>
   <g id="line2d_30">
    <path clip-path="url(#p2982140355)" d="M 687.682292 151.808466 
L 687.682292 41.082434 
" style="fill:none;stroke:#424242;stroke-linecap:square;stroke-width:2.7;"/>
   </g>
   <g id="patch_29">
    <path d="M 402.592292 333 
L 402.592292 7.2 
" style="fill:none;stroke:#000000;stroke-linecap:square;stroke-linejoin:miter;stroke-width:0.8;"/>
   </g>
   <g id="patch_30">
    <path d="M 719.358958 333 
L 719.358958 7.2 
" style="fill:none;stroke:#000000;stroke-linecap:square;stroke-linejoin:miter;stroke-width:0.8;"/>
   </g>
   <g id="patch_31">
    <path d="M 402.592292 333 
L 719.358958 333 
" style="fill:none;stroke:#000000;stroke-linecap:square;stroke-linejoin:miter;stroke-width:0.8;"/>
   </g>
   <g id="patch_32">
    <path d="M 402.592292 7.2 
L 719.358958 7.2 
" style="fill:none;stroke:#000000;stroke-linecap:square;stroke-linejoin:miter;stroke-width:0.8;"/>
   </g>
  </g>
  <g id="axes_3">
   <g id="patch_33">
    <path d="M 755.596458 333 
L 1072.363125 333 
L 1072.363125 7.2 
L 755.596458 7.2 
z
" style="fill:#ffffff;"/>
   </g>
   <g id="patch_34">
    <path clip-path="url(#pba1afd9b29)" d="M 771.434792 333 
L 803.111458 333 
L 803.111458 333 
L 771.434792 333 
z
" style="fill:#3274a1;"/>
   </g>
   <g id="patch_35">
    <path clip-path="url(#pba1afd9b29)" d="M 929.818125 333 
L 961.494792 333 
L 961.494792 333 
L 929.818125 333 
z
" style="fill:#3274a1;"/>
   </g>
   <g id="patch_36">
    <path clip-path="url(#pba1afd9b29)" d="M 803.111458 333 
L 834.788125 333 
L 834.788125 333 
L 803.111458 333 
z
" style="fill:#e1812c;"/>
   </g>
   <g id="patch_37">
    <path clip-path="url(#pba1afd9b29)" d="M 961.494792 333 
L 993.171458 333 
L 993.171458 333 
L 961.494792 333 
z
" style="fill:#e1812c;"/>
   </g>
   <g id="patch_38">
    <path clip-path="url(#pba1afd9b29)" d="M 834.788125 333 
L 866.464792 333 
L 866.464792 333 
L 834.788125 333 
z
" style="fill:#3a923a;"/>
   </g>
   <g id="patch_39">
    <path clip-path="url(#pba1afd9b29)" d="M 993.171458 333 
L 1024.848125 333 
L 1024.848125 333 
L 993.171458 333 
z
" style="fill:#3a923a;"/>
   </g>
   <g id="patch_40">
    <path clip-path="url(#pba1afd9b29)" d="M 866.464792 333 
L 898.141458 333 
L 898.141458 333 
L 866.464792 333 
z
" style="fill:#c03d3e;"/>
   </g>
   <g id="patch_41">
    <path clip-path="url(#pba1afd9b29)" d="M 1024.848125 333 
L 1056.524792 333 
L 1056.524792 333 
L 1024.848125 333 
z
" style="fill:#c03d3e;"/>
   </g>
   <g id="matplotlib.axis_5">
    <g id="xtick_5">
     <g id="line2d_31">
      <g>
       <use style="stroke:#000000;stroke-width:0.8;" x="834.788125" xlink:href="#m4bb27c0b2a" y="333"/>
      </g>
     </g>
    </g>
    <g id="xtick_6">
     <g id="line2d_32">
      <g>
       <use style="stroke:#000000;stroke-width:0.8;" x="993.171458" xlink:href="#m4bb27c0b2a" y="333"/>
      </g>
     </g>
    </g>
   </g>
   <g id="matplotlib.axis_6">
    <g id="ytick_11">
     <g id="line2d_33">
      <g>
       <use style="stroke:#000000;stroke-width:0.8;" x="755.596458" xlink:href="#m6602cb29bd" y="333"/>
      </g>
     </g>
    </g>
    <g id="ytick_12">
     <g id="line2d_34">
      <g>
       <use style="stroke:#000000;stroke-width:0.8;" x="755.596458" xlink:href="#m6602cb29bd" y="264.047619"/>
      </g>
     </g>
    </g>
    <g id="ytick_13">
     <g id="line2d_35">
      <g>
       <use style="stroke:#000000;stroke-width:0.8;" x="755.596458" xlink:href="#m6602cb29bd" y="195.095238"/>
      </g>
     </g>
    </g>
    <g id="ytick_14">
     <g id="line2d_36">
      <g>
       <use style="stroke:#000000;stroke-width:0.8;" x="755.596458" xlink:href="#m6602cb29bd" y="126.142857"/>
      </g>
     </g>
    </g>
    <g id="ytick_15">
     <g id="line2d_37">
      <g>
       <use style="stroke:#000000;stroke-width:0.8;" x="755.596458" xlink:href="#m6602cb29bd" y="57.190476"/>
      </g>
     </g>
    </g>
    <g id="text_13">
     <!-- SNL FN -->
     <g transform="translate(748.268958 198.75)rotate(-90)scale(0.16 -0.16)">
      <defs>
       <path d="M 53.515625 70.515625 
L 53.515625 60.890625 
Q 47.90625 63.578125 42.921875 64.890625 
Q 37.9375 66.21875 33.296875 66.21875 
Q 25.25 66.21875 20.875 63.09375 
Q 16.5 59.96875 16.5 54.203125 
Q 16.5 49.359375 19.40625 46.890625 
Q 22.3125 44.4375 30.421875 42.921875 
L 36.375 41.703125 
Q 47.40625 39.59375 52.65625 34.296875 
Q 57.90625 29 57.90625 20.125 
Q 57.90625 9.515625 50.796875 4.046875 
Q 43.703125 -1.421875 29.984375 -1.421875 
Q 24.8125 -1.421875 18.96875 -0.25 
Q 13.140625 0.921875 6.890625 3.21875 
L 6.890625 13.375 
Q 12.890625 10.015625 18.65625 8.296875 
Q 24.421875 6.59375 29.984375 6.59375 
Q 38.421875 6.59375 43.015625 9.90625 
Q 47.609375 13.234375 47.609375 19.390625 
Q 47.609375 24.75 44.3125 27.78125 
Q 41.015625 30.8125 33.5 32.328125 
L 27.484375 33.5 
Q 16.453125 35.6875 11.515625 40.375 
Q 6.59375 45.0625 6.59375 53.421875 
Q 6.59375 63.09375 13.40625 68.65625 
Q 20.21875 74.21875 32.171875 74.21875 
Q 37.3125 74.21875 42.625 73.28125 
Q 47.953125 72.359375 53.515625 70.515625 
z
" id="DejaVuSans-83"/>
       <path d="M 9.8125 72.90625 
L 19.671875 72.90625 
L 19.671875 8.296875 
L 55.171875 8.296875 
L 55.171875 0 
L 9.8125 0 
z
" id="DejaVuSans-76"/>
      </defs>
      <use xlink:href="#DejaVuSans-83"/>
      <use x="63.476562" xlink:href="#DejaVuSans-78"/>
      <use x="138.28125" xlink:href="#DejaVuSans-76"/>
      <use x="193.994141" xlink:href="#DejaVuSans-32"/>
      <use x="225.78125" xlink:href="#DejaVuSans-70"/>
      <use x="283.300781" xlink:href="#DejaVuSans-78"/>
     </g>
    </g>
   </g>
   <g id="line2d_38">
    <path clip-path="url(#pba1afd9b29)" d="M 787.273125 333 
L 787.273125 333 
" style="fill:none;stroke:#424242;stroke-linecap:square;stroke-width:2.7;"/>
   </g>
   <g id="line2d_39">
    <path clip-path="url(#pba1afd9b29)" d="M 945.656458 333 
L 945.656458 333 
" style="fill:none;stroke:#424242;stroke-linecap:square;stroke-width:2.7;"/>
   </g>
   <g id="line2d_40">
    <path clip-path="url(#pba1afd9b29)" d="M 818.949792 333 
L 818.949792 333 
" style="fill:none;stroke:#424242;stroke-linecap:square;stroke-width:2.7;"/>
   </g>
   <g id="line2d_41">
    <path clip-path="url(#pba1afd9b29)" d="M 977.333125 333 
L 977.333125 333 
" style="fill:none;stroke:#424242;stroke-linecap:square;stroke-width:2.7;"/>
   </g>
   <g id="line2d_42">
    <path clip-path="url(#pba1afd9b29)" d="M 850.626458 333 
L 850.626458 333 
" style="fill:none;stroke:#424242;stroke-linecap:square;stroke-width:2.7;"/>
   </g>
   <g id="line2d_43">
    <path clip-path="url(#pba1afd9b29)" d="M 1009.009792 333 
L 1009.009792 333 
" style="fill:none;stroke:#424242;stroke-linecap:square;stroke-width:2.7;"/>
   </g>
   <g id="line2d_44">
    <path clip-path="url(#pba1afd9b29)" d="M 882.303125 333 
L 882.303125 333 
" style="fill:none;stroke:#424242;stroke-linecap:square;stroke-width:2.7;"/>
   </g>
   <g id="line2d_45">
    <path clip-path="url(#pba1afd9b29)" d="M 1040.686458 333 
L 1040.686458 333 
" style="fill:none;stroke:#424242;stroke-linecap:square;stroke-width:2.7;"/>
   </g>
   <g id="patch_42">
    <path d="M 755.596458 333 
L 755.596458 7.2 
" style="fill:none;stroke:#000000;stroke-linecap:square;stroke-linejoin:miter;stroke-width:0.8;"/>
   </g>
   <g id="patch_43">
    <path d="M 1072.363125 333 
L 1072.363125 7.2 
" style="fill:none;stroke:#000000;stroke-linecap:square;stroke-linejoin:miter;stroke-width:0.8;"/>
   </g>
   <g id="patch_44">
    <path d="M 755.596458 333 
L 1072.363125 333 
" style="fill:none;stroke:#000000;stroke-linecap:square;stroke-linejoin:miter;stroke-width:0.8;"/>
   </g>
   <g id="patch_45">
    <path d="M 755.596458 7.2 
L 1072.363125 7.2 
" style="fill:none;stroke:#000000;stroke-linecap:square;stroke-linejoin:miter;stroke-width:0.8;"/>
   </g>
  </g>
  <g id="axes_4">
   <g id="patch_46">
    <path d="M 49.588125 679.6 
L 366.354792 679.6 
L 366.354792 353.8 
L 49.588125 353.8 
z
" style="fill:#ffffff;"/>
   </g>
   <g id="patch_47">
    <path clip-path="url(#p700ef2cc27)" d="M 65.426458 679.6 
L 97.103125 679.6 
L 97.103125 679.6 
L 65.426458 679.6 
z
" style="fill:#3274a1;"/>
   </g>
   <g id="patch_48">
    <path clip-path="url(#p700ef2cc27)" d="M 223.809792 679.6 
L 255.486458 679.6 
L 255.486458 679.6 
L 223.809792 679.6 
z
" style="fill:#3274a1;"/>
   </g>
   <g id="patch_49">
    <path clip-path="url(#p700ef2cc27)" d="M 97.103125 679.6 
L 128.779792 679.6 
L 128.779792 668.874074 
L 97.103125 668.874074 
z
" style="fill:#e1812c;"/>
   </g>
   <g id="patch_50">
    <path clip-path="url(#p700ef2cc27)" d="M 255.486458 679.6 
L 287.163125 679.6 
L 287.163125 668.874074 
L 255.486458 668.874074 
z
" style="fill:#e1812c;"/>
   </g>
   <g id="patch_51">
    <path clip-path="url(#p700ef2cc27)" d="M 128.779792 679.6 
L 160.456458 679.6 
L 160.456458 643.963888 
L 128.779792 643.963888 
z
" style="fill:#3a923a;"/>
   </g>
   <g id="patch_52">
    <path clip-path="url(#p700ef2cc27)" d="M 287.163125 679.6 
L 318.839792 679.6 
L 318.839792 643.963888 
L 287.163125 643.963888 
z
" style="fill:#3a923a;"/>
   </g>
   <g id="patch_53">
    <path clip-path="url(#p700ef2cc27)" d="M 160.456458 679.6 
L 192.133125 679.6 
L 192.133125 648.845049 
L 160.456458 648.845049 
z
" style="fill:#c03d3e;"/>
   </g>
   <g id="patch_54">
    <path clip-path="url(#p700ef2cc27)" d="M 318.839792 679.6 
L 350.516458 679.6 
L 350.516458 643.099017 
L 318.839792 643.099017 
z
" style="fill:#c03d3e;"/>
   </g>
   <g id="matplotlib.axis_7">
    <g id="xtick_7">
     <g id="line2d_46">
      <g>
       <use style="stroke:#000000;stroke-width:0.8;" x="128.779792" xlink:href="#m4bb27c0b2a" y="679.6"/>
      </g>
     </g>
     <g id="text_14">
      <!-- PhISCS-I -->
      <g transform="translate(95.536042 698.7575)scale(0.16 -0.16)">
       <defs>
        <path d="M 19.671875 64.796875 
L 19.671875 37.40625 
L 32.078125 37.40625 
Q 38.96875 37.40625 42.71875 40.96875 
Q 46.484375 44.53125 46.484375 51.125 
Q 46.484375 57.671875 42.71875 61.234375 
Q 38.96875 64.796875 32.078125 64.796875 
z
M 9.8125 72.90625 
L 32.078125 72.90625 
Q 44.34375 72.90625 50.609375 67.359375 
Q 56.890625 61.8125 56.890625 51.125 
Q 56.890625 40.328125 50.609375 34.8125 
Q 44.34375 29.296875 32.078125 29.296875 
L 19.671875 29.296875 
L 19.671875 0 
L 9.8125 0 
z
" id="DejaVuSans-80"/>
        <path d="M 54.890625 33.015625 
L 54.890625 0 
L 45.90625 0 
L 45.90625 32.71875 
Q 45.90625 40.484375 42.875 44.328125 
Q 39.84375 48.1875 33.796875 48.1875 
Q 26.515625 48.1875 22.3125 43.546875 
Q 18.109375 38.921875 18.109375 30.90625 
L 18.109375 0 
L 9.078125 0 
L 9.078125 75.984375 
L 18.109375 75.984375 
L 18.109375 46.1875 
Q 21.34375 51.125 25.703125 53.5625 
Q 30.078125 56 35.796875 56 
Q 45.21875 56 50.046875 50.171875 
Q 54.890625 44.34375 54.890625 33.015625 
z
" id="DejaVuSans-104"/>
        <path d="M 9.8125 72.90625 
L 19.671875 72.90625 
L 19.671875 0 
L 9.8125 0 
z
" id="DejaVuSans-73"/>
        <path d="M 64.40625 67.28125 
L 64.40625 56.890625 
Q 59.421875 61.53125 53.78125 63.8125 
Q 48.140625 66.109375 41.796875 66.109375 
Q 29.296875 66.109375 22.65625 58.46875 
Q 16.015625 50.828125 16.015625 36.375 
Q 16.015625 21.96875 22.65625 14.328125 
Q 29.296875 6.6875 41.796875 6.6875 
Q 48.140625 6.6875 53.78125 8.984375 
Q 59.421875 11.28125 64.40625 15.921875 
L 64.40625 5.609375 
Q 59.234375 2.09375 53.4375 0.328125 
Q 47.65625 -1.421875 41.21875 -1.421875 
Q 24.65625 -1.421875 15.125 8.703125 
Q 5.609375 18.84375 5.609375 36.375 
Q 5.609375 53.953125 15.125 64.078125 
Q 24.65625 74.21875 41.21875 74.21875 
Q 47.75 74.21875 53.53125 72.484375 
Q 59.328125 70.75 64.40625 67.28125 
z
" id="DejaVuSans-67"/>
        <path d="M 4.890625 31.390625 
L 31.203125 31.390625 
L 31.203125 23.390625 
L 4.890625 23.390625 
z
" id="DejaVuSans-45"/>
       </defs>
       <use xlink:href="#DejaVuSans-80"/>
       <use x="60.302734" xlink:href="#DejaVuSans-104"/>
       <use x="123.681641" xlink:href="#DejaVuSans-73"/>
       <use x="153.173828" xlink:href="#DejaVuSans-83"/>
       <use x="216.650391" xlink:href="#DejaVuSans-67"/>
       <use x="286.474609" xlink:href="#DejaVuSans-83"/>
       <use x="349.951172" xlink:href="#DejaVuSans-45"/>
       <use x="386.035156" xlink:href="#DejaVuSans-73"/>
      </g>
     </g>
    </g>
    <g id="xtick_8">
     <g id="line2d_47">
      <g>
       <use style="stroke:#000000;stroke-width:0.8;" x="287.163125" xlink:href="#m4bb27c0b2a" y="679.6"/>
      </g>
     </g>
     <g id="text_15">
      <!-- PhISCS-MI -->
      <g transform="translate(247.016875 698.7575)scale(0.16 -0.16)">
       <defs>
        <path d="M 9.8125 72.90625 
L 24.515625 72.90625 
L 43.109375 23.296875 
L 61.8125 72.90625 
L 76.515625 72.90625 
L 76.515625 0 
L 66.890625 0 
L 66.890625 64.015625 
L 48.09375 14.015625 
L 38.1875 14.015625 
L 19.390625 64.015625 
L 19.390625 0 
L 9.8125 0 
z
" id="DejaVuSans-77"/>
       </defs>
       <use xlink:href="#DejaVuSans-80"/>
       <use x="60.302734" xlink:href="#DejaVuSans-104"/>
       <use x="123.681641" xlink:href="#DejaVuSans-73"/>
       <use x="153.173828" xlink:href="#DejaVuSans-83"/>
       <use x="216.650391" xlink:href="#DejaVuSans-67"/>
       <use x="286.474609" xlink:href="#DejaVuSans-83"/>
       <use x="349.951172" xlink:href="#DejaVuSans-45"/>
       <use x="386.035156" xlink:href="#DejaVuSans-77"/>
       <use x="472.314453" xlink:href="#DejaVuSans-73"/>
      </g>
     </g>
    </g>
   </g>
   <g id="matplotlib.axis_8">
    <g id="ytick_16">
     <g id="line2d_48">
      <g>
       <use style="stroke:#000000;stroke-width:0.8;" x="49.588125" xlink:href="#m6602cb29bd" y="679.6"/>
      </g>
     </g>
     <g id="text_16">
      <!-- 0.0 -->
      <g transform="translate(26.685 683.399219)scale(0.1 -0.1)">
       <use xlink:href="#DejaVuSans-48"/>
       <use x="63.623047" xlink:href="#DejaVuSans-46"/>
       <use x="95.410156" xlink:href="#DejaVuSans-48"/>
      </g>
     </g>
    </g>
    <g id="ytick_17">
     <g id="line2d_49">
      <g>
       <use style="stroke:#000000;stroke-width:0.8;" x="49.588125" xlink:href="#m6602cb29bd" y="610.647619"/>
      </g>
     </g>
     <g id="text_17">
      <!-- 0.2 -->
      <g transform="translate(26.685 614.446838)scale(0.1 -0.1)">
       <use xlink:href="#DejaVuSans-48"/>
       <use x="63.623047" xlink:href="#DejaVuSans-46"/>
       <use x="95.410156" xlink:href="#DejaVuSans-50"/>
      </g>
     </g>
    </g>
    <g id="ytick_18">
     <g id="line2d_50">
      <g>
       <use style="stroke:#000000;stroke-width:0.8;" x="49.588125" xlink:href="#m6602cb29bd" y="541.695238"/>
      </g>
     </g>
     <g id="text_18">
      <!-- 0.4 -->
      <g transform="translate(26.685 545.494457)scale(0.1 -0.1)">
       <use xlink:href="#DejaVuSans-48"/>
       <use x="63.623047" xlink:href="#DejaVuSans-46"/>
       <use x="95.410156" xlink:href="#DejaVuSans-52"/>
      </g>
     </g>
    </g>
    <g id="ytick_19">
     <g id="line2d_51">
      <g>
       <use style="stroke:#000000;stroke-width:0.8;" x="49.588125" xlink:href="#m6602cb29bd" y="472.742857"/>
      </g>
     </g>
     <g id="text_19">
      <!-- 0.6 -->
      <g transform="translate(26.685 476.542076)scale(0.1 -0.1)">
       <use xlink:href="#DejaVuSans-48"/>
       <use x="63.623047" xlink:href="#DejaVuSans-46"/>
       <use x="95.410156" xlink:href="#DejaVuSans-54"/>
      </g>
     </g>
    </g>
    <g id="ytick_20">
     <g id="line2d_52">
      <g>
       <use style="stroke:#000000;stroke-width:0.8;" x="49.588125" xlink:href="#m6602cb29bd" y="403.790476"/>
      </g>
     </g>
     <g id="text_20">
      <!-- 0.8 -->
      <g transform="translate(26.685 407.589695)scale(0.1 -0.1)">
       <use xlink:href="#DejaVuSans-48"/>
       <use x="63.623047" xlink:href="#DejaVuSans-46"/>
       <use x="95.410156" xlink:href="#DejaVuSans-56"/>
      </g>
     </g>
    </g>
    <g id="text_21">
     <!-- AD FP -->
     <g transform="translate(19.3575 540.3)rotate(-90)scale(0.16 -0.16)">
      <use xlink:href="#DejaVuSans-65"/>
      <use x="68.408203" xlink:href="#DejaVuSans-68"/>
      <use x="145.410156" xlink:href="#DejaVuSans-32"/>
      <use x="177.197266" xlink:href="#DejaVuSans-70"/>
      <use x="234.716797" xlink:href="#DejaVuSans-80"/>
     </g>
    </g>
   </g>
   <g id="line2d_53">
    <path clip-path="url(#p700ef2cc27)" d="M 81.264792 679.6 
L 81.264792 679.6 
" style="fill:none;stroke:#424242;stroke-linecap:square;stroke-width:2.7;"/>
   </g>
   <g id="line2d_54">
    <path clip-path="url(#p700ef2cc27)" d="M 239.648125 679.6 
L 239.648125 679.6 
" style="fill:none;stroke:#424242;stroke-linecap:square;stroke-width:2.7;"/>
   </g>
   <g id="line2d_55">
    <path clip-path="url(#p700ef2cc27)" d="M 112.941458 679.6 
L 112.941458 654.31746 
" style="fill:none;stroke:#424242;stroke-linecap:square;stroke-width:2.7;"/>
   </g>
   <g id="line2d_56">
    <path clip-path="url(#p700ef2cc27)" d="M 271.324792 679.6 
L 271.324792 654.31746 
" style="fill:none;stroke:#424242;stroke-linecap:square;stroke-width:2.7;"/>
   </g>
   <g id="line2d_57">
    <path clip-path="url(#p700ef2cc27)" d="M 144.618125 663.824531 
L 144.618125 624.555963 
" style="fill:none;stroke:#424242;stroke-linecap:square;stroke-width:2.7;"/>
   </g>
   <g id="line2d_58">
    <path clip-path="url(#p700ef2cc27)" d="M 303.001458 662.096703 
L 303.001458 625.311385 
" style="fill:none;stroke:#424242;stroke-linecap:square;stroke-width:2.7;"/>
   </g>
   <g id="line2d_59">
    <path clip-path="url(#p700ef2cc27)" d="M 176.294792 666.466213 
L 176.294792 631.98455 
" style="fill:none;stroke:#424242;stroke-linecap:square;stroke-width:2.7;"/>
   </g>
   <g id="line2d_60">
    <path clip-path="url(#p700ef2cc27)" d="M 334.678125 665.317007 
L 334.678125 619.017672 
" style="fill:none;stroke:#424242;stroke-linecap:square;stroke-width:2.7;"/>
   </g>
   <g id="patch_55">
    <path d="M 49.588125 679.6 
L 49.588125 353.8 
" style="fill:none;stroke:#000000;stroke-linecap:square;stroke-linejoin:miter;stroke-width:0.8;"/>
   </g>
   <g id="patch_56">
    <path d="M 366.354792 679.6 
L 366.354792 353.8 
" style="fill:none;stroke:#000000;stroke-linecap:square;stroke-linejoin:miter;stroke-width:0.8;"/>
   </g>
   <g id="patch_57">
    <path d="M 49.588125 679.6 
L 366.354792 679.6 
" style="fill:none;stroke:#000000;stroke-linecap:square;stroke-linejoin:miter;stroke-width:0.8;"/>
   </g>
   <g id="patch_58">
    <path d="M 49.588125 353.8 
L 366.354792 353.8 
" style="fill:none;stroke:#000000;stroke-linecap:square;stroke-linejoin:miter;stroke-width:0.8;"/>
   </g>
  </g>
  <g id="axes_5">
   <g id="patch_59">
    <path d="M 402.592292 679.6 
L 719.358958 679.6 
L 719.358958 353.8 
L 402.592292 353.8 
z
" style="fill:#ffffff;"/>
   </g>
   <g id="patch_60">
    <path clip-path="url(#pd93b8b5b9d)" d="M 418.430625 679.6 
L 450.107292 679.6 
L 450.107292 679.6 
L 418.430625 679.6 
z
" style="fill:#3274a1;"/>
   </g>
   <g id="patch_61">
    <path clip-path="url(#pd93b8b5b9d)" d="M 576.813958 679.6 
L 608.490625 679.6 
L 608.490625 679.6 
L 576.813958 679.6 
z
" style="fill:#3274a1;"/>
   </g>
   <g id="patch_62">
    <path clip-path="url(#pd93b8b5b9d)" d="M 450.107292 679.6 
L 481.783958 679.6 
L 481.783958 679.6 
L 450.107292 679.6 
z
" style="fill:#e1812c;"/>
   </g>
   <g id="patch_63">
    <path clip-path="url(#pd93b8b5b9d)" d="M 608.490625 679.6 
L 640.167292 679.6 
L 640.167292 679.6 
L 608.490625 679.6 
z
" style="fill:#e1812c;"/>
   </g>
   <g id="patch_64">
    <path clip-path="url(#pd93b8b5b9d)" d="M 481.783958 679.6 
L 513.460625 679.6 
L 513.460625 662.361905 
L 481.783958 662.361905 
z
" style="fill:#3a923a;"/>
   </g>
   <g id="patch_65">
    <path clip-path="url(#pd93b8b5b9d)" d="M 640.167292 679.6 
L 671.843958 679.6 
L 671.843958 662.361905 
L 640.167292 662.361905 
z
" style="fill:#3a923a;"/>
   </g>
   <g id="patch_66">
    <path clip-path="url(#pd93b8b5b9d)" d="M 513.460625 679.6 
L 545.137292 679.6 
L 545.137292 573.298413 
L 513.460625 573.298413 
z
" style="fill:#c03d3e;"/>
   </g>
   <g id="patch_67">
    <path clip-path="url(#pd93b8b5b9d)" d="M 671.843958 679.6 
L 703.520625 679.6 
L 703.520625 573.298413 
L 671.843958 573.298413 
z
" style="fill:#c03d3e;"/>
   </g>
   <g id="matplotlib.axis_9">
    <g id="xtick_9">
     <g id="line2d_61">
      <g>
       <use style="stroke:#000000;stroke-width:0.8;" x="481.783958" xlink:href="#m4bb27c0b2a" y="679.6"/>
      </g>
     </g>
     <g id="text_22">
      <!-- PhISCS-I -->
      <g transform="translate(448.540208 698.7575)scale(0.16 -0.16)">
       <use xlink:href="#DejaVuSans-80"/>
       <use x="60.302734" xlink:href="#DejaVuSans-104"/>
       <use x="123.681641" xlink:href="#DejaVuSans-73"/>
       <use x="153.173828" xlink:href="#DejaVuSans-83"/>
       <use x="216.650391" xlink:href="#DejaVuSans-67"/>
       <use x="286.474609" xlink:href="#DejaVuSans-83"/>
       <use x="349.951172" xlink:href="#DejaVuSans-45"/>
       <use x="386.035156" xlink:href="#DejaVuSans-73"/>
      </g>
     </g>
    </g>
    <g id="xtick_10">
     <g id="line2d_62">
      <g>
       <use style="stroke:#000000;stroke-width:0.8;" x="640.167292" xlink:href="#m4bb27c0b2a" y="679.6"/>
      </g>
     </g>
     <g id="text_23">
      <!-- PhISCS-MI -->
      <g transform="translate(600.021042 698.7575)scale(0.16 -0.16)">
       <use xlink:href="#DejaVuSans-80"/>
       <use x="60.302734" xlink:href="#DejaVuSans-104"/>
       <use x="123.681641" xlink:href="#DejaVuSans-73"/>
       <use x="153.173828" xlink:href="#DejaVuSans-83"/>
       <use x="216.650391" xlink:href="#DejaVuSans-67"/>
       <use x="286.474609" xlink:href="#DejaVuSans-83"/>
       <use x="349.951172" xlink:href="#DejaVuSans-45"/>
       <use x="386.035156" xlink:href="#DejaVuSans-77"/>
       <use x="472.314453" xlink:href="#DejaVuSans-73"/>
      </g>
     </g>
    </g>
   </g>
   <g id="matplotlib.axis_10">
    <g id="ytick_21">
     <g id="line2d_63">
      <g>
       <use style="stroke:#000000;stroke-width:0.8;" x="402.592292" xlink:href="#m6602cb29bd" y="679.6"/>
      </g>
     </g>
    </g>
    <g id="ytick_22">
     <g id="line2d_64">
      <g>
       <use style="stroke:#000000;stroke-width:0.8;" x="402.592292" xlink:href="#m6602cb29bd" y="610.647619"/>
      </g>
     </g>
    </g>
    <g id="ytick_23">
     <g id="line2d_65">
      <g>
       <use style="stroke:#000000;stroke-width:0.8;" x="402.592292" xlink:href="#m6602cb29bd" y="541.695238"/>
      </g>
     </g>
    </g>
    <g id="ytick_24">
     <g id="line2d_66">
      <g>
       <use style="stroke:#000000;stroke-width:0.8;" x="402.592292" xlink:href="#m6602cb29bd" y="472.742857"/>
      </g>
     </g>
    </g>
    <g id="ytick_25">
     <g id="line2d_67">
      <g>
       <use style="stroke:#000000;stroke-width:0.8;" x="402.592292" xlink:href="#m6602cb29bd" y="403.790476"/>
      </g>
     </g>
    </g>
    <g id="text_24">
     <!-- DB FP -->
     <g transform="translate(395.264792 540.31625)rotate(-90)scale(0.16 -0.16)">
      <use xlink:href="#DejaVuSans-68"/>
      <use x="77.001953" xlink:href="#DejaVuSans-66"/>
      <use x="145.605469" xlink:href="#DejaVuSans-32"/>
      <use x="177.392578" xlink:href="#DejaVuSans-70"/>
      <use x="234.912109" xlink:href="#DejaVuSans-80"/>
     </g>
    </g>
   </g>
   <g id="line2d_68">
    <path clip-path="url(#pd93b8b5b9d)" d="M 434.268958 679.6 
L 434.268958 679.6 
" style="fill:none;stroke:#424242;stroke-linecap:square;stroke-width:2.7;"/>
   </g>
   <g id="line2d_69">
    <path clip-path="url(#pd93b8b5b9d)" d="M 592.652292 679.6 
L 592.652292 679.6 
" style="fill:none;stroke:#424242;stroke-linecap:square;stroke-width:2.7;"/>
   </g>
   <g id="line2d_70">
    <path clip-path="url(#pd93b8b5b9d)" d="M 465.945625 679.6 
L 465.945625 679.6 
" style="fill:none;stroke:#424242;stroke-linecap:square;stroke-width:2.7;"/>
   </g>
   <g id="line2d_71">
    <path clip-path="url(#pd93b8b5b9d)" d="M 624.328958 679.6 
L 624.328958 679.6 
" style="fill:none;stroke:#424242;stroke-linecap:square;stroke-width:2.7;"/>
   </g>
   <g id="line2d_72">
    <path clip-path="url(#pd93b8b5b9d)" d="M 497.622292 679.6 
L 497.622292 627.885714 
" style="fill:none;stroke:#424242;stroke-linecap:square;stroke-width:2.7;"/>
   </g>
   <g id="line2d_73">
    <path clip-path="url(#pd93b8b5b9d)" d="M 656.005625 679.6 
L 656.005625 627.885714 
" style="fill:none;stroke:#424242;stroke-linecap:square;stroke-width:2.7;"/>
   </g>
   <g id="line2d_74">
    <path clip-path="url(#pd93b8b5b9d)" d="M 529.298958 650.869841 
L 529.298958 489.909127 
" style="fill:none;stroke:#424242;stroke-linecap:square;stroke-width:2.7;"/>
   </g>
   <g id="line2d_75">
    <path clip-path="url(#pd93b8b5b9d)" d="M 687.682292 642.250794 
L 687.682292 489.909127 
" style="fill:none;stroke:#424242;stroke-linecap:square;stroke-width:2.7;"/>
   </g>
   <g id="patch_68">
    <path d="M 402.592292 679.6 
L 402.592292 353.8 
" style="fill:none;stroke:#000000;stroke-linecap:square;stroke-linejoin:miter;stroke-width:0.8;"/>
   </g>
   <g id="patch_69">
    <path d="M 719.358958 679.6 
L 719.358958 353.8 
" style="fill:none;stroke:#000000;stroke-linecap:square;stroke-linejoin:miter;stroke-width:0.8;"/>
   </g>
   <g id="patch_70">
    <path d="M 402.592292 679.6 
L 719.358958 679.6 
" style="fill:none;stroke:#000000;stroke-linecap:square;stroke-linejoin:miter;stroke-width:0.8;"/>
   </g>
   <g id="patch_71">
    <path d="M 402.592292 353.8 
L 719.358958 353.8 
" style="fill:none;stroke:#000000;stroke-linecap:square;stroke-linejoin:miter;stroke-width:0.8;"/>
   </g>
  </g>
  <g id="axes_6">
   <g id="patch_72">
    <path d="M 755.596458 679.6 
L 1072.363125 679.6 
L 1072.363125 353.8 
L 755.596458 353.8 
z
" style="fill:#ffffff;"/>
   </g>
   <g id="patch_73">
    <path clip-path="url(#p6865aed1e7)" d="M 771.434792 679.6 
L 803.111458 679.6 
L 803.111458 472.742857 
L 771.434792 472.742857 
z
" style="fill:#3274a1;"/>
   </g>
   <g id="patch_74">
    <path clip-path="url(#p6865aed1e7)" d="M 929.818125 679.6 
L 961.494792 679.6 
L 961.494792 472.742857 
L 929.818125 472.742857 
z
" style="fill:#3274a1;"/>
   </g>
   <g id="patch_75">
    <path clip-path="url(#p6865aed1e7)" d="M 803.111458 679.6 
L 834.788125 679.6 
L 834.788125 507.219048 
L 803.111458 507.219048 
z
" style="fill:#e1812c;"/>
   </g>
   <g id="patch_76">
    <path clip-path="url(#p6865aed1e7)" d="M 961.494792 679.6 
L 993.171458 679.6 
L 993.171458 507.219048 
L 961.494792 507.219048 
z
" style="fill:#e1812c;"/>
   </g>
   <g id="patch_77">
    <path clip-path="url(#p6865aed1e7)" d="M 834.788125 679.6 
L 866.464792 679.6 
L 866.464792 610.647619 
L 834.788125 610.647619 
z
" style="fill:#3a923a;"/>
   </g>
   <g id="patch_78">
    <path clip-path="url(#p6865aed1e7)" d="M 993.171458 679.6 
L 1024.848125 679.6 
L 1024.848125 610.647619 
L 993.171458 610.647619 
z
" style="fill:#3a923a;"/>
   </g>
   <g id="patch_79">
    <path clip-path="url(#p6865aed1e7)" d="M 866.464792 679.6 
L 898.141458 679.6 
L 898.141458 645.12381 
L 866.464792 645.12381 
z
" style="fill:#c03d3e;"/>
   </g>
   <g id="patch_80">
    <path clip-path="url(#p6865aed1e7)" d="M 1024.848125 679.6 
L 1056.524792 679.6 
L 1056.524792 645.12381 
L 1024.848125 645.12381 
z
" style="fill:#c03d3e;"/>
   </g>
   <g id="matplotlib.axis_11">
    <g id="xtick_11">
     <g id="line2d_76">
      <g>
       <use style="stroke:#000000;stroke-width:0.8;" x="834.788125" xlink:href="#m4bb27c0b2a" y="679.6"/>
      </g>
     </g>
     <g id="text_25">
      <!-- PhISCS-I -->
      <g transform="translate(801.544375 698.7575)scale(0.16 -0.16)">
       <use xlink:href="#DejaVuSans-80"/>
       <use x="60.302734" xlink:href="#DejaVuSans-104"/>
       <use x="123.681641" xlink:href="#DejaVuSans-73"/>
       <use x="153.173828" xlink:href="#DejaVuSans-83"/>
       <use x="216.650391" xlink:href="#DejaVuSans-67"/>
       <use x="286.474609" xlink:href="#DejaVuSans-83"/>
       <use x="349.951172" xlink:href="#DejaVuSans-45"/>
       <use x="386.035156" xlink:href="#DejaVuSans-73"/>
      </g>
     </g>
    </g>
    <g id="xtick_12">
     <g id="line2d_77">
      <g>
       <use style="stroke:#000000;stroke-width:0.8;" x="993.171458" xlink:href="#m4bb27c0b2a" y="679.6"/>
      </g>
     </g>
     <g id="text_26">
      <!-- PhISCS-MI -->
      <g transform="translate(953.025208 698.7575)scale(0.16 -0.16)">
       <use xlink:href="#DejaVuSans-80"/>
       <use x="60.302734" xlink:href="#DejaVuSans-104"/>
       <use x="123.681641" xlink:href="#DejaVuSans-73"/>
       <use x="153.173828" xlink:href="#DejaVuSans-83"/>
       <use x="216.650391" xlink:href="#DejaVuSans-67"/>
       <use x="286.474609" xlink:href="#DejaVuSans-83"/>
       <use x="349.951172" xlink:href="#DejaVuSans-45"/>
       <use x="386.035156" xlink:href="#DejaVuSans-77"/>
       <use x="472.314453" xlink:href="#DejaVuSans-73"/>
      </g>
     </g>
    </g>
   </g>
   <g id="matplotlib.axis_12">
    <g id="ytick_26">
     <g id="line2d_78">
      <g>
       <use style="stroke:#000000;stroke-width:0.8;" x="755.596458" xlink:href="#m6602cb29bd" y="679.6"/>
      </g>
     </g>
    </g>
    <g id="ytick_27">
     <g id="line2d_79">
      <g>
       <use style="stroke:#000000;stroke-width:0.8;" x="755.596458" xlink:href="#m6602cb29bd" y="610.647619"/>
      </g>
     </g>
    </g>
    <g id="ytick_28">
     <g id="line2d_80">
      <g>
       <use style="stroke:#000000;stroke-width:0.8;" x="755.596458" xlink:href="#m6602cb29bd" y="541.695238"/>
      </g>
     </g>
    </g>
    <g id="ytick_29">
     <g id="line2d_81">
      <g>
       <use style="stroke:#000000;stroke-width:0.8;" x="755.596458" xlink:href="#m6602cb29bd" y="472.742857"/>
      </g>
     </g>
    </g>
    <g id="ytick_30">
     <g id="line2d_82">
      <g>
       <use style="stroke:#000000;stroke-width:0.8;" x="755.596458" xlink:href="#m6602cb29bd" y="403.790476"/>
      </g>
     </g>
    </g>
    <g id="text_27">
     <!-- SNL FP -->
     <g transform="translate(748.268958 544.18875)rotate(-90)scale(0.16 -0.16)">
      <use xlink:href="#DejaVuSans-83"/>
      <use x="63.476562" xlink:href="#DejaVuSans-78"/>
      <use x="138.28125" xlink:href="#DejaVuSans-76"/>
      <use x="193.994141" xlink:href="#DejaVuSans-32"/>
      <use x="225.78125" xlink:href="#DejaVuSans-70"/>
      <use x="283.300781" xlink:href="#DejaVuSans-80"/>
     </g>
    </g>
   </g>
   <g id="line2d_83">
    <path clip-path="url(#p6865aed1e7)" d="M 787.273125 576.171429 
L 787.273125 369.314286 
" style="fill:none;stroke:#424242;stroke-linecap:square;stroke-width:2.7;"/>
   </g>
   <g id="line2d_84">
    <path clip-path="url(#p6865aed1e7)" d="M 945.656458 576.171429 
L 945.656458 369.314286 
" style="fill:none;stroke:#424242;stroke-linecap:square;stroke-width:2.7;"/>
   </g>
   <g id="line2d_85">
    <path clip-path="url(#p6865aed1e7)" d="M 818.949792 610.647619 
L 818.949792 403.790476 
" style="fill:none;stroke:#424242;stroke-linecap:square;stroke-width:2.7;"/>
   </g>
   <g id="line2d_86">
    <path clip-path="url(#p6865aed1e7)" d="M 977.333125 610.647619 
L 977.333125 403.790476 
" style="fill:none;stroke:#424242;stroke-linecap:square;stroke-width:2.7;"/>
   </g>
   <g id="line2d_87">
    <path clip-path="url(#p6865aed1e7)" d="M 850.626458 679.6 
L 850.626458 507.219048 
" style="fill:none;stroke:#424242;stroke-linecap:square;stroke-width:2.7;"/>
   </g>
   <g id="line2d_88">
    <path clip-path="url(#p6865aed1e7)" d="M 1009.009792 679.6 
L 1009.009792 507.219048 
" style="fill:none;stroke:#424242;stroke-linecap:square;stroke-width:2.7;"/>
   </g>
   <g id="line2d_89">
    <path clip-path="url(#p6865aed1e7)" d="M 882.303125 679.6 
L 882.303125 576.171429 
" style="fill:none;stroke:#424242;stroke-linecap:square;stroke-width:2.7;"/>
   </g>
   <g id="line2d_90">
    <path clip-path="url(#p6865aed1e7)" d="M 1040.686458 679.6 
L 1040.686458 576.171429 
" style="fill:none;stroke:#424242;stroke-linecap:square;stroke-width:2.7;"/>
   </g>
   <g id="patch_81">
    <path d="M 755.596458 679.6 
L 755.596458 353.8 
" style="fill:none;stroke:#000000;stroke-linecap:square;stroke-linejoin:miter;stroke-width:0.8;"/>
   </g>
   <g id="patch_82">
    <path d="M 1072.363125 679.6 
L 1072.363125 353.8 
" style="fill:none;stroke:#000000;stroke-linecap:square;stroke-linejoin:miter;stroke-width:0.8;"/>
   </g>
   <g id="patch_83">
    <path d="M 755.596458 679.6 
L 1072.363125 679.6 
" style="fill:none;stroke:#000000;stroke-linecap:square;stroke-linejoin:miter;stroke-width:0.8;"/>
   </g>
   <g id="patch_84">
    <path d="M 755.596458 353.8 
L 1072.363125 353.8 
" style="fill:none;stroke:#000000;stroke-linecap:square;stroke-linejoin:miter;stroke-width:0.8;"/>
   </g>
  </g>
 </g>
 <defs>
  <clipPath id="p65f8c5c2ff">
   <rect height="325.8" width="316.766667" x="49.588125" y="7.2"/>
  </clipPath>
  <clipPath id="p2982140355">
   <rect height="325.8" width="316.766667" x="402.592292" y="7.2"/>
  </clipPath>
  <clipPath id="pba1afd9b29">
   <rect height="325.8" width="316.766667" x="755.596458" y="7.2"/>
  </clipPath>
  <clipPath id="p700ef2cc27">
   <rect height="325.8" width="316.766667" x="49.588125" y="353.8"/>
  </clipPath>
  <clipPath id="pd93b8b5b9d">
   <rect height="325.8" width="316.766667" x="402.592292" y="353.8"/>
  </clipPath>
  <clipPath id="p6865aed1e7">
   <rect height="325.8" width="316.766667" x="755.596458" y="353.8"/>
  </clipPath>
 </defs>
</svg>
