<?xml version="1.0" encoding="utf-8" standalone="no"?>
<!DOCTYPE svg PUBLIC "-//W3C//DTD SVG 1.1//EN"
  "http://www.w3.org/Graphics/SVG/1.1/DTD/svg11.dtd">
<!-- Created with matplotlib (https://matplotlib.org/) -->
<svg height="768.335549pt" version="1.1" viewBox="0 0 1079.563125 768.335549" width="1079.563125pt" xmlns="http://www.w3.org/2000/svg" xmlns:xlink="http://www.w3.org/1999/xlink">
 <metadata>
  <rdf:RDF xmlns:cc="http://creativecommons.org/ns#" xmlns:dc="http://purl.org/dc/elements/1.1/" xmlns:rdf="http://www.w3.org/1999/02/22-rdf-syntax-ns#">
   <cc:Work>
    <dc:type rdf:resource="http://purl.org/dc/dcmitype/StillImage"/>
    <dc:date>2021-05-04T14:29:33.342278</dc:date>
    <dc:format>image/svg+xml</dc:format>
    <dc:creator>
     <cc:Agent>
      <dc:title>Matplotlib v3.3.3, https://matplotlib.org/</dc:title>
     </cc:Agent>
    </dc:creator>
   </cc:Work>
  </rdf:RDF>
 </metadata>
 <defs>
  <style type="text/css">*{stroke-linecap:butt;stroke-linejoin:round;}</style>
 </defs>
 <g id="figure_1">
  <g id="patch_1">
   <path d="M 0 768.335549 
L 1079.563125 768.335549 
L 1079.563125 0 
L 0 0 
z
" style="fill:none;"/>
  </g>
  <g id="axes_1">
   <g id="patch_2">
    <path d="M 49.588125 333 
L 366.354792 333 
L 366.354792 7.2 
L 49.588125 7.2 
z
" style="fill:#ffffff;"/>
   </g>
   <g id="patch_3">
    <path clip-path="url(#pdb46a0b923)" d="M 60.147014 333 
L 81.264792 333 
L 81.264792 302.628118 
L 60.147014 302.628118 
z
" style="fill:#3274a1;"/>
   </g>
   <g id="patch_4">
    <path clip-path="url(#pdb46a0b923)" d="M 165.735903 333 
L 186.853681 333 
L 186.853681 166.570295 
L 165.735903 166.570295 
z
" style="fill:#3274a1;"/>
   </g>
   <g id="patch_5">
    <path clip-path="url(#pdb46a0b923)" d="M 271.324792 333 
L 292.442569 333 
L 292.442569 22.714286 
L 271.324792 22.714286 
z
" style="fill:#3274a1;"/>
   </g>
   <g id="patch_6">
    <path clip-path="url(#pdb46a0b923)" d="M 81.264792 333 
L 102.382569 333 
L 102.382569 308.37415 
L 81.264792 308.37415 
z
" style="fill:#e1812c;"/>
   </g>
   <g id="patch_7">
    <path clip-path="url(#pdb46a0b923)" d="M 186.853681 333 
L 207.971458 333 
L 207.971458 166.570295 
L 186.853681 166.570295 
z
" style="fill:#e1812c;"/>
   </g>
   <g id="patch_8">
    <path clip-path="url(#pdb46a0b923)" d="M 292.442569 333 
L 313.560347 333 
L 313.560347 22.714286 
L 292.442569 22.714286 
z
" style="fill:#e1812c;"/>
   </g>
   <g id="patch_9">
    <path clip-path="url(#pdb46a0b923)" d="M 102.382569 333 
L 123.500347 333 
L 123.500347 308.37415 
L 102.382569 308.37415 
z
" style="fill:#3a923a;"/>
   </g>
   <g id="patch_10">
    <path clip-path="url(#pdb46a0b923)" d="M 207.971458 333 
L 229.089236 333 
L 229.089236 175.189342 
L 207.971458 175.189342 
z
" style="fill:#3a923a;"/>
   </g>
   <g id="patch_11">
    <path clip-path="url(#pdb46a0b923)" d="M 313.560347 333 
L 334.678125 333 
L 334.678125 22.714286 
L 313.560347 22.714286 
z
" style="fill:#3a923a;"/>
   </g>
   <g id="patch_12">
    <path clip-path="url(#pdb46a0b923)" d="M 123.500347 333 
L 144.618125 333 
L 144.618125 315.761905 
L 123.500347 315.761905 
z
" style="fill:#c03d3e;"/>
   </g>
   <g id="patch_13">
    <path clip-path="url(#pdb46a0b923)" d="M 229.089236 333 
L 250.207014 333 
L 250.207014 161.029478 
L 229.089236 161.029478 
z
" style="fill:#c03d3e;"/>
   </g>
   <g id="patch_14">
    <path clip-path="url(#pdb46a0b923)" d="M 334.678125 333 
L 355.795903 333 
L 355.795903 22.714286 
L 334.678125 22.714286 
z
" style="fill:#c03d3e;"/>
   </g>
   <g id="matplotlib.axis_1">
    <g id="xtick_1">
     <g id="line2d_1">
      <defs>
       <path d="M 0 0 
L 0 3.5 
" id="mb0501f4657" style="stroke:#000000;stroke-width:0.8;"/>
      </defs>
      <g>
       <use style="stroke:#000000;stroke-width:0.8;" x="102.382569" xlink:href="#mb0501f4657" y="333"/>
      </g>
     </g>
    </g>
    <g id="xtick_2">
     <g id="line2d_2">
      <g>
       <use style="stroke:#000000;stroke-width:0.8;" x="207.971458" xlink:href="#mb0501f4657" y="333"/>
      </g>
     </g>
    </g>
    <g id="xtick_3">
     <g id="line2d_3">
      <g>
       <use style="stroke:#000000;stroke-width:0.8;" x="313.560347" xlink:href="#mb0501f4657" y="333"/>
      </g>
     </g>
    </g>
   </g>
   <g id="matplotlib.axis_2">
    <g id="ytick_1">
     <g id="line2d_4">
      <defs>
       <path d="M 0 0 
L -3.5 0 
" id="mb93cd4159e" style="stroke:#000000;stroke-width:0.8;"/>
      </defs>
      <g>
       <use style="stroke:#000000;stroke-width:0.8;" x="49.588125" xlink:href="#mb93cd4159e" y="333"/>
      </g>
     </g>
     <g id="text_1">
      <!-- 0.0 -->
      <g transform="translate(26.685 336.799219)scale(0.1 -0.1)">
       <defs>
        <path d="M 31.78125 66.40625 
Q 24.171875 66.40625 20.328125 58.90625 
Q 16.5 51.421875 16.5 36.375 
Q 16.5 21.390625 20.328125 13.890625 
Q 24.171875 6.390625 31.78125 6.390625 
Q 39.453125 6.390625 43.28125 13.890625 
Q 47.125 21.390625 47.125 36.375 
Q 47.125 51.421875 43.28125 58.90625 
Q 39.453125 66.40625 31.78125 66.40625 
z
M 31.78125 74.21875 
Q 44.046875 74.21875 50.515625 64.515625 
Q 56.984375 54.828125 56.984375 36.375 
Q 56.984375 17.96875 50.515625 8.265625 
Q 44.046875 -1.421875 31.78125 -1.421875 
Q 19.53125 -1.421875 13.0625 8.265625 
Q 6.59375 17.96875 6.59375 36.375 
Q 6.59375 54.828125 13.0625 64.515625 
Q 19.53125 74.21875 31.78125 74.21875 
z
" id="DejaVuSans-48"/>
        <path d="M 10.6875 12.40625 
L 21 12.40625 
L 21 0 
L 10.6875 0 
z
" id="DejaVuSans-46"/>
       </defs>
       <use xlink:href="#DejaVuSans-48"/>
       <use x="63.623047" xlink:href="#DejaVuSans-46"/>
       <use x="95.410156" xlink:href="#DejaVuSans-48"/>
      </g>
     </g>
    </g>
    <g id="ytick_2">
     <g id="line2d_5">
      <g>
       <use style="stroke:#000000;stroke-width:0.8;" x="49.588125" xlink:href="#mb93cd4159e" y="270.942857"/>
      </g>
     </g>
     <g id="text_2">
      <!-- 0.2 -->
      <g transform="translate(26.685 274.742076)scale(0.1 -0.1)">
       <defs>
        <path d="M 19.1875 8.296875 
L 53.609375 8.296875 
L 53.609375 0 
L 7.328125 0 
L 7.328125 8.296875 
Q 12.9375 14.109375 22.625 23.890625 
Q 32.328125 33.6875 34.8125 36.53125 
Q 39.546875 41.84375 41.421875 45.53125 
Q 43.3125 49.21875 43.3125 52.78125 
Q 43.3125 58.59375 39.234375 62.25 
Q 35.15625 65.921875 28.609375 65.921875 
Q 23.96875 65.921875 18.8125 64.3125 
Q 13.671875 62.703125 7.8125 59.421875 
L 7.8125 69.390625 
Q 13.765625 71.78125 18.9375 73 
Q 24.125 74.21875 28.421875 74.21875 
Q 39.75 74.21875 46.484375 68.546875 
Q 53.21875 62.890625 53.21875 53.421875 
Q 53.21875 48.921875 51.53125 44.890625 
Q 49.859375 40.875 45.40625 35.40625 
Q 44.1875 33.984375 37.640625 27.21875 
Q 31.109375 20.453125 19.1875 8.296875 
z
" id="DejaVuSans-50"/>
       </defs>
       <use xlink:href="#DejaVuSans-48"/>
       <use x="63.623047" xlink:href="#DejaVuSans-46"/>
       <use x="95.410156" xlink:href="#DejaVuSans-50"/>
      </g>
     </g>
    </g>
    <g id="ytick_3">
     <g id="line2d_6">
      <g>
       <use style="stroke:#000000;stroke-width:0.8;" x="49.588125" xlink:href="#mb93cd4159e" y="208.885714"/>
      </g>
     </g>
     <g id="text_3">
      <!-- 0.4 -->
      <g transform="translate(26.685 212.684933)scale(0.1 -0.1)">
       <defs>
        <path d="M 37.796875 64.3125 
L 12.890625 25.390625 
L 37.796875 25.390625 
z
M 35.203125 72.90625 
L 47.609375 72.90625 
L 47.609375 25.390625 
L 58.015625 25.390625 
L 58.015625 17.1875 
L 47.609375 17.1875 
L 47.609375 0 
L 37.796875 0 
L 37.796875 17.1875 
L 4.890625 17.1875 
L 4.890625 26.703125 
z
" id="DejaVuSans-52"/>
       </defs>
       <use xlink:href="#DejaVuSans-48"/>
       <use x="63.623047" xlink:href="#DejaVuSans-46"/>
       <use x="95.410156" xlink:href="#DejaVuSans-52"/>
      </g>
     </g>
    </g>
    <g id="ytick_4">
     <g id="line2d_7">
      <g>
       <use style="stroke:#000000;stroke-width:0.8;" x="49.588125" xlink:href="#mb93cd4159e" y="146.828571"/>
      </g>
     </g>
     <g id="text_4">
      <!-- 0.6 -->
      <g transform="translate(26.685 150.62779)scale(0.1 -0.1)">
       <defs>
        <path d="M 33.015625 40.375 
Q 26.375 40.375 22.484375 35.828125 
Q 18.609375 31.296875 18.609375 23.390625 
Q 18.609375 15.53125 22.484375 10.953125 
Q 26.375 6.390625 33.015625 6.390625 
Q 39.65625 6.390625 43.53125 10.953125 
Q 47.40625 15.53125 47.40625 23.390625 
Q 47.40625 31.296875 43.53125 35.828125 
Q 39.65625 40.375 33.015625 40.375 
z
M 52.59375 71.296875 
L 52.59375 62.3125 
Q 48.875 64.0625 45.09375 64.984375 
Q 41.3125 65.921875 37.59375 65.921875 
Q 27.828125 65.921875 22.671875 59.328125 
Q 17.53125 52.734375 16.796875 39.40625 
Q 19.671875 43.65625 24.015625 45.921875 
Q 28.375 48.1875 33.59375 48.1875 
Q 44.578125 48.1875 50.953125 41.515625 
Q 57.328125 34.859375 57.328125 23.390625 
Q 57.328125 12.15625 50.6875 5.359375 
Q 44.046875 -1.421875 33.015625 -1.421875 
Q 20.359375 -1.421875 13.671875 8.265625 
Q 6.984375 17.96875 6.984375 36.375 
Q 6.984375 53.65625 15.1875 63.9375 
Q 23.390625 74.21875 37.203125 74.21875 
Q 40.921875 74.21875 44.703125 73.484375 
Q 48.484375 72.75 52.59375 71.296875 
z
" id="DejaVuSans-54"/>
       </defs>
       <use xlink:href="#DejaVuSans-48"/>
       <use x="63.623047" xlink:href="#DejaVuSans-46"/>
       <use x="95.410156" xlink:href="#DejaVuSans-54"/>
      </g>
     </g>
    </g>
    <g id="ytick_5">
     <g id="line2d_8">
      <g>
       <use style="stroke:#000000;stroke-width:0.8;" x="49.588125" xlink:href="#mb93cd4159e" y="84.771429"/>
      </g>
     </g>
     <g id="text_5">
      <!-- 0.8 -->
      <g transform="translate(26.685 88.570647)scale(0.1 -0.1)">
       <defs>
        <path d="M 31.78125 34.625 
Q 24.75 34.625 20.71875 30.859375 
Q 16.703125 27.09375 16.703125 20.515625 
Q 16.703125 13.921875 20.71875 10.15625 
Q 24.75 6.390625 31.78125 6.390625 
Q 38.8125 6.390625 42.859375 10.171875 
Q 46.921875 13.96875 46.921875 20.515625 
Q 46.921875 27.09375 42.890625 30.859375 
Q 38.875 34.625 31.78125 34.625 
z
M 21.921875 38.8125 
Q 15.578125 40.375 12.03125 44.71875 
Q 8.5 49.078125 8.5 55.328125 
Q 8.5 64.0625 14.71875 69.140625 
Q 20.953125 74.21875 31.78125 74.21875 
Q 42.671875 74.21875 48.875 69.140625 
Q 55.078125 64.0625 55.078125 55.328125 
Q 55.078125 49.078125 51.53125 44.71875 
Q 48 40.375 41.703125 38.8125 
Q 48.828125 37.15625 52.796875 32.3125 
Q 56.78125 27.484375 56.78125 20.515625 
Q 56.78125 9.90625 50.3125 4.234375 
Q 43.84375 -1.421875 31.78125 -1.421875 
Q 19.734375 -1.421875 13.25 4.234375 
Q 6.78125 9.90625 6.78125 20.515625 
Q 6.78125 27.484375 10.78125 32.3125 
Q 14.796875 37.15625 21.921875 38.8125 
z
M 18.3125 54.390625 
Q 18.3125 48.734375 21.84375 45.5625 
Q 25.390625 42.390625 31.78125 42.390625 
Q 38.140625 42.390625 41.71875 45.5625 
Q 45.3125 48.734375 45.3125 54.390625 
Q 45.3125 60.0625 41.71875 63.234375 
Q 38.140625 66.40625 31.78125 66.40625 
Q 25.390625 66.40625 21.84375 63.234375 
Q 18.3125 60.0625 18.3125 54.390625 
z
" id="DejaVuSans-56"/>
       </defs>
       <use xlink:href="#DejaVuSans-48"/>
       <use x="63.623047" xlink:href="#DejaVuSans-46"/>
       <use x="95.410156" xlink:href="#DejaVuSans-56"/>
      </g>
     </g>
    </g>
    <g id="ytick_6">
     <g id="line2d_9">
      <g>
       <use style="stroke:#000000;stroke-width:0.8;" x="49.588125" xlink:href="#mb93cd4159e" y="22.714286"/>
      </g>
     </g>
     <g id="text_6">
      <!-- 1.0 -->
      <g transform="translate(26.685 26.513504)scale(0.1 -0.1)">
       <defs>
        <path d="M 12.40625 8.296875 
L 28.515625 8.296875 
L 28.515625 63.921875 
L 10.984375 60.40625 
L 10.984375 69.390625 
L 28.421875 72.90625 
L 38.28125 72.90625 
L 38.28125 8.296875 
L 54.390625 8.296875 
L 54.390625 0 
L 12.40625 0 
z
" id="DejaVuSans-49"/>
       </defs>
       <use xlink:href="#DejaVuSans-49"/>
       <use x="63.623047" xlink:href="#DejaVuSans-46"/>
       <use x="95.410156" xlink:href="#DejaVuSans-48"/>
      </g>
     </g>
    </g>
    <g id="text_7">
     <!-- AD FN -->
     <g transform="translate(19.3575 194.86125)rotate(-90)scale(0.16 -0.16)">
      <defs>
       <path d="M 34.1875 63.1875 
L 20.796875 26.90625 
L 47.609375 26.90625 
z
M 28.609375 72.90625 
L 39.796875 72.90625 
L 67.578125 0 
L 57.328125 0 
L 50.6875 18.703125 
L 17.828125 18.703125 
L 11.1875 0 
L 0.78125 0 
z
" id="DejaVuSans-65"/>
       <path d="M 19.671875 64.796875 
L 19.671875 8.109375 
L 31.59375 8.109375 
Q 46.6875 8.109375 53.6875 14.9375 
Q 60.6875 21.78125 60.6875 36.53125 
Q 60.6875 51.171875 53.6875 57.984375 
Q 46.6875 64.796875 31.59375 64.796875 
z
M 9.8125 72.90625 
L 30.078125 72.90625 
Q 51.265625 72.90625 61.171875 64.09375 
Q 71.09375 55.28125 71.09375 36.53125 
Q 71.09375 17.671875 61.125 8.828125 
Q 51.171875 0 30.078125 0 
L 9.8125 0 
z
" id="DejaVuSans-68"/>
       <path id="DejaVuSans-32"/>
       <path d="M 9.8125 72.90625 
L 51.703125 72.90625 
L 51.703125 64.59375 
L 19.671875 64.59375 
L 19.671875 43.109375 
L 48.578125 43.109375 
L 48.578125 34.8125 
L 19.671875 34.8125 
L 19.671875 0 
L 9.8125 0 
z
" id="DejaVuSans-70"/>
       <path d="M 9.8125 72.90625 
L 23.09375 72.90625 
L 55.421875 11.921875 
L 55.421875 72.90625 
L 64.984375 72.90625 
L 64.984375 0 
L 51.703125 0 
L 19.390625 60.984375 
L 19.390625 0 
L 9.8125 0 
z
" id="DejaVuSans-78"/>
      </defs>
      <use xlink:href="#DejaVuSans-65"/>
      <use x="68.408203" xlink:href="#DejaVuSans-68"/>
      <use x="145.410156" xlink:href="#DejaVuSans-32"/>
      <use x="177.197266" xlink:href="#DejaVuSans-70"/>
      <use x="234.716797" xlink:href="#DejaVuSans-78"/>
     </g>
    </g>
   </g>
   <g id="line2d_10">
    <path clip-path="url(#pdb46a0b923)" d="M 70.705903 327.253968 
L 70.705903 273.897959 
" style="fill:none;stroke:#424242;stroke-linecap:square;stroke-width:2.7;"/>
   </g>
   <g id="line2d_11">
    <path clip-path="url(#pdb46a0b923)" d="M 176.294792 249.887755 
L 176.294792 97.587132 
" style="fill:none;stroke:#424242;stroke-linecap:square;stroke-width:2.7;"/>
   </g>
   <g id="line2d_12">
    <path clip-path="url(#pdb46a0b923)" d="M 281.883681 22.714286 
L 281.883681 22.714286 
" style="fill:none;stroke:#424242;stroke-linecap:square;stroke-width:2.7;"/>
   </g>
   <g id="line2d_13">
    <path clip-path="url(#pdb46a0b923)" d="M 91.823681 333 
L 91.823681 273.897959 
" style="fill:none;stroke:#424242;stroke-linecap:square;stroke-width:2.7;"/>
   </g>
   <g id="line2d_14">
    <path clip-path="url(#pdb46a0b923)" d="M 197.412569 251.119048 
L 197.412569 96.360969 
" style="fill:none;stroke:#424242;stroke-linecap:square;stroke-width:2.7;"/>
   </g>
   <g id="line2d_15">
    <path clip-path="url(#pdb46a0b923)" d="M 303.001458 22.714286 
L 303.001458 22.714286 
" style="fill:none;stroke:#424242;stroke-linecap:square;stroke-width:2.7;"/>
   </g>
   <g id="line2d_16">
    <path clip-path="url(#pdb46a0b923)" d="M 112.941458 333 
L 112.941458 273.897959 
" style="fill:none;stroke:#424242;stroke-linecap:square;stroke-width:2.7;"/>
   </g>
   <g id="line2d_17">
    <path clip-path="url(#pdb46a0b923)" d="M 218.530347 253.992063 
L 218.530347 107.878685 
" style="fill:none;stroke:#424242;stroke-linecap:square;stroke-width:2.7;"/>
   </g>
   <g id="line2d_18">
    <path clip-path="url(#pdb46a0b923)" d="M 324.119236 22.714286 
L 324.119236 22.714286 
" style="fill:none;stroke:#424242;stroke-linecap:square;stroke-width:2.7;"/>
   </g>
   <g id="line2d_19">
    <path clip-path="url(#pdb46a0b923)" d="M 134.059236 333 
L 134.059236 281.285714 
" style="fill:none;stroke:#424242;stroke-linecap:square;stroke-width:2.7;"/>
   </g>
   <g id="line2d_20">
    <path clip-path="url(#pdb46a0b923)" d="M 239.648125 241.063492 
L 239.648125 95.360544 
" style="fill:none;stroke:#424242;stroke-linecap:square;stroke-width:2.7;"/>
   </g>
   <g id="line2d_21">
    <path clip-path="url(#pdb46a0b923)" d="M 345.237014 22.714286 
L 345.237014 22.714286 
" style="fill:none;stroke:#424242;stroke-linecap:square;stroke-width:2.7;"/>
   </g>
   <g id="patch_15">
    <path d="M 49.588125 333 
L 49.588125 7.2 
" style="fill:none;stroke:#000000;stroke-linecap:square;stroke-linejoin:miter;stroke-width:0.8;"/>
   </g>
   <g id="patch_16">
    <path d="M 366.354792 333 
L 366.354792 7.2 
" style="fill:none;stroke:#000000;stroke-linecap:square;stroke-linejoin:miter;stroke-width:0.8;"/>
   </g>
   <g id="patch_17">
    <path d="M 49.588125 333 
L 366.354792 333 
" style="fill:none;stroke:#000000;stroke-linecap:square;stroke-linejoin:miter;stroke-width:0.8;"/>
   </g>
   <g id="patch_18">
    <path d="M 49.588125 7.2 
L 366.354792 7.2 
" style="fill:none;stroke:#000000;stroke-linecap:square;stroke-linejoin:miter;stroke-width:0.8;"/>
   </g>
   <g id="legend_1">
    <g id="patch_19">
     <path d="M 56.588125 88.590625 
L 122.480313 88.590625 
Q 124.480313 88.590625 124.480313 86.590625 
L 124.480313 14.2 
Q 124.480313 12.2 122.480313 12.2 
L 56.588125 12.2 
Q 54.588125 12.2 54.588125 14.2 
L 54.588125 86.590625 
Q 54.588125 88.590625 56.588125 88.590625 
z
" style="fill:#ffffff;opacity:0.8;stroke:#cccccc;stroke-linejoin:miter;"/>
    </g>
    <g id="text_8">
     <!-- missing rate -->
     <g transform="translate(58.588125 23.798437)scale(0.1 -0.1)">
      <defs>
       <path d="M 52 44.1875 
Q 55.375 50.25 60.0625 53.125 
Q 64.75 56 71.09375 56 
Q 79.640625 56 84.28125 50.015625 
Q 88.921875 44.046875 88.921875 33.015625 
L 88.921875 0 
L 79.890625 0 
L 79.890625 32.71875 
Q 79.890625 40.578125 77.09375 44.375 
Q 74.3125 48.1875 68.609375 48.1875 
Q 61.625 48.1875 57.5625 43.546875 
Q 53.515625 38.921875 53.515625 30.90625 
L 53.515625 0 
L 44.484375 0 
L 44.484375 32.71875 
Q 44.484375 40.625 41.703125 44.40625 
Q 38.921875 48.1875 33.109375 48.1875 
Q 26.21875 48.1875 22.15625 43.53125 
Q 18.109375 38.875 18.109375 30.90625 
L 18.109375 0 
L 9.078125 0 
L 9.078125 54.6875 
L 18.109375 54.6875 
L 18.109375 46.1875 
Q 21.1875 51.21875 25.484375 53.609375 
Q 29.78125 56 35.6875 56 
Q 41.65625 56 45.828125 52.96875 
Q 50 49.953125 52 44.1875 
z
" id="DejaVuSans-109"/>
       <path d="M 9.421875 54.6875 
L 18.40625 54.6875 
L 18.40625 0 
L 9.421875 0 
z
M 9.421875 75.984375 
L 18.40625 75.984375 
L 18.40625 64.59375 
L 9.421875 64.59375 
z
" id="DejaVuSans-105"/>
       <path d="M 44.28125 53.078125 
L 44.28125 44.578125 
Q 40.484375 46.53125 36.375 47.5 
Q 32.28125 48.484375 27.875 48.484375 
Q 21.1875 48.484375 17.84375 46.4375 
Q 14.5 44.390625 14.5 40.28125 
Q 14.5 37.15625 16.890625 35.375 
Q 19.28125 33.59375 26.515625 31.984375 
L 29.59375 31.296875 
Q 39.15625 29.25 43.1875 25.515625 
Q 47.21875 21.78125 47.21875 15.09375 
Q 47.21875 7.46875 41.1875 3.015625 
Q 35.15625 -1.421875 24.609375 -1.421875 
Q 20.21875 -1.421875 15.453125 -0.5625 
Q 10.6875 0.296875 5.421875 2 
L 5.421875 11.28125 
Q 10.40625 8.6875 15.234375 7.390625 
Q 20.0625 6.109375 24.8125 6.109375 
Q 31.15625 6.109375 34.5625 8.28125 
Q 37.984375 10.453125 37.984375 14.40625 
Q 37.984375 18.0625 35.515625 20.015625 
Q 33.0625 21.96875 24.703125 23.78125 
L 21.578125 24.515625 
Q 13.234375 26.265625 9.515625 29.90625 
Q 5.8125 33.546875 5.8125 39.890625 
Q 5.8125 47.609375 11.28125 51.796875 
Q 16.75 56 26.8125 56 
Q 31.78125 56 36.171875 55.265625 
Q 40.578125 54.546875 44.28125 53.078125 
z
" id="DejaVuSans-115"/>
       <path d="M 54.890625 33.015625 
L 54.890625 0 
L 45.90625 0 
L 45.90625 32.71875 
Q 45.90625 40.484375 42.875 44.328125 
Q 39.84375 48.1875 33.796875 48.1875 
Q 26.515625 48.1875 22.3125 43.546875 
Q 18.109375 38.921875 18.109375 30.90625 
L 18.109375 0 
L 9.078125 0 
L 9.078125 54.6875 
L 18.109375 54.6875 
L 18.109375 46.1875 
Q 21.34375 51.125 25.703125 53.5625 
Q 30.078125 56 35.796875 56 
Q 45.21875 56 50.046875 50.171875 
Q 54.890625 44.34375 54.890625 33.015625 
z
" id="DejaVuSans-110"/>
       <path d="M 45.40625 27.984375 
Q 45.40625 37.75 41.375 43.109375 
Q 37.359375 48.484375 30.078125 48.484375 
Q 22.859375 48.484375 18.828125 43.109375 
Q 14.796875 37.75 14.796875 27.984375 
Q 14.796875 18.265625 18.828125 12.890625 
Q 22.859375 7.515625 30.078125 7.515625 
Q 37.359375 7.515625 41.375 12.890625 
Q 45.40625 18.265625 45.40625 27.984375 
z
M 54.390625 6.78125 
Q 54.390625 -7.171875 48.1875 -13.984375 
Q 42 -20.796875 29.203125 -20.796875 
Q 24.46875 -20.796875 20.265625 -20.09375 
Q 16.0625 -19.390625 12.109375 -17.921875 
L 12.109375 -9.1875 
Q 16.0625 -11.328125 19.921875 -12.34375 
Q 23.78125 -13.375 27.78125 -13.375 
Q 36.625 -13.375 41.015625 -8.765625 
Q 45.40625 -4.15625 45.40625 5.171875 
L 45.40625 9.625 
Q 42.625 4.78125 38.28125 2.390625 
Q 33.9375 0 27.875 0 
Q 17.828125 0 11.671875 7.65625 
Q 5.515625 15.328125 5.515625 27.984375 
Q 5.515625 40.671875 11.671875 48.328125 
Q 17.828125 56 27.875 56 
Q 33.9375 56 38.28125 53.609375 
Q 42.625 51.21875 45.40625 46.390625 
L 45.40625 54.6875 
L 54.390625 54.6875 
z
" id="DejaVuSans-103"/>
       <path d="M 41.109375 46.296875 
Q 39.59375 47.171875 37.8125 47.578125 
Q 36.03125 48 33.890625 48 
Q 26.265625 48 22.1875 43.046875 
Q 18.109375 38.09375 18.109375 28.8125 
L 18.109375 0 
L 9.078125 0 
L 9.078125 54.6875 
L 18.109375 54.6875 
L 18.109375 46.1875 
Q 20.953125 51.171875 25.484375 53.578125 
Q 30.03125 56 36.53125 56 
Q 37.453125 56 38.578125 55.875 
Q 39.703125 55.765625 41.0625 55.515625 
z
" id="DejaVuSans-114"/>
       <path d="M 34.28125 27.484375 
Q 23.390625 27.484375 19.1875 25 
Q 14.984375 22.515625 14.984375 16.5 
Q 14.984375 11.71875 18.140625 8.90625 
Q 21.296875 6.109375 26.703125 6.109375 
Q 34.1875 6.109375 38.703125 11.40625 
Q 43.21875 16.703125 43.21875 25.484375 
L 43.21875 27.484375 
z
M 52.203125 31.203125 
L 52.203125 0 
L 43.21875 0 
L 43.21875 8.296875 
Q 40.140625 3.328125 35.546875 0.953125 
Q 30.953125 -1.421875 24.3125 -1.421875 
Q 15.921875 -1.421875 10.953125 3.296875 
Q 6 8.015625 6 15.921875 
Q 6 25.140625 12.171875 29.828125 
Q 18.359375 34.515625 30.609375 34.515625 
L 43.21875 34.515625 
L 43.21875 35.40625 
Q 43.21875 41.609375 39.140625 45 
Q 35.0625 48.390625 27.6875 48.390625 
Q 23 48.390625 18.546875 47.265625 
Q 14.109375 46.140625 10.015625 43.890625 
L 10.015625 52.203125 
Q 14.9375 54.109375 19.578125 55.046875 
Q 24.21875 56 28.609375 56 
Q 40.484375 56 46.34375 49.84375 
Q 52.203125 43.703125 52.203125 31.203125 
z
" id="DejaVuSans-97"/>
       <path d="M 18.3125 70.21875 
L 18.3125 54.6875 
L 36.8125 54.6875 
L 36.8125 47.703125 
L 18.3125 47.703125 
L 18.3125 18.015625 
Q 18.3125 11.328125 20.140625 9.421875 
Q 21.96875 7.515625 27.59375 7.515625 
L 36.8125 7.515625 
L 36.8125 0 
L 27.59375 0 
Q 17.1875 0 13.234375 3.875 
Q 9.28125 7.765625 9.28125 18.015625 
L 9.28125 47.703125 
L 2.6875 47.703125 
L 2.6875 54.6875 
L 9.28125 54.6875 
L 9.28125 70.21875 
z
" id="DejaVuSans-116"/>
       <path d="M 56.203125 29.59375 
L 56.203125 25.203125 
L 14.890625 25.203125 
Q 15.484375 15.921875 20.484375 11.0625 
Q 25.484375 6.203125 34.421875 6.203125 
Q 39.59375 6.203125 44.453125 7.46875 
Q 49.3125 8.734375 54.109375 11.28125 
L 54.109375 2.78125 
Q 49.265625 0.734375 44.1875 -0.34375 
Q 39.109375 -1.421875 33.890625 -1.421875 
Q 20.796875 -1.421875 13.15625 6.1875 
Q 5.515625 13.8125 5.515625 26.8125 
Q 5.515625 40.234375 12.765625 48.109375 
Q 20.015625 56 32.328125 56 
Q 43.359375 56 49.78125 48.890625 
Q 56.203125 41.796875 56.203125 29.59375 
z
M 47.21875 32.234375 
Q 47.125 39.59375 43.09375 43.984375 
Q 39.0625 48.390625 32.421875 48.390625 
Q 24.90625 48.390625 20.390625 44.140625 
Q 15.875 39.890625 15.1875 32.171875 
z
" id="DejaVuSans-101"/>
      </defs>
      <use xlink:href="#DejaVuSans-109"/>
      <use x="97.412109" xlink:href="#DejaVuSans-105"/>
      <use x="125.195312" xlink:href="#DejaVuSans-115"/>
      <use x="177.294922" xlink:href="#DejaVuSans-115"/>
      <use x="229.394531" xlink:href="#DejaVuSans-105"/>
      <use x="257.177734" xlink:href="#DejaVuSans-110"/>
      <use x="320.556641" xlink:href="#DejaVuSans-103"/>
      <use x="384.033203" xlink:href="#DejaVuSans-32"/>
      <use x="415.820312" xlink:href="#DejaVuSans-114"/>
      <use x="456.933594" xlink:href="#DejaVuSans-97"/>
      <use x="518.212891" xlink:href="#DejaVuSans-116"/>
      <use x="557.421875" xlink:href="#DejaVuSans-101"/>
     </g>
    </g>
    <g id="patch_20">
     <path d="M 61.220156 38.476562 
L 81.220156 38.476562 
L 81.220156 31.476562 
L 61.220156 31.476562 
z
" style="fill:#3274a1;"/>
    </g>
    <g id="text_9">
     <!-- 0.0 -->
     <g transform="translate(89.220156 38.476562)scale(0.1 -0.1)">
      <use xlink:href="#DejaVuSans-48"/>
      <use x="63.623047" xlink:href="#DejaVuSans-46"/>
      <use x="95.410156" xlink:href="#DejaVuSans-48"/>
     </g>
    </g>
    <g id="patch_21">
     <path d="M 61.220156 53.154688 
L 81.220156 53.154688 
L 81.220156 46.154688 
L 61.220156 46.154688 
z
" style="fill:#e1812c;"/>
    </g>
    <g id="text_10">
     <!-- 0.125 -->
     <g transform="translate(89.220156 53.154688)scale(0.1 -0.1)">
      <defs>
       <path d="M 10.796875 72.90625 
L 49.515625 72.90625 
L 49.515625 64.59375 
L 19.828125 64.59375 
L 19.828125 46.734375 
Q 21.96875 47.46875 24.109375 47.828125 
Q 26.265625 48.1875 28.421875 48.1875 
Q 40.625 48.1875 47.75 41.5 
Q 54.890625 34.8125 54.890625 23.390625 
Q 54.890625 11.625 47.5625 5.09375 
Q 40.234375 -1.421875 26.90625 -1.421875 
Q 22.3125 -1.421875 17.546875 -0.640625 
Q 12.796875 0.140625 7.71875 1.703125 
L 7.71875 11.625 
Q 12.109375 9.234375 16.796875 8.0625 
Q 21.484375 6.890625 26.703125 6.890625 
Q 35.15625 6.890625 40.078125 11.328125 
Q 45.015625 15.765625 45.015625 23.390625 
Q 45.015625 31 40.078125 35.4375 
Q 35.15625 39.890625 26.703125 39.890625 
Q 22.75 39.890625 18.8125 39.015625 
Q 14.890625 38.140625 10.796875 36.28125 
z
" id="DejaVuSans-53"/>
      </defs>
      <use xlink:href="#DejaVuSans-48"/>
      <use x="63.623047" xlink:href="#DejaVuSans-46"/>
      <use x="95.410156" xlink:href="#DejaVuSans-49"/>
      <use x="159.033203" xlink:href="#DejaVuSans-50"/>
      <use x="222.65625" xlink:href="#DejaVuSans-53"/>
     </g>
    </g>
    <g id="patch_22">
     <path d="M 61.220156 67.832813 
L 81.220156 67.832813 
L 81.220156 60.832813 
L 61.220156 60.832813 
z
" style="fill:#3a923a;"/>
    </g>
    <g id="text_11">
     <!-- 0.25 -->
     <g transform="translate(89.220156 67.832813)scale(0.1 -0.1)">
      <use xlink:href="#DejaVuSans-48"/>
      <use x="63.623047" xlink:href="#DejaVuSans-46"/>
      <use x="95.410156" xlink:href="#DejaVuSans-50"/>
      <use x="159.033203" xlink:href="#DejaVuSans-53"/>
     </g>
    </g>
    <g id="patch_23">
     <path d="M 61.220156 82.510937 
L 81.220156 82.510937 
L 81.220156 75.510937 
L 61.220156 75.510937 
z
" style="fill:#c03d3e;"/>
    </g>
    <g id="text_12">
     <!-- 0.5 -->
     <g transform="translate(89.220156 82.510937)scale(0.1 -0.1)">
      <use xlink:href="#DejaVuSans-48"/>
      <use x="63.623047" xlink:href="#DejaVuSans-46"/>
      <use x="95.410156" xlink:href="#DejaVuSans-53"/>
     </g>
    </g>
   </g>
  </g>
  <g id="axes_2">
   <g id="patch_24">
    <path d="M 402.592292 333 
L 719.358958 333 
L 719.358958 7.2 
L 402.592292 7.2 
z
" style="fill:#ffffff;"/>
   </g>
   <g id="patch_25">
    <path clip-path="url(#pf4dcb3dee6)" d="M 413.151181 333 
L 434.268958 333 
L 434.268958 307.142857 
L 413.151181 307.142857 
z
" style="fill:#3274a1;"/>
   </g>
   <g id="patch_26">
    <path clip-path="url(#pf4dcb3dee6)" d="M 518.740069 333 
L 539.857847 333 
L 539.857847 281.285714 
L 518.740069 281.285714 
z
" style="fill:#3274a1;"/>
   </g>
   <g id="patch_27">
    <path clip-path="url(#pf4dcb3dee6)" d="M 624.328958 333 
L 645.446736 333 
L 645.446736 22.714286 
L 624.328958 22.714286 
z
" style="fill:#3274a1;"/>
   </g>
   <g id="patch_28">
    <path clip-path="url(#pf4dcb3dee6)" d="M 434.268958 333 
L 455.386736 333 
L 455.386736 307.142857 
L 434.268958 307.142857 
z
" style="fill:#e1812c;"/>
   </g>
   <g id="patch_29">
    <path clip-path="url(#pf4dcb3dee6)" d="M 539.857847 333 
L 560.975625 333 
L 560.975625 281.285714 
L 539.857847 281.285714 
z
" style="fill:#e1812c;"/>
   </g>
   <g id="patch_30">
    <path clip-path="url(#pf4dcb3dee6)" d="M 645.446736 333 
L 666.564514 333 
L 666.564514 22.714286 
L 645.446736 22.714286 
z
" style="fill:#e1812c;"/>
   </g>
   <g id="patch_31">
    <path clip-path="url(#pf4dcb3dee6)" d="M 455.386736 333 
L 476.504514 333 
L 476.504514 307.142857 
L 455.386736 307.142857 
z
" style="fill:#3a923a;"/>
   </g>
   <g id="patch_32">
    <path clip-path="url(#pf4dcb3dee6)" d="M 560.975625 333 
L 582.093403 333 
L 582.093403 281.285714 
L 560.975625 281.285714 
z
" style="fill:#3a923a;"/>
   </g>
   <g id="patch_33">
    <path clip-path="url(#pf4dcb3dee6)" d="M 666.564514 333 
L 687.682292 333 
L 687.682292 22.714286 
L 666.564514 22.714286 
z
" style="fill:#3a923a;"/>
   </g>
   <g id="patch_34">
    <path clip-path="url(#pf4dcb3dee6)" d="M 476.504514 333 
L 497.622292 333 
L 497.622292 307.142857 
L 476.504514 307.142857 
z
" style="fill:#c03d3e;"/>
   </g>
   <g id="patch_35">
    <path clip-path="url(#pf4dcb3dee6)" d="M 582.093403 333 
L 603.211181 333 
L 603.211181 261.892857 
L 582.093403 261.892857 
z
" style="fill:#c03d3e;"/>
   </g>
   <g id="patch_36">
    <path clip-path="url(#pf4dcb3dee6)" d="M 687.682292 333 
L 708.800069 333 
L 708.800069 22.714286 
L 687.682292 22.714286 
z
" style="fill:#c03d3e;"/>
   </g>
   <g id="matplotlib.axis_3">
    <g id="xtick_4">
     <g id="line2d_22">
      <g>
       <use style="stroke:#000000;stroke-width:0.8;" x="455.386736" xlink:href="#mb0501f4657" y="333"/>
      </g>
     </g>
    </g>
    <g id="xtick_5">
     <g id="line2d_23">
      <g>
       <use style="stroke:#000000;stroke-width:0.8;" x="560.975625" xlink:href="#mb0501f4657" y="333"/>
      </g>
     </g>
    </g>
    <g id="xtick_6">
     <g id="line2d_24">
      <g>
       <use style="stroke:#000000;stroke-width:0.8;" x="666.564514" xlink:href="#mb0501f4657" y="333"/>
      </g>
     </g>
    </g>
   </g>
   <g id="matplotlib.axis_4">
    <g id="ytick_7">
     <g id="line2d_25">
      <g>
       <use style="stroke:#000000;stroke-width:0.8;" x="402.592292" xlink:href="#mb93cd4159e" y="333"/>
      </g>
     </g>
    </g>
    <g id="ytick_8">
     <g id="line2d_26">
      <g>
       <use style="stroke:#000000;stroke-width:0.8;" x="402.592292" xlink:href="#mb93cd4159e" y="270.942857"/>
      </g>
     </g>
    </g>
    <g id="ytick_9">
     <g id="line2d_27">
      <g>
       <use style="stroke:#000000;stroke-width:0.8;" x="402.592292" xlink:href="#mb93cd4159e" y="208.885714"/>
      </g>
     </g>
    </g>
    <g id="ytick_10">
     <g id="line2d_28">
      <g>
       <use style="stroke:#000000;stroke-width:0.8;" x="402.592292" xlink:href="#mb93cd4159e" y="146.828571"/>
      </g>
     </g>
    </g>
    <g id="ytick_11">
     <g id="line2d_29">
      <g>
       <use style="stroke:#000000;stroke-width:0.8;" x="402.592292" xlink:href="#mb93cd4159e" y="84.771429"/>
      </g>
     </g>
    </g>
    <g id="ytick_12">
     <g id="line2d_30">
      <g>
       <use style="stroke:#000000;stroke-width:0.8;" x="402.592292" xlink:href="#mb93cd4159e" y="22.714286"/>
      </g>
     </g>
    </g>
    <g id="text_13">
     <!-- DB FN -->
     <g transform="translate(395.264792 194.8775)rotate(-90)scale(0.16 -0.16)">
      <defs>
       <path d="M 19.671875 34.8125 
L 19.671875 8.109375 
L 35.5 8.109375 
Q 43.453125 8.109375 47.28125 11.40625 
Q 51.125 14.703125 51.125 21.484375 
Q 51.125 28.328125 47.28125 31.5625 
Q 43.453125 34.8125 35.5 34.8125 
z
M 19.671875 64.796875 
L 19.671875 42.828125 
L 34.28125 42.828125 
Q 41.5 42.828125 45.03125 45.53125 
Q 48.578125 48.25 48.578125 53.8125 
Q 48.578125 59.328125 45.03125 62.0625 
Q 41.5 64.796875 34.28125 64.796875 
z
M 9.8125 72.90625 
L 35.015625 72.90625 
Q 46.296875 72.90625 52.390625 68.21875 
Q 58.5 63.53125 58.5 54.890625 
Q 58.5 48.1875 55.375 44.234375 
Q 52.25 40.28125 46.1875 39.3125 
Q 53.46875 37.75 57.5 32.78125 
Q 61.53125 27.828125 61.53125 20.40625 
Q 61.53125 10.640625 54.890625 5.3125 
Q 48.25 0 35.984375 0 
L 9.8125 0 
z
" id="DejaVuSans-66"/>
      </defs>
      <use xlink:href="#DejaVuSans-68"/>
      <use x="77.001953" xlink:href="#DejaVuSans-66"/>
      <use x="145.605469" xlink:href="#DejaVuSans-32"/>
      <use x="177.392578" xlink:href="#DejaVuSans-70"/>
      <use x="234.912109" xlink:href="#DejaVuSans-78"/>
     </g>
    </g>
   </g>
   <g id="line2d_31">
    <path clip-path="url(#pf4dcb3dee6)" d="M 423.710069 333 
L 423.710069 255.428571 
" style="fill:none;stroke:#424242;stroke-linecap:square;stroke-width:2.7;"/>
   </g>
   <g id="line2d_32">
    <path clip-path="url(#pf4dcb3dee6)" d="M 529.298958 333 
L 529.298958 229.571429 
" style="fill:none;stroke:#424242;stroke-linecap:square;stroke-width:2.7;"/>
   </g>
   <g id="line2d_33">
    <path clip-path="url(#pf4dcb3dee6)" d="M 634.887847 22.714286 
L 634.887847 22.714286 
" style="fill:none;stroke:#424242;stroke-linecap:square;stroke-width:2.7;"/>
   </g>
   <g id="line2d_34">
    <path clip-path="url(#pf4dcb3dee6)" d="M 444.827847 333 
L 444.827847 255.428571 
" style="fill:none;stroke:#424242;stroke-linecap:square;stroke-width:2.7;"/>
   </g>
   <g id="line2d_35">
    <path clip-path="url(#pf4dcb3dee6)" d="M 550.416736 333 
L 550.416736 229.571429 
" style="fill:none;stroke:#424242;stroke-linecap:square;stroke-width:2.7;"/>
   </g>
   <g id="line2d_36">
    <path clip-path="url(#pf4dcb3dee6)" d="M 656.005625 22.714286 
L 656.005625 22.714286 
" style="fill:none;stroke:#424242;stroke-linecap:square;stroke-width:2.7;"/>
   </g>
   <g id="line2d_37">
    <path clip-path="url(#pf4dcb3dee6)" d="M 465.945625 333 
L 465.945625 255.428571 
" style="fill:none;stroke:#424242;stroke-linecap:square;stroke-width:2.7;"/>
   </g>
   <g id="line2d_38">
    <path clip-path="url(#pf4dcb3dee6)" d="M 571.534514 333 
L 571.534514 229.571429 
" style="fill:none;stroke:#424242;stroke-linecap:square;stroke-width:2.7;"/>
   </g>
   <g id="line2d_39">
    <path clip-path="url(#pf4dcb3dee6)" d="M 677.123403 22.714286 
L 677.123403 22.714286 
" style="fill:none;stroke:#424242;stroke-linecap:square;stroke-width:2.7;"/>
   </g>
   <g id="line2d_40">
    <path clip-path="url(#pf4dcb3dee6)" d="M 487.063403 333 
L 487.063403 255.428571 
" style="fill:none;stroke:#424242;stroke-linecap:square;stroke-width:2.7;"/>
   </g>
   <g id="line2d_41">
    <path clip-path="url(#pf4dcb3dee6)" d="M 592.652292 313.607143 
L 592.652292 203.714286 
" style="fill:none;stroke:#424242;stroke-linecap:square;stroke-width:2.7;"/>
   </g>
   <g id="line2d_42">
    <path clip-path="url(#pf4dcb3dee6)" d="M 698.241181 22.714286 
L 698.241181 22.714286 
" style="fill:none;stroke:#424242;stroke-linecap:square;stroke-width:2.7;"/>
   </g>
   <g id="patch_37">
    <path d="M 402.592292 333 
L 402.592292 7.2 
" style="fill:none;stroke:#000000;stroke-linecap:square;stroke-linejoin:miter;stroke-width:0.8;"/>
   </g>
   <g id="patch_38">
    <path d="M 719.358958 333 
L 719.358958 7.2 
" style="fill:none;stroke:#000000;stroke-linecap:square;stroke-linejoin:miter;stroke-width:0.8;"/>
   </g>
   <g id="patch_39">
    <path d="M 402.592292 333 
L 719.358958 333 
" style="fill:none;stroke:#000000;stroke-linecap:square;stroke-linejoin:miter;stroke-width:0.8;"/>
   </g>
   <g id="patch_40">
    <path d="M 402.592292 7.2 
L 719.358958 7.2 
" style="fill:none;stroke:#000000;stroke-linecap:square;stroke-linejoin:miter;stroke-width:0.8;"/>
   </g>
  </g>
  <g id="axes_3">
   <g id="patch_41">
    <path d="M 755.596458 333 
L 1072.363125 333 
L 1072.363125 7.2 
L 755.596458 7.2 
z
" style="fill:#ffffff;"/>
   </g>
   <g id="patch_42">
    <path clip-path="url(#p298b01e392)" d="M 766.155347 333 
L 787.273125 333 
L 787.273125 281.285714 
L 766.155347 281.285714 
z
" style="fill:#3274a1;"/>
   </g>
   <g id="patch_43">
    <path clip-path="url(#p298b01e392)" d="M 871.744236 333 
L 892.862014 333 
L 892.862014 281.285714 
L 871.744236 281.285714 
z
" style="fill:#3274a1;"/>
   </g>
   <g id="patch_44">
    <path clip-path="url(#p298b01e392)" d="M 977.333125 333 
L 998.450903 333 
L 998.450903 281.285714 
L 977.333125 281.285714 
z
" style="fill:#3274a1;"/>
   </g>
   <g id="patch_45">
    <path clip-path="url(#p298b01e392)" d="M 787.273125 333 
L 808.390903 333 
L 808.390903 281.285714 
L 787.273125 281.285714 
z
" style="fill:#e1812c;"/>
   </g>
   <g id="patch_46">
    <path clip-path="url(#p298b01e392)" d="M 892.862014 333 
L 913.979792 333 
L 913.979792 281.285714 
L 892.862014 281.285714 
z
" style="fill:#e1812c;"/>
   </g>
   <g id="patch_47">
    <path clip-path="url(#p298b01e392)" d="M 998.450903 333 
L 1019.568681 333 
L 1019.568681 281.285714 
L 998.450903 281.285714 
z
" style="fill:#e1812c;"/>
   </g>
   <g id="patch_48">
    <path clip-path="url(#p298b01e392)" d="M 808.390903 333 
L 829.508681 333 
L 829.508681 281.285714 
L 808.390903 281.285714 
z
" style="fill:#3a923a;"/>
   </g>
   <g id="patch_49">
    <path clip-path="url(#p298b01e392)" d="M 913.979792 333 
L 935.097569 333 
L 935.097569 281.285714 
L 913.979792 281.285714 
z
" style="fill:#3a923a;"/>
   </g>
   <g id="patch_50">
    <path clip-path="url(#p298b01e392)" d="M 1019.568681 333 
L 1040.686458 333 
L 1040.686458 281.285714 
L 1019.568681 281.285714 
z
" style="fill:#3a923a;"/>
   </g>
   <g id="patch_51">
    <path clip-path="url(#p298b01e392)" d="M 829.508681 333 
L 850.626458 333 
L 850.626458 281.285714 
L 829.508681 281.285714 
z
" style="fill:#c03d3e;"/>
   </g>
   <g id="patch_52">
    <path clip-path="url(#p298b01e392)" d="M 935.097569 333 
L 956.215347 333 
L 956.215347 281.285714 
L 935.097569 281.285714 
z
" style="fill:#c03d3e;"/>
   </g>
   <g id="patch_53">
    <path clip-path="url(#p298b01e392)" d="M 1040.686458 333 
L 1061.804236 333 
L 1061.804236 281.285714 
L 1040.686458 281.285714 
z
" style="fill:#c03d3e;"/>
   </g>
   <g id="matplotlib.axis_5">
    <g id="xtick_7">
     <g id="line2d_43">
      <g>
       <use style="stroke:#000000;stroke-width:0.8;" x="808.390903" xlink:href="#mb0501f4657" y="333"/>
      </g>
     </g>
    </g>
    <g id="xtick_8">
     <g id="line2d_44">
      <g>
       <use style="stroke:#000000;stroke-width:0.8;" x="913.979792" xlink:href="#mb0501f4657" y="333"/>
      </g>
     </g>
    </g>
    <g id="xtick_9">
     <g id="line2d_45">
      <g>
       <use style="stroke:#000000;stroke-width:0.8;" x="1019.568681" xlink:href="#mb0501f4657" y="333"/>
      </g>
     </g>
    </g>
   </g>
   <g id="matplotlib.axis_6">
    <g id="ytick_13">
     <g id="line2d_46">
      <g>
       <use style="stroke:#000000;stroke-width:0.8;" x="755.596458" xlink:href="#mb93cd4159e" y="333"/>
      </g>
     </g>
    </g>
    <g id="ytick_14">
     <g id="line2d_47">
      <g>
       <use style="stroke:#000000;stroke-width:0.8;" x="755.596458" xlink:href="#mb93cd4159e" y="270.942857"/>
      </g>
     </g>
    </g>
    <g id="ytick_15">
     <g id="line2d_48">
      <g>
       <use style="stroke:#000000;stroke-width:0.8;" x="755.596458" xlink:href="#mb93cd4159e" y="208.885714"/>
      </g>
     </g>
    </g>
    <g id="ytick_16">
     <g id="line2d_49">
      <g>
       <use style="stroke:#000000;stroke-width:0.8;" x="755.596458" xlink:href="#mb93cd4159e" y="146.828571"/>
      </g>
     </g>
    </g>
    <g id="ytick_17">
     <g id="line2d_50">
      <g>
       <use style="stroke:#000000;stroke-width:0.8;" x="755.596458" xlink:href="#mb93cd4159e" y="84.771429"/>
      </g>
     </g>
    </g>
    <g id="ytick_18">
     <g id="line2d_51">
      <g>
       <use style="stroke:#000000;stroke-width:0.8;" x="755.596458" xlink:href="#mb93cd4159e" y="22.714286"/>
      </g>
     </g>
    </g>
    <g id="text_14">
     <!-- SNL FN -->
     <g transform="translate(748.268958 198.75)rotate(-90)scale(0.16 -0.16)">
      <defs>
       <path d="M 53.515625 70.515625 
L 53.515625 60.890625 
Q 47.90625 63.578125 42.921875 64.890625 
Q 37.9375 66.21875 33.296875 66.21875 
Q 25.25 66.21875 20.875 63.09375 
Q 16.5 59.96875 16.5 54.203125 
Q 16.5 49.359375 19.40625 46.890625 
Q 22.3125 44.4375 30.421875 42.921875 
L 36.375 41.703125 
Q 47.40625 39.59375 52.65625 34.296875 
Q 57.90625 29 57.90625 20.125 
Q 57.90625 9.515625 50.796875 4.046875 
Q 43.703125 -1.421875 29.984375 -1.421875 
Q 24.8125 -1.421875 18.96875 -0.25 
Q 13.140625 0.921875 6.890625 3.21875 
L 6.890625 13.375 
Q 12.890625 10.015625 18.65625 8.296875 
Q 24.421875 6.59375 29.984375 6.59375 
Q 38.421875 6.59375 43.015625 9.90625 
Q 47.609375 13.234375 47.609375 19.390625 
Q 47.609375 24.75 44.3125 27.78125 
Q 41.015625 30.8125 33.5 32.328125 
L 27.484375 33.5 
Q 16.453125 35.6875 11.515625 40.375 
Q 6.59375 45.0625 6.59375 53.421875 
Q 6.59375 63.09375 13.40625 68.65625 
Q 20.21875 74.21875 32.171875 74.21875 
Q 37.3125 74.21875 42.625 73.28125 
Q 47.953125 72.359375 53.515625 70.515625 
z
" id="DejaVuSans-83"/>
       <path d="M 9.8125 72.90625 
L 19.671875 72.90625 
L 19.671875 8.296875 
L 55.171875 8.296875 
L 55.171875 0 
L 9.8125 0 
z
" id="DejaVuSans-76"/>
      </defs>
      <use xlink:href="#DejaVuSans-83"/>
      <use x="63.476562" xlink:href="#DejaVuSans-78"/>
      <use x="138.28125" xlink:href="#DejaVuSans-76"/>
      <use x="193.994141" xlink:href="#DejaVuSans-32"/>
      <use x="225.78125" xlink:href="#DejaVuSans-70"/>
      <use x="283.300781" xlink:href="#DejaVuSans-78"/>
     </g>
    </g>
   </g>
   <g id="line2d_52">
    <path clip-path="url(#p298b01e392)" d="M 776.714236 333 
L 776.714236 177.857143 
" style="fill:none;stroke:#424242;stroke-linecap:square;stroke-width:2.7;"/>
   </g>
   <g id="line2d_53">
    <path clip-path="url(#p298b01e392)" d="M 882.303125 333 
L 882.303125 177.857143 
" style="fill:none;stroke:#424242;stroke-linecap:square;stroke-width:2.7;"/>
   </g>
   <g id="line2d_54">
    <path clip-path="url(#p298b01e392)" d="M 987.892014 333 
L 987.892014 177.857143 
" style="fill:none;stroke:#424242;stroke-linecap:square;stroke-width:2.7;"/>
   </g>
   <g id="line2d_55">
    <path clip-path="url(#p298b01e392)" d="M 797.832014 333 
L 797.832014 177.857143 
" style="fill:none;stroke:#424242;stroke-linecap:square;stroke-width:2.7;"/>
   </g>
   <g id="line2d_56">
    <path clip-path="url(#p298b01e392)" d="M 903.420903 333 
L 903.420903 177.857143 
" style="fill:none;stroke:#424242;stroke-linecap:square;stroke-width:2.7;"/>
   </g>
   <g id="line2d_57">
    <path clip-path="url(#p298b01e392)" d="M 1009.009792 333 
L 1009.009792 177.857143 
" style="fill:none;stroke:#424242;stroke-linecap:square;stroke-width:2.7;"/>
   </g>
   <g id="line2d_58">
    <path clip-path="url(#p298b01e392)" d="M 818.949792 333 
L 818.949792 177.857143 
" style="fill:none;stroke:#424242;stroke-linecap:square;stroke-width:2.7;"/>
   </g>
   <g id="line2d_59">
    <path clip-path="url(#p298b01e392)" d="M 924.538681 333 
L 924.538681 177.857143 
" style="fill:none;stroke:#424242;stroke-linecap:square;stroke-width:2.7;"/>
   </g>
   <g id="line2d_60">
    <path clip-path="url(#p298b01e392)" d="M 1030.127569 333 
L 1030.127569 177.857143 
" style="fill:none;stroke:#424242;stroke-linecap:square;stroke-width:2.7;"/>
   </g>
   <g id="line2d_61">
    <path clip-path="url(#p298b01e392)" d="M 840.067569 333 
L 840.067569 177.857143 
" style="fill:none;stroke:#424242;stroke-linecap:square;stroke-width:2.7;"/>
   </g>
   <g id="line2d_62">
    <path clip-path="url(#p298b01e392)" d="M 945.656458 333 
L 945.656458 177.857143 
" style="fill:none;stroke:#424242;stroke-linecap:square;stroke-width:2.7;"/>
   </g>
   <g id="line2d_63">
    <path clip-path="url(#p298b01e392)" d="M 1051.245347 333 
L 1051.245347 177.857143 
" style="fill:none;stroke:#424242;stroke-linecap:square;stroke-width:2.7;"/>
   </g>
   <g id="patch_54">
    <path d="M 755.596458 333 
L 755.596458 7.2 
" style="fill:none;stroke:#000000;stroke-linecap:square;stroke-linejoin:miter;stroke-width:0.8;"/>
   </g>
   <g id="patch_55">
    <path d="M 1072.363125 333 
L 1072.363125 7.2 
" style="fill:none;stroke:#000000;stroke-linecap:square;stroke-linejoin:miter;stroke-width:0.8;"/>
   </g>
   <g id="patch_56">
    <path d="M 755.596458 333 
L 1072.363125 333 
" style="fill:none;stroke:#000000;stroke-linecap:square;stroke-linejoin:miter;stroke-width:0.8;"/>
   </g>
   <g id="patch_57">
    <path d="M 755.596458 7.2 
L 1072.363125 7.2 
" style="fill:none;stroke:#000000;stroke-linecap:square;stroke-linejoin:miter;stroke-width:0.8;"/>
   </g>
  </g>
  <g id="axes_4">
   <g id="patch_58">
    <path d="M 49.588125 679.6 
L 366.354792 679.6 
L 366.354792 353.8 
L 49.588125 353.8 
z
" style="fill:#ffffff;"/>
   </g>
   <g id="patch_59">
    <path clip-path="url(#p172f97ddd9)" d="M 60.147014 679.6 
L 81.264792 679.6 
L 81.264792 541.488588 
L 60.147014 541.488588 
z
" style="fill:#3274a1;"/>
   </g>
   <g id="patch_60">
    <path clip-path="url(#p172f97ddd9)" d="M 165.735903 679.6 
L 186.853681 679.6 
L 186.853681 542.557143 
L 165.735903 542.557143 
z
" style="fill:#3274a1;"/>
   </g>
   <g id="patch_61">
    <path clip-path="url(#p172f97ddd9)" d="M 271.324792 679.6 
L 292.442569 679.6 
L 292.442569 679.6 
L 271.324792 679.6 
z
" style="fill:#3274a1;"/>
   </g>
   <g id="patch_62">
    <path clip-path="url(#p172f97ddd9)" d="M 81.264792 679.6 
L 102.382569 679.6 
L 102.382569 539.315718 
L 81.264792 539.315718 
z
" style="fill:#e1812c;"/>
   </g>
   <g id="patch_63">
    <path clip-path="url(#p172f97ddd9)" d="M 186.853681 679.6 
L 207.971458 679.6 
L 207.971458 539.109524 
L 186.853681 539.109524 
z
" style="fill:#e1812c;"/>
   </g>
   <g id="patch_64">
    <path clip-path="url(#p172f97ddd9)" d="M 292.442569 679.6 
L 313.560347 679.6 
L 313.560347 679.6 
L 292.442569 679.6 
z
" style="fill:#e1812c;"/>
   </g>
   <g id="patch_65">
    <path clip-path="url(#p172f97ddd9)" d="M 102.382569 679.6 
L 123.500347 679.6 
L 123.500347 542.831816 
L 102.382569 542.831816 
z
" style="fill:#3a923a;"/>
   </g>
   <g id="patch_66">
    <path clip-path="url(#p172f97ddd9)" d="M 207.971458 679.6 
L 229.089236 679.6 
L 229.089236 552.9 
L 207.971458 552.9 
z
" style="fill:#3a923a;"/>
   </g>
   <g id="patch_67">
    <path clip-path="url(#p172f97ddd9)" d="M 313.560347 679.6 
L 334.678125 679.6 
L 334.678125 679.6 
L 313.560347 679.6 
z
" style="fill:#3a923a;"/>
   </g>
   <g id="patch_68">
    <path clip-path="url(#p172f97ddd9)" d="M 123.500347 679.6 
L 144.618125 679.6 
L 144.618125 546.906275 
L 123.500347 546.906275 
z
" style="fill:#c03d3e;"/>
   </g>
   <g id="patch_69">
    <path clip-path="url(#p172f97ddd9)" d="M 229.089236 679.6 
L 250.207014 679.6 
L 250.207014 521.132653 
L 229.089236 521.132653 
z
" style="fill:#c03d3e;"/>
   </g>
   <g id="patch_70">
    <path clip-path="url(#p172f97ddd9)" d="M 334.678125 679.6 
L 355.795903 679.6 
L 355.795903 679.6 
L 334.678125 679.6 
z
" style="fill:#c03d3e;"/>
   </g>
   <g id="matplotlib.axis_7">
    <g id="xtick_10">
     <g id="line2d_64">
      <g>
       <use style="stroke:#000000;stroke-width:0.8;" x="102.382569" xlink:href="#mb0501f4657" y="679.6"/>
      </g>
     </g>
     <g id="text_15">
      <!-- PhISCS-I -->
      <g transform="translate(38.766684 720.764377)rotate(-20)scale(0.16 -0.16)">
       <defs>
        <path d="M 19.671875 64.796875 
L 19.671875 37.40625 
L 32.078125 37.40625 
Q 38.96875 37.40625 42.71875 40.96875 
Q 46.484375 44.53125 46.484375 51.125 
Q 46.484375 57.671875 42.71875 61.234375 
Q 38.96875 64.796875 32.078125 64.796875 
z
M 9.8125 72.90625 
L 32.078125 72.90625 
Q 44.34375 72.90625 50.609375 67.359375 
Q 56.890625 61.8125 56.890625 51.125 
Q 56.890625 40.328125 50.609375 34.8125 
Q 44.34375 29.296875 32.078125 29.296875 
L 19.671875 29.296875 
L 19.671875 0 
L 9.8125 0 
z
" id="DejaVuSans-80"/>
        <path d="M 54.890625 33.015625 
L 54.890625 0 
L 45.90625 0 
L 45.90625 32.71875 
Q 45.90625 40.484375 42.875 44.328125 
Q 39.84375 48.1875 33.796875 48.1875 
Q 26.515625 48.1875 22.3125 43.546875 
Q 18.109375 38.921875 18.109375 30.90625 
L 18.109375 0 
L 9.078125 0 
L 9.078125 75.984375 
L 18.109375 75.984375 
L 18.109375 46.1875 
Q 21.34375 51.125 25.703125 53.5625 
Q 30.078125 56 35.796875 56 
Q 45.21875 56 50.046875 50.171875 
Q 54.890625 44.34375 54.890625 33.015625 
z
" id="DejaVuSans-104"/>
        <path d="M 9.8125 72.90625 
L 19.671875 72.90625 
L 19.671875 0 
L 9.8125 0 
z
" id="DejaVuSans-73"/>
        <path d="M 64.40625 67.28125 
L 64.40625 56.890625 
Q 59.421875 61.53125 53.78125 63.8125 
Q 48.140625 66.109375 41.796875 66.109375 
Q 29.296875 66.109375 22.65625 58.46875 
Q 16.015625 50.828125 16.015625 36.375 
Q 16.015625 21.96875 22.65625 14.328125 
Q 29.296875 6.6875 41.796875 6.6875 
Q 48.140625 6.6875 53.78125 8.984375 
Q 59.421875 11.28125 64.40625 15.921875 
L 64.40625 5.609375 
Q 59.234375 2.09375 53.4375 0.328125 
Q 47.65625 -1.421875 41.21875 -1.421875 
Q 24.65625 -1.421875 15.125 8.703125 
Q 5.609375 18.84375 5.609375 36.375 
Q 5.609375 53.953125 15.125 64.078125 
Q 24.65625 74.21875 41.21875 74.21875 
Q 47.75 74.21875 53.53125 72.484375 
Q 59.328125 70.75 64.40625 67.28125 
z
" id="DejaVuSans-67"/>
        <path d="M 4.890625 31.390625 
L 31.203125 31.390625 
L 31.203125 23.390625 
L 4.890625 23.390625 
z
" id="DejaVuSans-45"/>
       </defs>
       <use xlink:href="#DejaVuSans-80"/>
       <use x="60.302734" xlink:href="#DejaVuSans-104"/>
       <use x="123.681641" xlink:href="#DejaVuSans-73"/>
       <use x="153.173828" xlink:href="#DejaVuSans-83"/>
       <use x="216.650391" xlink:href="#DejaVuSans-67"/>
       <use x="286.474609" xlink:href="#DejaVuSans-83"/>
       <use x="349.951172" xlink:href="#DejaVuSans-45"/>
       <use x="386.035156" xlink:href="#DejaVuSans-73"/>
      </g>
     </g>
    </g>
    <g id="xtick_11">
     <g id="line2d_65">
      <g>
       <use style="stroke:#000000;stroke-width:0.8;" x="207.971458" xlink:href="#mb0501f4657" y="679.6"/>
      </g>
     </g>
     <g id="text_16">
      <!-- PhISCS-I, -->
      <g transform="translate(133.449432 722.50355)rotate(-20)scale(0.16 -0.16)">
       <defs>
        <path d="M 11.71875 12.40625 
L 22.015625 12.40625 
L 22.015625 4 
L 14.015625 -11.625 
L 7.71875 -11.625 
L 11.71875 4 
z
" id="DejaVuSans-44"/>
       </defs>
       <use xlink:href="#DejaVuSans-80"/>
       <use x="60.302734" xlink:href="#DejaVuSans-104"/>
       <use x="123.681641" xlink:href="#DejaVuSans-73"/>
       <use x="153.173828" xlink:href="#DejaVuSans-83"/>
       <use x="216.650391" xlink:href="#DejaVuSans-67"/>
       <use x="286.474609" xlink:href="#DejaVuSans-83"/>
       <use x="349.951172" xlink:href="#DejaVuSans-45"/>
       <use x="386.035156" xlink:href="#DejaVuSans-73"/>
       <use x="415.527344" xlink:href="#DejaVuSans-44"/>
      </g>
      <!--  with true kmax -->
      <g transform="translate(88.284114 758.008722)rotate(-20)scale(0.16 -0.16)">
       <defs>
        <path d="M 4.203125 54.6875 
L 13.1875 54.6875 
L 24.421875 12.015625 
L 35.59375 54.6875 
L 46.1875 54.6875 
L 57.421875 12.015625 
L 68.609375 54.6875 
L 77.59375 54.6875 
L 63.28125 0 
L 52.6875 0 
L 40.921875 44.828125 
L 29.109375 0 
L 18.5 0 
z
" id="DejaVuSans-119"/>
        <path d="M 8.5 21.578125 
L 8.5 54.6875 
L 17.484375 54.6875 
L 17.484375 21.921875 
Q 17.484375 14.15625 20.5 10.265625 
Q 23.53125 6.390625 29.59375 6.390625 
Q 36.859375 6.390625 41.078125 11.03125 
Q 45.3125 15.671875 45.3125 23.6875 
L 45.3125 54.6875 
L 54.296875 54.6875 
L 54.296875 0 
L 45.3125 0 
L 45.3125 8.40625 
Q 42.046875 3.421875 37.71875 1 
Q 33.40625 -1.421875 27.6875 -1.421875 
Q 18.265625 -1.421875 13.375 4.4375 
Q 8.5 10.296875 8.5 21.578125 
z
M 31.109375 56 
z
" id="DejaVuSans-117"/>
        <path d="M 9.078125 75.984375 
L 18.109375 75.984375 
L 18.109375 31.109375 
L 44.921875 54.6875 
L 56.390625 54.6875 
L 27.390625 29.109375 
L 57.625 0 
L 45.90625 0 
L 18.109375 26.703125 
L 18.109375 0 
L 9.078125 0 
z
" id="DejaVuSans-107"/>
        <path d="M 54.890625 54.6875 
L 35.109375 28.078125 
L 55.90625 0 
L 45.3125 0 
L 29.390625 21.484375 
L 13.484375 0 
L 2.875 0 
L 24.125 28.609375 
L 4.6875 54.6875 
L 15.28125 54.6875 
L 29.78125 35.203125 
L 44.28125 54.6875 
z
" id="DejaVuSans-120"/>
       </defs>
       <use xlink:href="#DejaVuSans-32"/>
       <use x="31.787109" xlink:href="#DejaVuSans-119"/>
       <use x="113.574219" xlink:href="#DejaVuSans-105"/>
       <use x="141.357422" xlink:href="#DejaVuSans-116"/>
       <use x="180.566406" xlink:href="#DejaVuSans-104"/>
       <use x="243.945312" xlink:href="#DejaVuSans-32"/>
       <use x="275.732422" xlink:href="#DejaVuSans-116"/>
       <use x="314.941406" xlink:href="#DejaVuSans-114"/>
       <use x="356.054688" xlink:href="#DejaVuSans-117"/>
       <use x="419.433594" xlink:href="#DejaVuSans-101"/>
       <use x="480.957031" xlink:href="#DejaVuSans-32"/>
       <use x="512.744141" xlink:href="#DejaVuSans-107"/>
       <use x="570.654297" xlink:href="#DejaVuSans-109"/>
       <use x="668.066406" xlink:href="#DejaVuSans-97"/>
       <use x="729.345703" xlink:href="#DejaVuSans-120"/>
      </g>
     </g>
    </g>
    <g id="xtick_12">
     <g id="line2d_66">
      <g>
       <use style="stroke:#000000;stroke-width:0.8;" x="313.560347" xlink:href="#mb0501f4657" y="679.6"/>
      </g>
     </g>
     <g id="text_17">
      <!-- PhISCS-MI -->
      <g transform="translate(236.972005 725.485965)rotate(-20)scale(0.16 -0.16)">
       <defs>
        <path d="M 9.8125 72.90625 
L 24.515625 72.90625 
L 43.109375 23.296875 
L 61.8125 72.90625 
L 76.515625 72.90625 
L 76.515625 0 
L 66.890625 0 
L 66.890625 64.015625 
L 48.09375 14.015625 
L 38.1875 14.015625 
L 19.390625 64.015625 
L 19.390625 0 
L 9.8125 0 
z
" id="DejaVuSans-77"/>
       </defs>
       <use xlink:href="#DejaVuSans-80"/>
       <use x="60.302734" xlink:href="#DejaVuSans-104"/>
       <use x="123.681641" xlink:href="#DejaVuSans-73"/>
       <use x="153.173828" xlink:href="#DejaVuSans-83"/>
       <use x="216.650391" xlink:href="#DejaVuSans-67"/>
       <use x="286.474609" xlink:href="#DejaVuSans-83"/>
       <use x="349.951172" xlink:href="#DejaVuSans-45"/>
       <use x="386.035156" xlink:href="#DejaVuSans-77"/>
       <use x="472.314453" xlink:href="#DejaVuSans-73"/>
      </g>
     </g>
    </g>
   </g>
   <g id="matplotlib.axis_8">
    <g id="ytick_19">
     <g id="line2d_67">
      <g>
       <use style="stroke:#000000;stroke-width:0.8;" x="49.588125" xlink:href="#mb93cd4159e" y="679.6"/>
      </g>
     </g>
     <g id="text_18">
      <!-- 0.0 -->
      <g transform="translate(26.685 683.399219)scale(0.1 -0.1)">
       <use xlink:href="#DejaVuSans-48"/>
       <use x="63.623047" xlink:href="#DejaVuSans-46"/>
       <use x="95.410156" xlink:href="#DejaVuSans-48"/>
      </g>
     </g>
    </g>
    <g id="ytick_20">
     <g id="line2d_68">
      <g>
       <use style="stroke:#000000;stroke-width:0.8;" x="49.588125" xlink:href="#mb93cd4159e" y="617.542857"/>
      </g>
     </g>
     <g id="text_19">
      <!-- 0.2 -->
      <g transform="translate(26.685 621.342076)scale(0.1 -0.1)">
       <use xlink:href="#DejaVuSans-48"/>
       <use x="63.623047" xlink:href="#DejaVuSans-46"/>
       <use x="95.410156" xlink:href="#DejaVuSans-50"/>
      </g>
     </g>
    </g>
    <g id="ytick_21">
     <g id="line2d_69">
      <g>
       <use style="stroke:#000000;stroke-width:0.8;" x="49.588125" xlink:href="#mb93cd4159e" y="555.485714"/>
      </g>
     </g>
     <g id="text_20">
      <!-- 0.4 -->
      <g transform="translate(26.685 559.284933)scale(0.1 -0.1)">
       <use xlink:href="#DejaVuSans-48"/>
       <use x="63.623047" xlink:href="#DejaVuSans-46"/>
       <use x="95.410156" xlink:href="#DejaVuSans-52"/>
      </g>
     </g>
    </g>
    <g id="ytick_22">
     <g id="line2d_70">
      <g>
       <use style="stroke:#000000;stroke-width:0.8;" x="49.588125" xlink:href="#mb93cd4159e" y="493.428571"/>
      </g>
     </g>
     <g id="text_21">
      <!-- 0.6 -->
      <g transform="translate(26.685 497.22779)scale(0.1 -0.1)">
       <use xlink:href="#DejaVuSans-48"/>
       <use x="63.623047" xlink:href="#DejaVuSans-46"/>
       <use x="95.410156" xlink:href="#DejaVuSans-54"/>
      </g>
     </g>
    </g>
    <g id="ytick_23">
     <g id="line2d_71">
      <g>
       <use style="stroke:#000000;stroke-width:0.8;" x="49.588125" xlink:href="#mb93cd4159e" y="431.371429"/>
      </g>
     </g>
     <g id="text_22">
      <!-- 0.8 -->
      <g transform="translate(26.685 435.170647)scale(0.1 -0.1)">
       <use xlink:href="#DejaVuSans-48"/>
       <use x="63.623047" xlink:href="#DejaVuSans-46"/>
       <use x="95.410156" xlink:href="#DejaVuSans-56"/>
      </g>
     </g>
    </g>
    <g id="ytick_24">
     <g id="line2d_72">
      <g>
       <use style="stroke:#000000;stroke-width:0.8;" x="49.588125" xlink:href="#mb93cd4159e" y="369.314286"/>
      </g>
     </g>
     <g id="text_23">
      <!-- 1.0 -->
      <g transform="translate(26.685 373.113504)scale(0.1 -0.1)">
       <use xlink:href="#DejaVuSans-49"/>
       <use x="63.623047" xlink:href="#DejaVuSans-46"/>
       <use x="95.410156" xlink:href="#DejaVuSans-48"/>
      </g>
     </g>
    </g>
    <g id="text_24">
     <!-- AD FP -->
     <g transform="translate(19.3575 540.3)rotate(-90)scale(0.16 -0.16)">
      <use xlink:href="#DejaVuSans-65"/>
      <use x="68.408203" xlink:href="#DejaVuSans-68"/>
      <use x="145.410156" xlink:href="#DejaVuSans-32"/>
      <use x="177.197266" xlink:href="#DejaVuSans-70"/>
      <use x="234.716797" xlink:href="#DejaVuSans-80"/>
     </g>
    </g>
   </g>
   <g id="line2d_73">
    <path clip-path="url(#p172f97ddd9)" d="M 70.705903 564.97786 
L 70.705903 509.285553 
" style="fill:none;stroke:#424242;stroke-linecap:square;stroke-width:2.7;"/>
   </g>
   <g id="line2d_74">
    <path clip-path="url(#p172f97ddd9)" d="M 176.294792 627.02381 
L 176.294792 458.930833 
" style="fill:none;stroke:#424242;stroke-linecap:square;stroke-width:2.7;"/>
   </g>
   <g id="line2d_75">
    <path clip-path="url(#p172f97ddd9)" d="M 281.883681 679.6 
L 281.883681 679.6 
" style="fill:none;stroke:#424242;stroke-linecap:square;stroke-width:2.7;"/>
   </g>
   <g id="line2d_76">
    <path clip-path="url(#p172f97ddd9)" d="M 91.823681 564.97786 
L 91.823681 508.455912 
" style="fill:none;stroke:#424242;stroke-linecap:square;stroke-width:2.7;"/>
   </g>
   <g id="line2d_77">
    <path clip-path="url(#p172f97ddd9)" d="M 197.412569 616.680952 
L 197.412569 452.919048 
" style="fill:none;stroke:#424242;stroke-linecap:square;stroke-width:2.7;"/>
   </g>
   <g id="line2d_78">
    <path clip-path="url(#p172f97ddd9)" d="M 303.001458 679.6 
L 303.001458 679.6 
" style="fill:none;stroke:#424242;stroke-linecap:square;stroke-width:2.7;"/>
   </g>
   <g id="line2d_79">
    <path clip-path="url(#p172f97ddd9)" d="M 112.941458 571.246259 
L 112.941458 506.934903 
" style="fill:none;stroke:#424242;stroke-linecap:square;stroke-width:2.7;"/>
   </g>
   <g id="line2d_80">
    <path clip-path="url(#p172f97ddd9)" d="M 218.530347 627.02381 
L 218.530347 478.77619 
" style="fill:none;stroke:#424242;stroke-linecap:square;stroke-width:2.7;"/>
   </g>
   <g id="line2d_81">
    <path clip-path="url(#p172f97ddd9)" d="M 324.119236 679.6 
L 324.119236 679.6 
" style="fill:none;stroke:#424242;stroke-linecap:square;stroke-width:2.7;"/>
   </g>
   <g id="line2d_82">
    <path clip-path="url(#p172f97ddd9)" d="M 134.059236 573.462585 
L 134.059236 510.999848 
" style="fill:none;stroke:#424242;stroke-linecap:square;stroke-width:2.7;"/>
   </g>
   <g id="line2d_83">
    <path clip-path="url(#p172f97ddd9)" d="M 239.648125 590.986956 
L 239.648125 462.640102 
" style="fill:none;stroke:#424242;stroke-linecap:square;stroke-width:2.7;"/>
   </g>
   <g id="line2d_84">
    <path clip-path="url(#p172f97ddd9)" d="M 345.237014 679.6 
L 345.237014 679.6 
" style="fill:none;stroke:#424242;stroke-linecap:square;stroke-width:2.7;"/>
   </g>
   <g id="patch_71">
    <path d="M 49.588125 679.6 
L 49.588125 353.8 
" style="fill:none;stroke:#000000;stroke-linecap:square;stroke-linejoin:miter;stroke-width:0.8;"/>
   </g>
   <g id="patch_72">
    <path d="M 366.354792 679.6 
L 366.354792 353.8 
" style="fill:none;stroke:#000000;stroke-linecap:square;stroke-linejoin:miter;stroke-width:0.8;"/>
   </g>
   <g id="patch_73">
    <path d="M 49.588125 679.6 
L 366.354792 679.6 
" style="fill:none;stroke:#000000;stroke-linecap:square;stroke-linejoin:miter;stroke-width:0.8;"/>
   </g>
   <g id="patch_74">
    <path d="M 49.588125 353.8 
L 366.354792 353.8 
" style="fill:none;stroke:#000000;stroke-linecap:square;stroke-linejoin:miter;stroke-width:0.8;"/>
   </g>
  </g>
  <g id="axes_5">
   <g id="patch_75">
    <path d="M 402.592292 679.6 
L 719.358958 679.6 
L 719.358958 353.8 
L 402.592292 353.8 
z
" style="fill:#ffffff;"/>
   </g>
   <g id="patch_76">
    <path clip-path="url(#p6af7b35918)" d="M 413.151181 679.6 
L 434.268958 679.6 
L 434.268958 569.768707 
L 413.151181 569.768707 
z
" style="fill:#3274a1;"/>
   </g>
   <g id="patch_77">
    <path clip-path="url(#p6af7b35918)" d="M 518.740069 679.6 
L 539.857847 679.6 
L 539.857847 584.215873 
L 518.740069 584.215873 
z
" style="fill:#3274a1;"/>
   </g>
   <g id="patch_78">
    <path clip-path="url(#p6af7b35918)" d="M 624.328958 679.6 
L 645.446736 679.6 
L 645.446736 679.6 
L 624.328958 679.6 
z
" style="fill:#3274a1;"/>
   </g>
   <g id="patch_79">
    <path clip-path="url(#p6af7b35918)" d="M 434.268958 679.6 
L 455.386736 679.6 
L 455.386736 575.309524 
L 434.268958 575.309524 
z
" style="fill:#e1812c;"/>
   </g>
   <g id="patch_80">
    <path clip-path="url(#p6af7b35918)" d="M 539.857847 679.6 
L 560.975625 679.6 
L 560.975625 586.801587 
L 539.857847 586.801587 
z
" style="fill:#e1812c;"/>
   </g>
   <g id="patch_81">
    <path clip-path="url(#p6af7b35918)" d="M 645.446736 679.6 
L 666.564514 679.6 
L 666.564514 679.6 
L 645.446736 679.6 
z
" style="fill:#e1812c;"/>
   </g>
   <g id="patch_82">
    <path clip-path="url(#p6af7b35918)" d="M 455.386736 679.6 
L 476.504514 679.6 
L 476.504514 572.06712 
L 455.386736 572.06712 
z
" style="fill:#3a923a;"/>
   </g>
   <g id="patch_83">
    <path clip-path="url(#p6af7b35918)" d="M 560.975625 679.6 
L 582.093403 679.6 
L 582.093403 584.215873 
L 560.975625 584.215873 
z
" style="fill:#3a923a;"/>
   </g>
   <g id="patch_84">
    <path clip-path="url(#p6af7b35918)" d="M 666.564514 679.6 
L 687.682292 679.6 
L 687.682292 679.6 
L 666.564514 679.6 
z
" style="fill:#3a923a;"/>
   </g>
   <g id="patch_85">
    <path clip-path="url(#p6af7b35918)" d="M 476.504514 679.6 
L 497.622292 679.6 
L 497.622292 572.902907 
L 476.504514 572.902907 
z
" style="fill:#c03d3e;"/>
   </g>
   <g id="patch_86">
    <path clip-path="url(#p6af7b35918)" d="M 582.093403 679.6 
L 603.211181 679.6 
L 603.211181 573.154762 
L 582.093403 573.154762 
z
" style="fill:#c03d3e;"/>
   </g>
   <g id="patch_87">
    <path clip-path="url(#p6af7b35918)" d="M 687.682292 679.6 
L 708.800069 679.6 
L 708.800069 679.6 
L 687.682292 679.6 
z
" style="fill:#c03d3e;"/>
   </g>
   <g id="matplotlib.axis_9">
    <g id="xtick_13">
     <g id="line2d_85">
      <g>
       <use style="stroke:#000000;stroke-width:0.8;" x="455.386736" xlink:href="#mb0501f4657" y="679.6"/>
      </g>
     </g>
     <g id="text_25">
      <!-- PhISCS-I -->
      <g transform="translate(391.770851 720.764377)rotate(-20)scale(0.16 -0.16)">
       <use xlink:href="#DejaVuSans-80"/>
       <use x="60.302734" xlink:href="#DejaVuSans-104"/>
       <use x="123.681641" xlink:href="#DejaVuSans-73"/>
       <use x="153.173828" xlink:href="#DejaVuSans-83"/>
       <use x="216.650391" xlink:href="#DejaVuSans-67"/>
       <use x="286.474609" xlink:href="#DejaVuSans-83"/>
       <use x="349.951172" xlink:href="#DejaVuSans-45"/>
       <use x="386.035156" xlink:href="#DejaVuSans-73"/>
      </g>
     </g>
    </g>
    <g id="xtick_14">
     <g id="line2d_86">
      <g>
       <use style="stroke:#000000;stroke-width:0.8;" x="560.975625" xlink:href="#mb0501f4657" y="679.6"/>
      </g>
     </g>
     <g id="text_26">
      <!-- PhISCS-I, -->
      <g transform="translate(486.453599 722.50355)rotate(-20)scale(0.16 -0.16)">
       <use xlink:href="#DejaVuSans-80"/>
       <use x="60.302734" xlink:href="#DejaVuSans-104"/>
       <use x="123.681641" xlink:href="#DejaVuSans-73"/>
       <use x="153.173828" xlink:href="#DejaVuSans-83"/>
       <use x="216.650391" xlink:href="#DejaVuSans-67"/>
       <use x="286.474609" xlink:href="#DejaVuSans-83"/>
       <use x="349.951172" xlink:href="#DejaVuSans-45"/>
       <use x="386.035156" xlink:href="#DejaVuSans-73"/>
       <use x="415.527344" xlink:href="#DejaVuSans-44"/>
      </g>
      <!--  with true kmax -->
      <g transform="translate(441.288281 758.008722)rotate(-20)scale(0.16 -0.16)">
       <use xlink:href="#DejaVuSans-32"/>
       <use x="31.787109" xlink:href="#DejaVuSans-119"/>
       <use x="113.574219" xlink:href="#DejaVuSans-105"/>
       <use x="141.357422" xlink:href="#DejaVuSans-116"/>
       <use x="180.566406" xlink:href="#DejaVuSans-104"/>
       <use x="243.945312" xlink:href="#DejaVuSans-32"/>
       <use x="275.732422" xlink:href="#DejaVuSans-116"/>
       <use x="314.941406" xlink:href="#DejaVuSans-114"/>
       <use x="356.054688" xlink:href="#DejaVuSans-117"/>
       <use x="419.433594" xlink:href="#DejaVuSans-101"/>
       <use x="480.957031" xlink:href="#DejaVuSans-32"/>
       <use x="512.744141" xlink:href="#DejaVuSans-107"/>
       <use x="570.654297" xlink:href="#DejaVuSans-109"/>
       <use x="668.066406" xlink:href="#DejaVuSans-97"/>
       <use x="729.345703" xlink:href="#DejaVuSans-120"/>
      </g>
     </g>
    </g>
    <g id="xtick_15">
     <g id="line2d_87">
      <g>
       <use style="stroke:#000000;stroke-width:0.8;" x="666.564514" xlink:href="#mb0501f4657" y="679.6"/>
      </g>
     </g>
     <g id="text_27">
      <!-- PhISCS-MI -->
      <g transform="translate(589.976172 725.485965)rotate(-20)scale(0.16 -0.16)">
       <use xlink:href="#DejaVuSans-80"/>
       <use x="60.302734" xlink:href="#DejaVuSans-104"/>
       <use x="123.681641" xlink:href="#DejaVuSans-73"/>
       <use x="153.173828" xlink:href="#DejaVuSans-83"/>
       <use x="216.650391" xlink:href="#DejaVuSans-67"/>
       <use x="286.474609" xlink:href="#DejaVuSans-83"/>
       <use x="349.951172" xlink:href="#DejaVuSans-45"/>
       <use x="386.035156" xlink:href="#DejaVuSans-77"/>
       <use x="472.314453" xlink:href="#DejaVuSans-73"/>
      </g>
     </g>
    </g>
   </g>
   <g id="matplotlib.axis_10">
    <g id="ytick_25">
     <g id="line2d_88">
      <g>
       <use style="stroke:#000000;stroke-width:0.8;" x="402.592292" xlink:href="#mb93cd4159e" y="679.6"/>
      </g>
     </g>
    </g>
    <g id="ytick_26">
     <g id="line2d_89">
      <g>
       <use style="stroke:#000000;stroke-width:0.8;" x="402.592292" xlink:href="#mb93cd4159e" y="617.542857"/>
      </g>
     </g>
    </g>
    <g id="ytick_27">
     <g id="line2d_90">
      <g>
       <use style="stroke:#000000;stroke-width:0.8;" x="402.592292" xlink:href="#mb93cd4159e" y="555.485714"/>
      </g>
     </g>
    </g>
    <g id="ytick_28">
     <g id="line2d_91">
      <g>
       <use style="stroke:#000000;stroke-width:0.8;" x="402.592292" xlink:href="#mb93cd4159e" y="493.428571"/>
      </g>
     </g>
    </g>
    <g id="ytick_29">
     <g id="line2d_92">
      <g>
       <use style="stroke:#000000;stroke-width:0.8;" x="402.592292" xlink:href="#mb93cd4159e" y="431.371429"/>
      </g>
     </g>
    </g>
    <g id="ytick_30">
     <g id="line2d_93">
      <g>
       <use style="stroke:#000000;stroke-width:0.8;" x="402.592292" xlink:href="#mb93cd4159e" y="369.314286"/>
      </g>
     </g>
    </g>
    <g id="text_28">
     <!-- DB FP -->
     <g transform="translate(395.264792 540.31625)rotate(-90)scale(0.16 -0.16)">
      <use xlink:href="#DejaVuSans-68"/>
      <use x="77.001953" xlink:href="#DejaVuSans-66"/>
      <use x="145.605469" xlink:href="#DejaVuSans-32"/>
      <use x="177.392578" xlink:href="#DejaVuSans-70"/>
      <use x="234.912109" xlink:href="#DejaVuSans-80"/>
     </g>
    </g>
   </g>
   <g id="line2d_94">
    <path clip-path="url(#p6af7b35918)" d="M 423.710069 645.12381 
L 423.710069 494.89381 
" style="fill:none;stroke:#424242;stroke-linecap:square;stroke-width:2.7;"/>
   </g>
   <g id="line2d_95">
    <path clip-path="url(#p6af7b35918)" d="M 529.298958 656.615873 
L 529.298958 507.219048 
" style="fill:none;stroke:#424242;stroke-linecap:square;stroke-width:2.7;"/>
   </g>
   <g id="line2d_96">
    <path clip-path="url(#p6af7b35918)" d="M 634.887847 679.6 
L 634.887847 679.6 
" style="fill:none;stroke:#424242;stroke-linecap:square;stroke-width:2.7;"/>
   </g>
   <g id="line2d_97">
    <path clip-path="url(#p6af7b35918)" d="M 444.827847 645.12381 
L 444.827847 508.942857 
" style="fill:none;stroke:#424242;stroke-linecap:square;stroke-width:2.7;"/>
   </g>
   <g id="line2d_98">
    <path clip-path="url(#p6af7b35918)" d="M 550.416736 656.615873 
L 550.416736 514.97619 
" style="fill:none;stroke:#424242;stroke-linecap:square;stroke-width:2.7;"/>
   </g>
   <g id="line2d_99">
    <path clip-path="url(#p6af7b35918)" d="M 656.005625 679.6 
L 656.005625 679.6 
" style="fill:none;stroke:#424242;stroke-linecap:square;stroke-width:2.7;"/>
   </g>
   <g id="line2d_100">
    <path clip-path="url(#p6af7b35918)" d="M 465.945625 645.12381 
L 465.945625 500.652154 
" style="fill:none;stroke:#424242;stroke-linecap:square;stroke-width:2.7;"/>
   </g>
   <g id="line2d_101">
    <path clip-path="url(#p6af7b35918)" d="M 571.534514 656.615873 
L 571.534514 508.339524 
" style="fill:none;stroke:#424242;stroke-linecap:square;stroke-width:2.7;"/>
   </g>
   <g id="line2d_102">
    <path clip-path="url(#p6af7b35918)" d="M 677.123403 679.6 
L 677.123403 679.6 
" style="fill:none;stroke:#424242;stroke-linecap:square;stroke-width:2.7;"/>
   </g>
   <g id="line2d_103">
    <path clip-path="url(#p6af7b35918)" d="M 487.063403 648.258009 
L 487.063403 497.853389 
" style="fill:none;stroke:#424242;stroke-linecap:square;stroke-width:2.7;"/>
   </g>
   <g id="line2d_104">
    <path clip-path="url(#p6af7b35918)" d="M 592.652292 631.570357 
L 592.652292 503.340476 
" style="fill:none;stroke:#424242;stroke-linecap:square;stroke-width:2.7;"/>
   </g>
   <g id="line2d_105">
    <path clip-path="url(#p6af7b35918)" d="M 698.241181 679.6 
L 698.241181 679.6 
" style="fill:none;stroke:#424242;stroke-linecap:square;stroke-width:2.7;"/>
   </g>
   <g id="patch_88">
    <path d="M 402.592292 679.6 
L 402.592292 353.8 
" style="fill:none;stroke:#000000;stroke-linecap:square;stroke-linejoin:miter;stroke-width:0.8;"/>
   </g>
   <g id="patch_89">
    <path d="M 719.358958 679.6 
L 719.358958 353.8 
" style="fill:none;stroke:#000000;stroke-linecap:square;stroke-linejoin:miter;stroke-width:0.8;"/>
   </g>
   <g id="patch_90">
    <path d="M 402.592292 679.6 
L 719.358958 679.6 
" style="fill:none;stroke:#000000;stroke-linecap:square;stroke-linejoin:miter;stroke-width:0.8;"/>
   </g>
   <g id="patch_91">
    <path d="M 402.592292 353.8 
L 719.358958 353.8 
" style="fill:none;stroke:#000000;stroke-linecap:square;stroke-linejoin:miter;stroke-width:0.8;"/>
   </g>
  </g>
  <g id="axes_6">
   <g id="patch_92">
    <path d="M 755.596458 679.6 
L 1072.363125 679.6 
L 1072.363125 353.8 
L 755.596458 353.8 
z
" style="fill:#ffffff;"/>
   </g>
   <g id="patch_93">
    <path clip-path="url(#p39540fe7b2)" d="M 766.155347 679.6 
L 787.273125 679.6 
L 787.273125 679.6 
L 766.155347 679.6 
z
" style="fill:#3274a1;"/>
   </g>
   <g id="patch_94">
    <path clip-path="url(#p39540fe7b2)" d="M 871.744236 679.6 
L 892.862014 679.6 
L 892.862014 679.6 
L 871.744236 679.6 
z
" style="fill:#3274a1;"/>
   </g>
   <g id="patch_95">
    <path clip-path="url(#p39540fe7b2)" d="M 977.333125 679.6 
L 998.450903 679.6 
L 998.450903 679.6 
L 977.333125 679.6 
z
" style="fill:#3274a1;"/>
   </g>
   <g id="patch_96">
    <path clip-path="url(#p39540fe7b2)" d="M 787.273125 679.6 
L 808.390903 679.6 
L 808.390903 679.6 
L 787.273125 679.6 
z
" style="fill:#e1812c;"/>
   </g>
   <g id="patch_97">
    <path clip-path="url(#p39540fe7b2)" d="M 892.862014 679.6 
L 913.979792 679.6 
L 913.979792 679.6 
L 892.862014 679.6 
z
" style="fill:#e1812c;"/>
   </g>
   <g id="patch_98">
    <path clip-path="url(#p39540fe7b2)" d="M 998.450903 679.6 
L 1019.568681 679.6 
L 1019.568681 679.6 
L 998.450903 679.6 
z
" style="fill:#e1812c;"/>
   </g>
   <g id="patch_99">
    <path clip-path="url(#p39540fe7b2)" d="M 808.390903 679.6 
L 829.508681 679.6 
L 829.508681 679.6 
L 808.390903 679.6 
z
" style="fill:#3a923a;"/>
   </g>
   <g id="patch_100">
    <path clip-path="url(#p39540fe7b2)" d="M 913.979792 679.6 
L 935.097569 679.6 
L 935.097569 679.6 
L 913.979792 679.6 
z
" style="fill:#3a923a;"/>
   </g>
   <g id="patch_101">
    <path clip-path="url(#p39540fe7b2)" d="M 1019.568681 679.6 
L 1040.686458 679.6 
L 1040.686458 679.6 
L 1019.568681 679.6 
z
" style="fill:#3a923a;"/>
   </g>
   <g id="patch_102">
    <path clip-path="url(#p39540fe7b2)" d="M 829.508681 679.6 
L 850.626458 679.6 
L 850.626458 679.6 
L 829.508681 679.6 
z
" style="fill:#c03d3e;"/>
   </g>
   <g id="patch_103">
    <path clip-path="url(#p39540fe7b2)" d="M 935.097569 679.6 
L 956.215347 679.6 
L 956.215347 679.6 
L 935.097569 679.6 
z
" style="fill:#c03d3e;"/>
   </g>
   <g id="patch_104">
    <path clip-path="url(#p39540fe7b2)" d="M 1040.686458 679.6 
L 1061.804236 679.6 
L 1061.804236 679.6 
L 1040.686458 679.6 
z
" style="fill:#c03d3e;"/>
   </g>
   <g id="matplotlib.axis_11">
    <g id="xtick_16">
     <g id="line2d_106">
      <g>
       <use style="stroke:#000000;stroke-width:0.8;" x="808.390903" xlink:href="#mb0501f4657" y="679.6"/>
      </g>
     </g>
     <g id="text_29">
      <!-- PhISCS-I -->
      <g transform="translate(744.775018 720.764377)rotate(-20)scale(0.16 -0.16)">
       <use xlink:href="#DejaVuSans-80"/>
       <use x="60.302734" xlink:href="#DejaVuSans-104"/>
       <use x="123.681641" xlink:href="#DejaVuSans-73"/>
       <use x="153.173828" xlink:href="#DejaVuSans-83"/>
       <use x="216.650391" xlink:href="#DejaVuSans-67"/>
       <use x="286.474609" xlink:href="#DejaVuSans-83"/>
       <use x="349.951172" xlink:href="#DejaVuSans-45"/>
       <use x="386.035156" xlink:href="#DejaVuSans-73"/>
      </g>
     </g>
    </g>
    <g id="xtick_17">
     <g id="line2d_107">
      <g>
       <use style="stroke:#000000;stroke-width:0.8;" x="913.979792" xlink:href="#mb0501f4657" y="679.6"/>
      </g>
     </g>
     <g id="text_30">
      <!-- PhISCS-I, -->
      <g transform="translate(839.457766 722.50355)rotate(-20)scale(0.16 -0.16)">
       <use xlink:href="#DejaVuSans-80"/>
       <use x="60.302734" xlink:href="#DejaVuSans-104"/>
       <use x="123.681641" xlink:href="#DejaVuSans-73"/>
       <use x="153.173828" xlink:href="#DejaVuSans-83"/>
       <use x="216.650391" xlink:href="#DejaVuSans-67"/>
       <use x="286.474609" xlink:href="#DejaVuSans-83"/>
       <use x="349.951172" xlink:href="#DejaVuSans-45"/>
       <use x="386.035156" xlink:href="#DejaVuSans-73"/>
       <use x="415.527344" xlink:href="#DejaVuSans-44"/>
      </g>
      <!--  with true kmax -->
      <g transform="translate(794.292448 758.008722)rotate(-20)scale(0.16 -0.16)">
       <use xlink:href="#DejaVuSans-32"/>
       <use x="31.787109" xlink:href="#DejaVuSans-119"/>
       <use x="113.574219" xlink:href="#DejaVuSans-105"/>
       <use x="141.357422" xlink:href="#DejaVuSans-116"/>
       <use x="180.566406" xlink:href="#DejaVuSans-104"/>
       <use x="243.945312" xlink:href="#DejaVuSans-32"/>
       <use x="275.732422" xlink:href="#DejaVuSans-116"/>
       <use x="314.941406" xlink:href="#DejaVuSans-114"/>
       <use x="356.054688" xlink:href="#DejaVuSans-117"/>
       <use x="419.433594" xlink:href="#DejaVuSans-101"/>
       <use x="480.957031" xlink:href="#DejaVuSans-32"/>
       <use x="512.744141" xlink:href="#DejaVuSans-107"/>
       <use x="570.654297" xlink:href="#DejaVuSans-109"/>
       <use x="668.066406" xlink:href="#DejaVuSans-97"/>
       <use x="729.345703" xlink:href="#DejaVuSans-120"/>
      </g>
     </g>
    </g>
    <g id="xtick_18">
     <g id="line2d_108">
      <g>
       <use style="stroke:#000000;stroke-width:0.8;" x="1019.568681" xlink:href="#mb0501f4657" y="679.6"/>
      </g>
     </g>
     <g id="text_31">
      <!-- PhISCS-MI -->
      <g transform="translate(942.980339 725.485965)rotate(-20)scale(0.16 -0.16)">
       <use xlink:href="#DejaVuSans-80"/>
       <use x="60.302734" xlink:href="#DejaVuSans-104"/>
       <use x="123.681641" xlink:href="#DejaVuSans-73"/>
       <use x="153.173828" xlink:href="#DejaVuSans-83"/>
       <use x="216.650391" xlink:href="#DejaVuSans-67"/>
       <use x="286.474609" xlink:href="#DejaVuSans-83"/>
       <use x="349.951172" xlink:href="#DejaVuSans-45"/>
       <use x="386.035156" xlink:href="#DejaVuSans-77"/>
       <use x="472.314453" xlink:href="#DejaVuSans-73"/>
      </g>
     </g>
    </g>
   </g>
   <g id="matplotlib.axis_12">
    <g id="ytick_31">
     <g id="line2d_109">
      <g>
       <use style="stroke:#000000;stroke-width:0.8;" x="755.596458" xlink:href="#mb93cd4159e" y="679.6"/>
      </g>
     </g>
    </g>
    <g id="ytick_32">
     <g id="line2d_110">
      <g>
       <use style="stroke:#000000;stroke-width:0.8;" x="755.596458" xlink:href="#mb93cd4159e" y="617.542857"/>
      </g>
     </g>
    </g>
    <g id="ytick_33">
     <g id="line2d_111">
      <g>
       <use style="stroke:#000000;stroke-width:0.8;" x="755.596458" xlink:href="#mb93cd4159e" y="555.485714"/>
      </g>
     </g>
    </g>
    <g id="ytick_34">
     <g id="line2d_112">
      <g>
       <use style="stroke:#000000;stroke-width:0.8;" x="755.596458" xlink:href="#mb93cd4159e" y="493.428571"/>
      </g>
     </g>
    </g>
    <g id="ytick_35">
     <g id="line2d_113">
      <g>
       <use style="stroke:#000000;stroke-width:0.8;" x="755.596458" xlink:href="#mb93cd4159e" y="431.371429"/>
      </g>
     </g>
    </g>
    <g id="ytick_36">
     <g id="line2d_114">
      <g>
       <use style="stroke:#000000;stroke-width:0.8;" x="755.596458" xlink:href="#mb93cd4159e" y="369.314286"/>
      </g>
     </g>
    </g>
    <g id="text_32">
     <!-- SNL FP -->
     <g transform="translate(748.268958 544.18875)rotate(-90)scale(0.16 -0.16)">
      <use xlink:href="#DejaVuSans-83"/>
      <use x="63.476562" xlink:href="#DejaVuSans-78"/>
      <use x="138.28125" xlink:href="#DejaVuSans-76"/>
      <use x="193.994141" xlink:href="#DejaVuSans-32"/>
      <use x="225.78125" xlink:href="#DejaVuSans-70"/>
      <use x="283.300781" xlink:href="#DejaVuSans-80"/>
     </g>
    </g>
   </g>
   <g id="line2d_115">
    <path clip-path="url(#p39540fe7b2)" d="M 776.714236 679.6 
L 776.714236 679.6 
" style="fill:none;stroke:#424242;stroke-linecap:square;stroke-width:2.7;"/>
   </g>
   <g id="line2d_116">
    <path clip-path="url(#p39540fe7b2)" d="M 882.303125 679.6 
L 882.303125 679.6 
" style="fill:none;stroke:#424242;stroke-linecap:square;stroke-width:2.7;"/>
   </g>
   <g id="line2d_117">
    <path clip-path="url(#p39540fe7b2)" d="M 987.892014 679.6 
L 987.892014 679.6 
" style="fill:none;stroke:#424242;stroke-linecap:square;stroke-width:2.7;"/>
   </g>
   <g id="line2d_118">
    <path clip-path="url(#p39540fe7b2)" d="M 797.832014 679.6 
L 797.832014 679.6 
" style="fill:none;stroke:#424242;stroke-linecap:square;stroke-width:2.7;"/>
   </g>
   <g id="line2d_119">
    <path clip-path="url(#p39540fe7b2)" d="M 903.420903 679.6 
L 903.420903 679.6 
" style="fill:none;stroke:#424242;stroke-linecap:square;stroke-width:2.7;"/>
   </g>
   <g id="line2d_120">
    <path clip-path="url(#p39540fe7b2)" d="M 1009.009792 679.6 
L 1009.009792 679.6 
" style="fill:none;stroke:#424242;stroke-linecap:square;stroke-width:2.7;"/>
   </g>
   <g id="line2d_121">
    <path clip-path="url(#p39540fe7b2)" d="M 818.949792 679.6 
L 818.949792 679.6 
" style="fill:none;stroke:#424242;stroke-linecap:square;stroke-width:2.7;"/>
   </g>
   <g id="line2d_122">
    <path clip-path="url(#p39540fe7b2)" d="M 924.538681 679.6 
L 924.538681 679.6 
" style="fill:none;stroke:#424242;stroke-linecap:square;stroke-width:2.7;"/>
   </g>
   <g id="line2d_123">
    <path clip-path="url(#p39540fe7b2)" d="M 1030.127569 679.6 
L 1030.127569 679.6 
" style="fill:none;stroke:#424242;stroke-linecap:square;stroke-width:2.7;"/>
   </g>
   <g id="line2d_124">
    <path clip-path="url(#p39540fe7b2)" d="M 840.067569 679.6 
L 840.067569 679.6 
" style="fill:none;stroke:#424242;stroke-linecap:square;stroke-width:2.7;"/>
   </g>
   <g id="line2d_125">
    <path clip-path="url(#p39540fe7b2)" d="M 945.656458 679.6 
L 945.656458 679.6 
" style="fill:none;stroke:#424242;stroke-linecap:square;stroke-width:2.7;"/>
   </g>
   <g id="line2d_126">
    <path clip-path="url(#p39540fe7b2)" d="M 1051.245347 679.6 
L 1051.245347 679.6 
" style="fill:none;stroke:#424242;stroke-linecap:square;stroke-width:2.7;"/>
   </g>
   <g id="patch_105">
    <path d="M 755.596458 679.6 
L 755.596458 353.8 
" style="fill:none;stroke:#000000;stroke-linecap:square;stroke-linejoin:miter;stroke-width:0.8;"/>
   </g>
   <g id="patch_106">
    <path d="M 1072.363125 679.6 
L 1072.363125 353.8 
" style="fill:none;stroke:#000000;stroke-linecap:square;stroke-linejoin:miter;stroke-width:0.8;"/>
   </g>
   <g id="patch_107">
    <path d="M 755.596458 679.6 
L 1072.363125 679.6 
" style="fill:none;stroke:#000000;stroke-linecap:square;stroke-linejoin:miter;stroke-width:0.8;"/>
   </g>
   <g id="patch_108">
    <path d="M 755.596458 353.8 
L 1072.363125 353.8 
" style="fill:none;stroke:#000000;stroke-linecap:square;stroke-linejoin:miter;stroke-width:0.8;"/>
   </g>
  </g>
 </g>
 <defs>
  <clipPath id="pdb46a0b923">
   <rect height="325.8" width="316.766667" x="49.588125" y="7.2"/>
  </clipPath>
  <clipPath id="pf4dcb3dee6">
   <rect height="325.8" width="316.766667" x="402.592292" y="7.2"/>
  </clipPath>
  <clipPath id="p298b01e392">
   <rect height="325.8" width="316.766667" x="755.596458" y="7.2"/>
  </clipPath>
  <clipPath id="p172f97ddd9">
   <rect height="325.8" width="316.766667" x="49.588125" y="353.8"/>
  </clipPath>
  <clipPath id="p6af7b35918">
   <rect height="325.8" width="316.766667" x="402.592292" y="353.8"/>
  </clipPath>
  <clipPath id="p39540fe7b2">
   <rect height="325.8" width="316.766667" x="755.596458" y="353.8"/>
  </clipPath>
 </defs>
</svg>
