<?xml version="1.0" encoding="utf-8" standalone="no"?>
<!DOCTYPE svg PUBLIC "-//W3C//DTD SVG 1.1//EN"
  "http://www.w3.org/Graphics/SVG/1.1/DTD/svg11.dtd">
<!-- Created with matplotlib (https://matplotlib.org/) -->
<svg height="772.134768pt" version="1.1" viewBox="0 0 1079.563125 772.134768" width="1079.563125pt" xmlns="http://www.w3.org/2000/svg" xmlns:xlink="http://www.w3.org/1999/xlink">
 <metadata>
  <rdf:RDF xmlns:cc="http://creativecommons.org/ns#" xmlns:dc="http://purl.org/dc/elements/1.1/" xmlns:rdf="http://www.w3.org/1999/02/22-rdf-syntax-ns#">
   <cc:Work>
    <dc:type rdf:resource="http://purl.org/dc/dcmitype/StillImage"/>
    <dc:date>2021-05-04T14:29:23.914936</dc:date>
    <dc:format>image/svg+xml</dc:format>
    <dc:creator>
     <cc:Agent>
      <dc:title>Matplotlib v3.3.3, https://matplotlib.org/</dc:title>
     </cc:Agent>
    </dc:creator>
   </cc:Work>
  </rdf:RDF>
 </metadata>
 <defs>
  <style type="text/css">*{stroke-linecap:butt;stroke-linejoin:round;}</style>
 </defs>
 <g id="figure_1">
  <g id="patch_1">
   <path d="M 0 772.134768 
L 1079.563125 772.134768 
L 1079.563125 0 
L 0 0 
z
" style="fill:none;"/>
  </g>
  <g id="axes_1">
   <g id="patch_2">
    <path d="M 49.588125 336.799219 
L 366.354792 336.799219 
L 366.354792 10.999219 
L 49.588125 10.999219 
z
" style="fill:#ffffff;"/>
   </g>
   <g id="patch_3">
    <path clip-path="url(#pd552977db1)" d="M 60.147014 336.799219 
L 81.264792 336.799219 
L 81.264792 299.860443 
L 60.147014 299.860443 
z
" style="fill:#3274a1;"/>
   </g>
   <g id="patch_4">
    <path clip-path="url(#pd552977db1)" d="M 165.735903 336.799219 
L 186.853681 336.799219 
L 186.853681 228.445477 
L 165.735903 228.445477 
z
" style="fill:#3274a1;"/>
   </g>
   <g id="patch_5">
    <path clip-path="url(#pd552977db1)" d="M 271.324792 336.799219 
L 292.442569 336.799219 
L 292.442569 299.860443 
L 271.324792 299.860443 
z
" style="fill:#3274a1;"/>
   </g>
   <g id="patch_6">
    <path clip-path="url(#pd552977db1)" d="M 81.264792 336.799219 
L 102.382569 336.799219 
L 102.382569 290.164015 
L 81.264792 290.164015 
z
" style="fill:#e1812c;"/>
   </g>
   <g id="patch_7">
    <path clip-path="url(#pd552977db1)" d="M 186.853681 336.799219 
L 207.971458 336.799219 
L 207.971458 187.812824 
L 186.853681 187.812824 
z
" style="fill:#e1812c;"/>
   </g>
   <g id="patch_8">
    <path clip-path="url(#pd552977db1)" d="M 292.442569 336.799219 
L 313.560347 336.799219 
L 313.560347 274.0033 
L 292.442569 274.0033 
z
" style="fill:#e1812c;"/>
   </g>
   <g id="patch_9">
    <path clip-path="url(#pd552977db1)" d="M 102.382569 336.799219 
L 123.500347 336.799219 
L 123.500347 290.164015 
L 102.382569 290.164015 
z
" style="fill:#3a923a;"/>
   </g>
   <g id="patch_10">
    <path clip-path="url(#pd552977db1)" d="M 207.971458 336.799219 
L 229.089236 336.799219 
L 229.089236 220.134253 
L 207.971458 220.134253 
z
" style="fill:#3a923a;"/>
   </g>
   <g id="patch_11">
    <path clip-path="url(#pd552977db1)" d="M 313.560347 336.799219 
L 334.678125 336.799219 
L 334.678125 274.0033 
L 313.560347 274.0033 
z
" style="fill:#3a923a;"/>
   </g>
   <g id="patch_12">
    <path clip-path="url(#pd552977db1)" d="M 123.500347 336.799219 
L 144.618125 336.799219 
L 144.618125 277.235443 
L 123.500347 277.235443 
z
" style="fill:#c03d3e;"/>
   </g>
   <g id="patch_13">
    <path clip-path="url(#pd552977db1)" d="M 229.089236 336.799219 
L 250.207014 336.799219 
L 250.207014 248.146158 
L 229.089236 248.146158 
z
" style="fill:#c03d3e;"/>
   </g>
   <g id="patch_14">
    <path clip-path="url(#pd552977db1)" d="M 334.678125 336.799219 
L 355.795903 336.799219 
L 355.795903 274.0033 
L 334.678125 274.0033 
z
" style="fill:#c03d3e;"/>
   </g>
   <g id="matplotlib.axis_1">
    <g id="xtick_1">
     <g id="line2d_1">
      <defs>
       <path d="M 0 0 
L 0 3.5 
" id="m19de42053a" style="stroke:#000000;stroke-width:0.8;"/>
      </defs>
      <g>
       <use style="stroke:#000000;stroke-width:0.8;" x="102.382569" xlink:href="#m19de42053a" y="336.799219"/>
      </g>
     </g>
    </g>
    <g id="xtick_2">
     <g id="line2d_2">
      <g>
       <use style="stroke:#000000;stroke-width:0.8;" x="207.971458" xlink:href="#m19de42053a" y="336.799219"/>
      </g>
     </g>
    </g>
    <g id="xtick_3">
     <g id="line2d_3">
      <g>
       <use style="stroke:#000000;stroke-width:0.8;" x="313.560347" xlink:href="#m19de42053a" y="336.799219"/>
      </g>
     </g>
    </g>
   </g>
   <g id="matplotlib.axis_2">
    <g id="ytick_1">
     <g id="line2d_4">
      <defs>
       <path d="M 0 0 
L -3.5 0 
" id="mca1caf1b9a" style="stroke:#000000;stroke-width:0.8;"/>
      </defs>
      <g>
       <use style="stroke:#000000;stroke-width:0.8;" x="49.588125" xlink:href="#mca1caf1b9a" y="336.799219"/>
      </g>
     </g>
     <g id="text_1">
      <!-- 0.0 -->
      <g transform="translate(26.685 340.598438)scale(0.1 -0.1)">
       <defs>
        <path d="M 31.78125 66.40625 
Q 24.171875 66.40625 20.328125 58.90625 
Q 16.5 51.421875 16.5 36.375 
Q 16.5 21.390625 20.328125 13.890625 
Q 24.171875 6.390625 31.78125 6.390625 
Q 39.453125 6.390625 43.28125 13.890625 
Q 47.125 21.390625 47.125 36.375 
Q 47.125 51.421875 43.28125 58.90625 
Q 39.453125 66.40625 31.78125 66.40625 
z
M 31.78125 74.21875 
Q 44.046875 74.21875 50.515625 64.515625 
Q 56.984375 54.828125 56.984375 36.375 
Q 56.984375 17.96875 50.515625 8.265625 
Q 44.046875 -1.421875 31.78125 -1.421875 
Q 19.53125 -1.421875 13.0625 8.265625 
Q 6.59375 17.96875 6.59375 36.375 
Q 6.59375 54.828125 13.0625 64.515625 
Q 19.53125 74.21875 31.78125 74.21875 
z
" id="DejaVuSans-48"/>
        <path d="M 10.6875 12.40625 
L 21 12.40625 
L 21 0 
L 10.6875 0 
z
" id="DejaVuSans-46"/>
       </defs>
       <use xlink:href="#DejaVuSans-48"/>
       <use x="63.623047" xlink:href="#DejaVuSans-46"/>
       <use x="95.410156" xlink:href="#DejaVuSans-48"/>
      </g>
     </g>
    </g>
    <g id="ytick_2">
     <g id="line2d_5">
      <g>
       <use style="stroke:#000000;stroke-width:0.8;" x="49.588125" xlink:href="#mca1caf1b9a" y="290.256362"/>
      </g>
     </g>
     <g id="text_2">
      <!-- 0.1 -->
      <g transform="translate(26.685 294.05558)scale(0.1 -0.1)">
       <defs>
        <path d="M 12.40625 8.296875 
L 28.515625 8.296875 
L 28.515625 63.921875 
L 10.984375 60.40625 
L 10.984375 69.390625 
L 28.421875 72.90625 
L 38.28125 72.90625 
L 38.28125 8.296875 
L 54.390625 8.296875 
L 54.390625 0 
L 12.40625 0 
z
" id="DejaVuSans-49"/>
       </defs>
       <use xlink:href="#DejaVuSans-48"/>
       <use x="63.623047" xlink:href="#DejaVuSans-46"/>
       <use x="95.410156" xlink:href="#DejaVuSans-49"/>
      </g>
     </g>
    </g>
    <g id="ytick_3">
     <g id="line2d_6">
      <g>
       <use style="stroke:#000000;stroke-width:0.8;" x="49.588125" xlink:href="#mca1caf1b9a" y="243.713504"/>
      </g>
     </g>
     <g id="text_3">
      <!-- 0.2 -->
      <g transform="translate(26.685 247.512723)scale(0.1 -0.1)">
       <defs>
        <path d="M 19.1875 8.296875 
L 53.609375 8.296875 
L 53.609375 0 
L 7.328125 0 
L 7.328125 8.296875 
Q 12.9375 14.109375 22.625 23.890625 
Q 32.328125 33.6875 34.8125 36.53125 
Q 39.546875 41.84375 41.421875 45.53125 
Q 43.3125 49.21875 43.3125 52.78125 
Q 43.3125 58.59375 39.234375 62.25 
Q 35.15625 65.921875 28.609375 65.921875 
Q 23.96875 65.921875 18.8125 64.3125 
Q 13.671875 62.703125 7.8125 59.421875 
L 7.8125 69.390625 
Q 13.765625 71.78125 18.9375 73 
Q 24.125 74.21875 28.421875 74.21875 
Q 39.75 74.21875 46.484375 68.546875 
Q 53.21875 62.890625 53.21875 53.421875 
Q 53.21875 48.921875 51.53125 44.890625 
Q 49.859375 40.875 45.40625 35.40625 
Q 44.1875 33.984375 37.640625 27.21875 
Q 31.109375 20.453125 19.1875 8.296875 
z
" id="DejaVuSans-50"/>
       </defs>
       <use xlink:href="#DejaVuSans-48"/>
       <use x="63.623047" xlink:href="#DejaVuSans-46"/>
       <use x="95.410156" xlink:href="#DejaVuSans-50"/>
      </g>
     </g>
    </g>
    <g id="ytick_4">
     <g id="line2d_7">
      <g>
       <use style="stroke:#000000;stroke-width:0.8;" x="49.588125" xlink:href="#mca1caf1b9a" y="197.170647"/>
      </g>
     </g>
     <g id="text_4">
      <!-- 0.3 -->
      <g transform="translate(26.685 200.969866)scale(0.1 -0.1)">
       <defs>
        <path d="M 40.578125 39.3125 
Q 47.65625 37.796875 51.625 33 
Q 55.609375 28.21875 55.609375 21.1875 
Q 55.609375 10.40625 48.1875 4.484375 
Q 40.765625 -1.421875 27.09375 -1.421875 
Q 22.515625 -1.421875 17.65625 -0.515625 
Q 12.796875 0.390625 7.625 2.203125 
L 7.625 11.71875 
Q 11.71875 9.328125 16.59375 8.109375 
Q 21.484375 6.890625 26.8125 6.890625 
Q 36.078125 6.890625 40.9375 10.546875 
Q 45.796875 14.203125 45.796875 21.1875 
Q 45.796875 27.640625 41.28125 31.265625 
Q 36.765625 34.90625 28.71875 34.90625 
L 20.21875 34.90625 
L 20.21875 43.015625 
L 29.109375 43.015625 
Q 36.375 43.015625 40.234375 45.921875 
Q 44.09375 48.828125 44.09375 54.296875 
Q 44.09375 59.90625 40.109375 62.90625 
Q 36.140625 65.921875 28.71875 65.921875 
Q 24.65625 65.921875 20.015625 65.03125 
Q 15.375 64.15625 9.8125 62.3125 
L 9.8125 71.09375 
Q 15.4375 72.65625 20.34375 73.4375 
Q 25.25 74.21875 29.59375 74.21875 
Q 40.828125 74.21875 47.359375 69.109375 
Q 53.90625 64.015625 53.90625 55.328125 
Q 53.90625 49.265625 50.4375 45.09375 
Q 46.96875 40.921875 40.578125 39.3125 
z
" id="DejaVuSans-51"/>
       </defs>
       <use xlink:href="#DejaVuSans-48"/>
       <use x="63.623047" xlink:href="#DejaVuSans-46"/>
       <use x="95.410156" xlink:href="#DejaVuSans-51"/>
      </g>
     </g>
    </g>
    <g id="ytick_5">
     <g id="line2d_8">
      <g>
       <use style="stroke:#000000;stroke-width:0.8;" x="49.588125" xlink:href="#mca1caf1b9a" y="150.62779"/>
      </g>
     </g>
     <g id="text_5">
      <!-- 0.4 -->
      <g transform="translate(26.685 154.427009)scale(0.1 -0.1)">
       <defs>
        <path d="M 37.796875 64.3125 
L 12.890625 25.390625 
L 37.796875 25.390625 
z
M 35.203125 72.90625 
L 47.609375 72.90625 
L 47.609375 25.390625 
L 58.015625 25.390625 
L 58.015625 17.1875 
L 47.609375 17.1875 
L 47.609375 0 
L 37.796875 0 
L 37.796875 17.1875 
L 4.890625 17.1875 
L 4.890625 26.703125 
z
" id="DejaVuSans-52"/>
       </defs>
       <use xlink:href="#DejaVuSans-48"/>
       <use x="63.623047" xlink:href="#DejaVuSans-46"/>
       <use x="95.410156" xlink:href="#DejaVuSans-52"/>
      </g>
     </g>
    </g>
    <g id="ytick_6">
     <g id="line2d_9">
      <g>
       <use style="stroke:#000000;stroke-width:0.8;" x="49.588125" xlink:href="#mca1caf1b9a" y="104.084933"/>
      </g>
     </g>
     <g id="text_6">
      <!-- 0.5 -->
      <g transform="translate(26.685 107.884152)scale(0.1 -0.1)">
       <defs>
        <path d="M 10.796875 72.90625 
L 49.515625 72.90625 
L 49.515625 64.59375 
L 19.828125 64.59375 
L 19.828125 46.734375 
Q 21.96875 47.46875 24.109375 47.828125 
Q 26.265625 48.1875 28.421875 48.1875 
Q 40.625 48.1875 47.75 41.5 
Q 54.890625 34.8125 54.890625 23.390625 
Q 54.890625 11.625 47.5625 5.09375 
Q 40.234375 -1.421875 26.90625 -1.421875 
Q 22.3125 -1.421875 17.546875 -0.640625 
Q 12.796875 0.140625 7.71875 1.703125 
L 7.71875 11.625 
Q 12.109375 9.234375 16.796875 8.0625 
Q 21.484375 6.890625 26.703125 6.890625 
Q 35.15625 6.890625 40.078125 11.328125 
Q 45.015625 15.765625 45.015625 23.390625 
Q 45.015625 31 40.078125 35.4375 
Q 35.15625 39.890625 26.703125 39.890625 
Q 22.75 39.890625 18.8125 39.015625 
Q 14.890625 38.140625 10.796875 36.28125 
z
" id="DejaVuSans-53"/>
       </defs>
       <use xlink:href="#DejaVuSans-48"/>
       <use x="63.623047" xlink:href="#DejaVuSans-46"/>
       <use x="95.410156" xlink:href="#DejaVuSans-53"/>
      </g>
     </g>
    </g>
    <g id="ytick_7">
     <g id="line2d_10">
      <g>
       <use style="stroke:#000000;stroke-width:0.8;" x="49.588125" xlink:href="#mca1caf1b9a" y="57.542076"/>
      </g>
     </g>
     <g id="text_7">
      <!-- 0.6 -->
      <g transform="translate(26.685 61.341295)scale(0.1 -0.1)">
       <defs>
        <path d="M 33.015625 40.375 
Q 26.375 40.375 22.484375 35.828125 
Q 18.609375 31.296875 18.609375 23.390625 
Q 18.609375 15.53125 22.484375 10.953125 
Q 26.375 6.390625 33.015625 6.390625 
Q 39.65625 6.390625 43.53125 10.953125 
Q 47.40625 15.53125 47.40625 23.390625 
Q 47.40625 31.296875 43.53125 35.828125 
Q 39.65625 40.375 33.015625 40.375 
z
M 52.59375 71.296875 
L 52.59375 62.3125 
Q 48.875 64.0625 45.09375 64.984375 
Q 41.3125 65.921875 37.59375 65.921875 
Q 27.828125 65.921875 22.671875 59.328125 
Q 17.53125 52.734375 16.796875 39.40625 
Q 19.671875 43.65625 24.015625 45.921875 
Q 28.375 48.1875 33.59375 48.1875 
Q 44.578125 48.1875 50.953125 41.515625 
Q 57.328125 34.859375 57.328125 23.390625 
Q 57.328125 12.15625 50.6875 5.359375 
Q 44.046875 -1.421875 33.015625 -1.421875 
Q 20.359375 -1.421875 13.671875 8.265625 
Q 6.984375 17.96875 6.984375 36.375 
Q 6.984375 53.65625 15.1875 63.9375 
Q 23.390625 74.21875 37.203125 74.21875 
Q 40.921875 74.21875 44.703125 73.484375 
Q 48.484375 72.75 52.59375 71.296875 
z
" id="DejaVuSans-54"/>
       </defs>
       <use xlink:href="#DejaVuSans-48"/>
       <use x="63.623047" xlink:href="#DejaVuSans-46"/>
       <use x="95.410156" xlink:href="#DejaVuSans-54"/>
      </g>
     </g>
    </g>
    <g id="ytick_8">
     <g id="line2d_11">
      <g>
       <use style="stroke:#000000;stroke-width:0.8;" x="49.588125" xlink:href="#mca1caf1b9a" y="10.999219"/>
      </g>
     </g>
     <g id="text_8">
      <!-- 0.7 -->
      <g transform="translate(26.685 14.798438)scale(0.1 -0.1)">
       <defs>
        <path d="M 8.203125 72.90625 
L 55.078125 72.90625 
L 55.078125 68.703125 
L 28.609375 0 
L 18.3125 0 
L 43.21875 64.59375 
L 8.203125 64.59375 
z
" id="DejaVuSans-55"/>
       </defs>
       <use xlink:href="#DejaVuSans-48"/>
       <use x="63.623047" xlink:href="#DejaVuSans-46"/>
       <use x="95.410156" xlink:href="#DejaVuSans-55"/>
      </g>
     </g>
    </g>
    <g id="text_9">
     <!-- AD FN -->
     <g transform="translate(19.3575 198.660469)rotate(-90)scale(0.16 -0.16)">
      <defs>
       <path d="M 34.1875 63.1875 
L 20.796875 26.90625 
L 47.609375 26.90625 
z
M 28.609375 72.90625 
L 39.796875 72.90625 
L 67.578125 0 
L 57.328125 0 
L 50.6875 18.703125 
L 17.828125 18.703125 
L 11.1875 0 
L 0.78125 0 
z
" id="DejaVuSans-65"/>
       <path d="M 19.671875 64.796875 
L 19.671875 8.109375 
L 31.59375 8.109375 
Q 46.6875 8.109375 53.6875 14.9375 
Q 60.6875 21.78125 60.6875 36.53125 
Q 60.6875 51.171875 53.6875 57.984375 
Q 46.6875 64.796875 31.59375 64.796875 
z
M 9.8125 72.90625 
L 30.078125 72.90625 
Q 51.265625 72.90625 61.171875 64.09375 
Q 71.09375 55.28125 71.09375 36.53125 
Q 71.09375 17.671875 61.125 8.828125 
Q 51.171875 0 30.078125 0 
L 9.8125 0 
z
" id="DejaVuSans-68"/>
       <path id="DejaVuSans-32"/>
       <path d="M 9.8125 72.90625 
L 51.703125 72.90625 
L 51.703125 64.59375 
L 19.671875 64.59375 
L 19.671875 43.109375 
L 48.578125 43.109375 
L 48.578125 34.8125 
L 19.671875 34.8125 
L 19.671875 0 
L 9.8125 0 
z
" id="DejaVuSans-70"/>
       <path d="M 9.8125 72.90625 
L 23.09375 72.90625 
L 55.421875 11.921875 
L 55.421875 72.90625 
L 64.984375 72.90625 
L 64.984375 0 
L 51.703125 0 
L 19.390625 60.984375 
L 19.390625 0 
L 9.8125 0 
z
" id="DejaVuSans-78"/>
      </defs>
      <use xlink:href="#DejaVuSans-65"/>
      <use x="68.408203" xlink:href="#DejaVuSans-68"/>
      <use x="145.410156" xlink:href="#DejaVuSans-32"/>
      <use x="177.197266" xlink:href="#DejaVuSans-70"/>
      <use x="234.716797" xlink:href="#DejaVuSans-78"/>
     </g>
    </g>
   </g>
   <g id="line2d_12">
    <path clip-path="url(#pd552977db1)" d="M 70.705903 336.799219 
L 70.705903 248.146158 
" style="fill:none;stroke:#424242;stroke-linecap:square;stroke-width:2.7;"/>
   </g>
   <g id="line2d_13">
    <path clip-path="url(#pd552977db1)" d="M 176.294792 288.778811 
L 176.294792 171.806021 
" style="fill:none;stroke:#424242;stroke-linecap:square;stroke-width:2.7;"/>
   </g>
   <g id="line2d_14">
    <path clip-path="url(#pd552977db1)" d="M 281.883681 336.799219 
L 281.883681 248.146158 
" style="fill:none;stroke:#424242;stroke-linecap:square;stroke-width:2.7;"/>
   </g>
   <g id="line2d_15">
    <path clip-path="url(#pd552977db1)" d="M 91.823681 327.10279 
L 91.823681 248.146158 
" style="fill:none;stroke:#424242;stroke-linecap:square;stroke-width:2.7;"/>
   </g>
   <g id="line2d_16">
    <path clip-path="url(#pd552977db1)" d="M 197.412569 274.0033 
L 197.412569 93.0033 
" style="fill:none;stroke:#424242;stroke-linecap:square;stroke-width:2.7;"/>
   </g>
   <g id="line2d_17">
    <path clip-path="url(#pd552977db1)" d="M 303.001458 325.717586 
L 303.001458 222.289015 
" style="fill:none;stroke:#424242;stroke-linecap:square;stroke-width:2.7;"/>
   </g>
   <g id="line2d_18">
    <path clip-path="url(#pd552977db1)" d="M 112.941458 327.10279 
L 112.941458 239.834933 
" style="fill:none;stroke:#424242;stroke-linecap:square;stroke-width:2.7;"/>
   </g>
   <g id="line2d_19">
    <path clip-path="url(#pd552977db1)" d="M 218.530347 275.86563 
L 218.530347 170.882552 
" style="fill:none;stroke:#424242;stroke-linecap:square;stroke-width:2.7;"/>
   </g>
   <g id="line2d_20">
    <path clip-path="url(#pd552977db1)" d="M 324.119236 325.717586 
L 324.119236 222.289015 
" style="fill:none;stroke:#424242;stroke-linecap:square;stroke-width:2.7;"/>
   </g>
   <g id="line2d_21">
    <path clip-path="url(#pd552977db1)" d="M 134.059236 327.10279 
L 134.059236 209.360443 
" style="fill:none;stroke:#424242;stroke-linecap:square;stroke-width:2.7;"/>
   </g>
   <g id="line2d_22">
    <path clip-path="url(#pd552977db1)" d="M 239.648125 299.860443 
L 239.648125 196.431872 
" style="fill:none;stroke:#424242;stroke-linecap:square;stroke-width:2.7;"/>
   </g>
   <g id="line2d_23">
    <path clip-path="url(#pd552977db1)" d="M 345.237014 325.717586 
L 345.237014 211.115035 
" style="fill:none;stroke:#424242;stroke-linecap:square;stroke-width:2.7;"/>
   </g>
   <g id="patch_15">
    <path d="M 49.588125 336.799219 
L 49.588125 10.999219 
" style="fill:none;stroke:#000000;stroke-linecap:square;stroke-linejoin:miter;stroke-width:0.8;"/>
   </g>
   <g id="patch_16">
    <path d="M 366.354792 336.799219 
L 366.354792 10.999219 
" style="fill:none;stroke:#000000;stroke-linecap:square;stroke-linejoin:miter;stroke-width:0.8;"/>
   </g>
   <g id="patch_17">
    <path d="M 49.588125 336.799219 
L 366.354792 336.799219 
" style="fill:none;stroke:#000000;stroke-linecap:square;stroke-linejoin:miter;stroke-width:0.8;"/>
   </g>
   <g id="patch_18">
    <path d="M 49.588125 10.999219 
L 366.354792 10.999219 
" style="fill:none;stroke:#000000;stroke-linecap:square;stroke-linejoin:miter;stroke-width:0.8;"/>
   </g>
   <g id="legend_1">
    <g id="patch_19">
     <path d="M 293.462604 92.389844 
L 359.354792 92.389844 
Q 361.354792 92.389844 361.354792 90.389844 
L 361.354792 17.999219 
Q 361.354792 15.999219 359.354792 15.999219 
L 293.462604 15.999219 
Q 291.462604 15.999219 291.462604 17.999219 
L 291.462604 90.389844 
Q 291.462604 92.389844 293.462604 92.389844 
z
" style="fill:#ffffff;opacity:0.8;stroke:#cccccc;stroke-linejoin:miter;"/>
    </g>
    <g id="text_10">
     <!-- missing rate -->
     <g transform="translate(295.462604 27.597656)scale(0.1 -0.1)">
      <defs>
       <path d="M 52 44.1875 
Q 55.375 50.25 60.0625 53.125 
Q 64.75 56 71.09375 56 
Q 79.640625 56 84.28125 50.015625 
Q 88.921875 44.046875 88.921875 33.015625 
L 88.921875 0 
L 79.890625 0 
L 79.890625 32.71875 
Q 79.890625 40.578125 77.09375 44.375 
Q 74.3125 48.1875 68.609375 48.1875 
Q 61.625 48.1875 57.5625 43.546875 
Q 53.515625 38.921875 53.515625 30.90625 
L 53.515625 0 
L 44.484375 0 
L 44.484375 32.71875 
Q 44.484375 40.625 41.703125 44.40625 
Q 38.921875 48.1875 33.109375 48.1875 
Q 26.21875 48.1875 22.15625 43.53125 
Q 18.109375 38.875 18.109375 30.90625 
L 18.109375 0 
L 9.078125 0 
L 9.078125 54.6875 
L 18.109375 54.6875 
L 18.109375 46.1875 
Q 21.1875 51.21875 25.484375 53.609375 
Q 29.78125 56 35.6875 56 
Q 41.65625 56 45.828125 52.96875 
Q 50 49.953125 52 44.1875 
z
" id="DejaVuSans-109"/>
       <path d="M 9.421875 54.6875 
L 18.40625 54.6875 
L 18.40625 0 
L 9.421875 0 
z
M 9.421875 75.984375 
L 18.40625 75.984375 
L 18.40625 64.59375 
L 9.421875 64.59375 
z
" id="DejaVuSans-105"/>
       <path d="M 44.28125 53.078125 
L 44.28125 44.578125 
Q 40.484375 46.53125 36.375 47.5 
Q 32.28125 48.484375 27.875 48.484375 
Q 21.1875 48.484375 17.84375 46.4375 
Q 14.5 44.390625 14.5 40.28125 
Q 14.5 37.15625 16.890625 35.375 
Q 19.28125 33.59375 26.515625 31.984375 
L 29.59375 31.296875 
Q 39.15625 29.25 43.1875 25.515625 
Q 47.21875 21.78125 47.21875 15.09375 
Q 47.21875 7.46875 41.1875 3.015625 
Q 35.15625 -1.421875 24.609375 -1.421875 
Q 20.21875 -1.421875 15.453125 -0.5625 
Q 10.6875 0.296875 5.421875 2 
L 5.421875 11.28125 
Q 10.40625 8.6875 15.234375 7.390625 
Q 20.0625 6.109375 24.8125 6.109375 
Q 31.15625 6.109375 34.5625 8.28125 
Q 37.984375 10.453125 37.984375 14.40625 
Q 37.984375 18.0625 35.515625 20.015625 
Q 33.0625 21.96875 24.703125 23.78125 
L 21.578125 24.515625 
Q 13.234375 26.265625 9.515625 29.90625 
Q 5.8125 33.546875 5.8125 39.890625 
Q 5.8125 47.609375 11.28125 51.796875 
Q 16.75 56 26.8125 56 
Q 31.78125 56 36.171875 55.265625 
Q 40.578125 54.546875 44.28125 53.078125 
z
" id="DejaVuSans-115"/>
       <path d="M 54.890625 33.015625 
L 54.890625 0 
L 45.90625 0 
L 45.90625 32.71875 
Q 45.90625 40.484375 42.875 44.328125 
Q 39.84375 48.1875 33.796875 48.1875 
Q 26.515625 48.1875 22.3125 43.546875 
Q 18.109375 38.921875 18.109375 30.90625 
L 18.109375 0 
L 9.078125 0 
L 9.078125 54.6875 
L 18.109375 54.6875 
L 18.109375 46.1875 
Q 21.34375 51.125 25.703125 53.5625 
Q 30.078125 56 35.796875 56 
Q 45.21875 56 50.046875 50.171875 
Q 54.890625 44.34375 54.890625 33.015625 
z
" id="DejaVuSans-110"/>
       <path d="M 45.40625 27.984375 
Q 45.40625 37.75 41.375 43.109375 
Q 37.359375 48.484375 30.078125 48.484375 
Q 22.859375 48.484375 18.828125 43.109375 
Q 14.796875 37.75 14.796875 27.984375 
Q 14.796875 18.265625 18.828125 12.890625 
Q 22.859375 7.515625 30.078125 7.515625 
Q 37.359375 7.515625 41.375 12.890625 
Q 45.40625 18.265625 45.40625 27.984375 
z
M 54.390625 6.78125 
Q 54.390625 -7.171875 48.1875 -13.984375 
Q 42 -20.796875 29.203125 -20.796875 
Q 24.46875 -20.796875 20.265625 -20.09375 
Q 16.0625 -19.390625 12.109375 -17.921875 
L 12.109375 -9.1875 
Q 16.0625 -11.328125 19.921875 -12.34375 
Q 23.78125 -13.375 27.78125 -13.375 
Q 36.625 -13.375 41.015625 -8.765625 
Q 45.40625 -4.15625 45.40625 5.171875 
L 45.40625 9.625 
Q 42.625 4.78125 38.28125 2.390625 
Q 33.9375 0 27.875 0 
Q 17.828125 0 11.671875 7.65625 
Q 5.515625 15.328125 5.515625 27.984375 
Q 5.515625 40.671875 11.671875 48.328125 
Q 17.828125 56 27.875 56 
Q 33.9375 56 38.28125 53.609375 
Q 42.625 51.21875 45.40625 46.390625 
L 45.40625 54.6875 
L 54.390625 54.6875 
z
" id="DejaVuSans-103"/>
       <path d="M 41.109375 46.296875 
Q 39.59375 47.171875 37.8125 47.578125 
Q 36.03125 48 33.890625 48 
Q 26.265625 48 22.1875 43.046875 
Q 18.109375 38.09375 18.109375 28.8125 
L 18.109375 0 
L 9.078125 0 
L 9.078125 54.6875 
L 18.109375 54.6875 
L 18.109375 46.1875 
Q 20.953125 51.171875 25.484375 53.578125 
Q 30.03125 56 36.53125 56 
Q 37.453125 56 38.578125 55.875 
Q 39.703125 55.765625 41.0625 55.515625 
z
" id="DejaVuSans-114"/>
       <path d="M 34.28125 27.484375 
Q 23.390625 27.484375 19.1875 25 
Q 14.984375 22.515625 14.984375 16.5 
Q 14.984375 11.71875 18.140625 8.90625 
Q 21.296875 6.109375 26.703125 6.109375 
Q 34.1875 6.109375 38.703125 11.40625 
Q 43.21875 16.703125 43.21875 25.484375 
L 43.21875 27.484375 
z
M 52.203125 31.203125 
L 52.203125 0 
L 43.21875 0 
L 43.21875 8.296875 
Q 40.140625 3.328125 35.546875 0.953125 
Q 30.953125 -1.421875 24.3125 -1.421875 
Q 15.921875 -1.421875 10.953125 3.296875 
Q 6 8.015625 6 15.921875 
Q 6 25.140625 12.171875 29.828125 
Q 18.359375 34.515625 30.609375 34.515625 
L 43.21875 34.515625 
L 43.21875 35.40625 
Q 43.21875 41.609375 39.140625 45 
Q 35.0625 48.390625 27.6875 48.390625 
Q 23 48.390625 18.546875 47.265625 
Q 14.109375 46.140625 10.015625 43.890625 
L 10.015625 52.203125 
Q 14.9375 54.109375 19.578125 55.046875 
Q 24.21875 56 28.609375 56 
Q 40.484375 56 46.34375 49.84375 
Q 52.203125 43.703125 52.203125 31.203125 
z
" id="DejaVuSans-97"/>
       <path d="M 18.3125 70.21875 
L 18.3125 54.6875 
L 36.8125 54.6875 
L 36.8125 47.703125 
L 18.3125 47.703125 
L 18.3125 18.015625 
Q 18.3125 11.328125 20.140625 9.421875 
Q 21.96875 7.515625 27.59375 7.515625 
L 36.8125 7.515625 
L 36.8125 0 
L 27.59375 0 
Q 17.1875 0 13.234375 3.875 
Q 9.28125 7.765625 9.28125 18.015625 
L 9.28125 47.703125 
L 2.6875 47.703125 
L 2.6875 54.6875 
L 9.28125 54.6875 
L 9.28125 70.21875 
z
" id="DejaVuSans-116"/>
       <path d="M 56.203125 29.59375 
L 56.203125 25.203125 
L 14.890625 25.203125 
Q 15.484375 15.921875 20.484375 11.0625 
Q 25.484375 6.203125 34.421875 6.203125 
Q 39.59375 6.203125 44.453125 7.46875 
Q 49.3125 8.734375 54.109375 11.28125 
L 54.109375 2.78125 
Q 49.265625 0.734375 44.1875 -0.34375 
Q 39.109375 -1.421875 33.890625 -1.421875 
Q 20.796875 -1.421875 13.15625 6.1875 
Q 5.515625 13.8125 5.515625 26.8125 
Q 5.515625 40.234375 12.765625 48.109375 
Q 20.015625 56 32.328125 56 
Q 43.359375 56 49.78125 48.890625 
Q 56.203125 41.796875 56.203125 29.59375 
z
M 47.21875 32.234375 
Q 47.125 39.59375 43.09375 43.984375 
Q 39.0625 48.390625 32.421875 48.390625 
Q 24.90625 48.390625 20.390625 44.140625 
Q 15.875 39.890625 15.1875 32.171875 
z
" id="DejaVuSans-101"/>
      </defs>
      <use xlink:href="#DejaVuSans-109"/>
      <use x="97.412109" xlink:href="#DejaVuSans-105"/>
      <use x="125.195312" xlink:href="#DejaVuSans-115"/>
      <use x="177.294922" xlink:href="#DejaVuSans-115"/>
      <use x="229.394531" xlink:href="#DejaVuSans-105"/>
      <use x="257.177734" xlink:href="#DejaVuSans-110"/>
      <use x="320.556641" xlink:href="#DejaVuSans-103"/>
      <use x="384.033203" xlink:href="#DejaVuSans-32"/>
      <use x="415.820312" xlink:href="#DejaVuSans-114"/>
      <use x="456.933594" xlink:href="#DejaVuSans-97"/>
      <use x="518.212891" xlink:href="#DejaVuSans-116"/>
      <use x="557.421875" xlink:href="#DejaVuSans-101"/>
     </g>
    </g>
    <g id="patch_20">
     <path d="M 298.094635 42.275781 
L 318.094635 42.275781 
L 318.094635 35.275781 
L 298.094635 35.275781 
z
" style="fill:#3274a1;"/>
    </g>
    <g id="text_11">
     <!-- 0.0 -->
     <g transform="translate(326.094635 42.275781)scale(0.1 -0.1)">
      <use xlink:href="#DejaVuSans-48"/>
      <use x="63.623047" xlink:href="#DejaVuSans-46"/>
      <use x="95.410156" xlink:href="#DejaVuSans-48"/>
     </g>
    </g>
    <g id="patch_21">
     <path d="M 298.094635 56.953906 
L 318.094635 56.953906 
L 318.094635 49.953906 
L 298.094635 49.953906 
z
" style="fill:#e1812c;"/>
    </g>
    <g id="text_12">
     <!-- 0.125 -->
     <g transform="translate(326.094635 56.953906)scale(0.1 -0.1)">
      <use xlink:href="#DejaVuSans-48"/>
      <use x="63.623047" xlink:href="#DejaVuSans-46"/>
      <use x="95.410156" xlink:href="#DejaVuSans-49"/>
      <use x="159.033203" xlink:href="#DejaVuSans-50"/>
      <use x="222.65625" xlink:href="#DejaVuSans-53"/>
     </g>
    </g>
    <g id="patch_22">
     <path d="M 298.094635 71.632031 
L 318.094635 71.632031 
L 318.094635 64.632031 
L 298.094635 64.632031 
z
" style="fill:#3a923a;"/>
    </g>
    <g id="text_13">
     <!-- 0.25 -->
     <g transform="translate(326.094635 71.632031)scale(0.1 -0.1)">
      <use xlink:href="#DejaVuSans-48"/>
      <use x="63.623047" xlink:href="#DejaVuSans-46"/>
      <use x="95.410156" xlink:href="#DejaVuSans-50"/>
      <use x="159.033203" xlink:href="#DejaVuSans-53"/>
     </g>
    </g>
    <g id="patch_23">
     <path d="M 298.094635 86.310156 
L 318.094635 86.310156 
L 318.094635 79.310156 
L 298.094635 79.310156 
z
" style="fill:#c03d3e;"/>
    </g>
    <g id="text_14">
     <!-- 0.5 -->
     <g transform="translate(326.094635 86.310156)scale(0.1 -0.1)">
      <use xlink:href="#DejaVuSans-48"/>
      <use x="63.623047" xlink:href="#DejaVuSans-46"/>
      <use x="95.410156" xlink:href="#DejaVuSans-53"/>
     </g>
    </g>
   </g>
  </g>
  <g id="axes_2">
   <g id="patch_24">
    <path d="M 402.592292 336.799219 
L 719.358958 336.799219 
L 719.358958 10.999219 
L 402.592292 10.999219 
z
" style="fill:#ffffff;"/>
   </g>
   <g id="patch_25">
    <path clip-path="url(#p70badd99ef)" d="M 413.151181 336.799219 
L 434.268958 336.799219 
L 434.268958 298.013504 
L 413.151181 298.013504 
z
" style="fill:#3274a1;"/>
   </g>
   <g id="patch_26">
    <path clip-path="url(#p70badd99ef)" d="M 518.740069 336.799219 
L 539.857847 336.799219 
L 539.857847 268.924219 
L 518.740069 268.924219 
z
" style="fill:#3274a1;"/>
   </g>
   <g id="patch_27">
    <path clip-path="url(#p70badd99ef)" d="M 624.328958 336.799219 
L 645.446736 336.799219 
L 645.446736 298.013504 
L 624.328958 298.013504 
z
" style="fill:#3274a1;"/>
   </g>
   <g id="patch_28">
    <path clip-path="url(#p70badd99ef)" d="M 434.268958 336.799219 
L 455.386736 336.799219 
L 455.386736 298.013504 
L 434.268958 298.013504 
z
" style="fill:#e1812c;"/>
   </g>
   <g id="patch_29">
    <path clip-path="url(#p70badd99ef)" d="M 539.857847 336.799219 
L 560.975625 336.799219 
L 560.975625 259.22779 
L 539.857847 259.22779 
z
" style="fill:#e1812c;"/>
   </g>
   <g id="patch_30">
    <path clip-path="url(#p70badd99ef)" d="M 645.446736 336.799219 
L 666.564514 336.799219 
L 666.564514 259.22779 
L 645.446736 259.22779 
z
" style="fill:#e1812c;"/>
   </g>
   <g id="patch_31">
    <path clip-path="url(#p70badd99ef)" d="M 455.386736 336.799219 
L 476.504514 336.799219 
L 476.504514 298.013504 
L 455.386736 298.013504 
z
" style="fill:#3a923a;"/>
   </g>
   <g id="patch_32">
    <path clip-path="url(#p70badd99ef)" d="M 560.975625 336.799219 
L 582.093403 336.799219 
L 582.093403 181.656362 
L 560.975625 181.656362 
z
" style="fill:#3a923a;"/>
   </g>
   <g id="patch_33">
    <path clip-path="url(#p70badd99ef)" d="M 666.564514 336.799219 
L 687.682292 336.799219 
L 687.682292 259.22779 
L 666.564514 259.22779 
z
" style="fill:#3a923a;"/>
   </g>
   <g id="patch_34">
    <path clip-path="url(#p70badd99ef)" d="M 476.504514 336.799219 
L 497.622292 336.799219 
L 497.622292 298.013504 
L 476.504514 298.013504 
z
" style="fill:#c03d3e;"/>
   </g>
   <g id="patch_35">
    <path clip-path="url(#p70badd99ef)" d="M 582.093403 336.799219 
L 603.211181 336.799219 
L 603.211181 181.656362 
L 582.093403 181.656362 
z
" style="fill:#c03d3e;"/>
   </g>
   <g id="patch_36">
    <path clip-path="url(#p70badd99ef)" d="M 687.682292 336.799219 
L 708.800069 336.799219 
L 708.800069 259.22779 
L 687.682292 259.22779 
z
" style="fill:#c03d3e;"/>
   </g>
   <g id="matplotlib.axis_3">
    <g id="xtick_4">
     <g id="line2d_24">
      <g>
       <use style="stroke:#000000;stroke-width:0.8;" x="455.386736" xlink:href="#m19de42053a" y="336.799219"/>
      </g>
     </g>
    </g>
    <g id="xtick_5">
     <g id="line2d_25">
      <g>
       <use style="stroke:#000000;stroke-width:0.8;" x="560.975625" xlink:href="#m19de42053a" y="336.799219"/>
      </g>
     </g>
    </g>
    <g id="xtick_6">
     <g id="line2d_26">
      <g>
       <use style="stroke:#000000;stroke-width:0.8;" x="666.564514" xlink:href="#m19de42053a" y="336.799219"/>
      </g>
     </g>
    </g>
   </g>
   <g id="matplotlib.axis_4">
    <g id="ytick_9">
     <g id="line2d_27">
      <g>
       <use style="stroke:#000000;stroke-width:0.8;" x="402.592292" xlink:href="#mca1caf1b9a" y="336.799219"/>
      </g>
     </g>
    </g>
    <g id="ytick_10">
     <g id="line2d_28">
      <g>
       <use style="stroke:#000000;stroke-width:0.8;" x="402.592292" xlink:href="#mca1caf1b9a" y="290.256362"/>
      </g>
     </g>
    </g>
    <g id="ytick_11">
     <g id="line2d_29">
      <g>
       <use style="stroke:#000000;stroke-width:0.8;" x="402.592292" xlink:href="#mca1caf1b9a" y="243.713504"/>
      </g>
     </g>
    </g>
    <g id="ytick_12">
     <g id="line2d_30">
      <g>
       <use style="stroke:#000000;stroke-width:0.8;" x="402.592292" xlink:href="#mca1caf1b9a" y="197.170647"/>
      </g>
     </g>
    </g>
    <g id="ytick_13">
     <g id="line2d_31">
      <g>
       <use style="stroke:#000000;stroke-width:0.8;" x="402.592292" xlink:href="#mca1caf1b9a" y="150.62779"/>
      </g>
     </g>
    </g>
    <g id="ytick_14">
     <g id="line2d_32">
      <g>
       <use style="stroke:#000000;stroke-width:0.8;" x="402.592292" xlink:href="#mca1caf1b9a" y="104.084933"/>
      </g>
     </g>
    </g>
    <g id="ytick_15">
     <g id="line2d_33">
      <g>
       <use style="stroke:#000000;stroke-width:0.8;" x="402.592292" xlink:href="#mca1caf1b9a" y="57.542076"/>
      </g>
     </g>
    </g>
    <g id="ytick_16">
     <g id="line2d_34">
      <g>
       <use style="stroke:#000000;stroke-width:0.8;" x="402.592292" xlink:href="#mca1caf1b9a" y="10.999219"/>
      </g>
     </g>
    </g>
    <g id="text_15">
     <!-- DB FN -->
     <g transform="translate(395.264792 198.676719)rotate(-90)scale(0.16 -0.16)">
      <defs>
       <path d="M 19.671875 34.8125 
L 19.671875 8.109375 
L 35.5 8.109375 
Q 43.453125 8.109375 47.28125 11.40625 
Q 51.125 14.703125 51.125 21.484375 
Q 51.125 28.328125 47.28125 31.5625 
Q 43.453125 34.8125 35.5 34.8125 
z
M 19.671875 64.796875 
L 19.671875 42.828125 
L 34.28125 42.828125 
Q 41.5 42.828125 45.03125 45.53125 
Q 48.578125 48.25 48.578125 53.8125 
Q 48.578125 59.328125 45.03125 62.0625 
Q 41.5 64.796875 34.28125 64.796875 
z
M 9.8125 72.90625 
L 35.015625 72.90625 
Q 46.296875 72.90625 52.390625 68.21875 
Q 58.5 63.53125 58.5 54.890625 
Q 58.5 48.1875 55.375 44.234375 
Q 52.25 40.28125 46.1875 39.3125 
Q 53.46875 37.75 57.5 32.78125 
Q 61.53125 27.828125 61.53125 20.40625 
Q 61.53125 10.640625 54.890625 5.3125 
Q 48.25 0 35.984375 0 
L 9.8125 0 
z
" id="DejaVuSans-66"/>
      </defs>
      <use xlink:href="#DejaVuSans-68"/>
      <use x="77.001953" xlink:href="#DejaVuSans-66"/>
      <use x="145.605469" xlink:href="#DejaVuSans-32"/>
      <use x="177.392578" xlink:href="#DejaVuSans-70"/>
      <use x="234.912109" xlink:href="#DejaVuSans-78"/>
     </g>
    </g>
   </g>
   <g id="line2d_35">
    <path clip-path="url(#p70badd99ef)" d="M 423.710069 336.799219 
L 423.710069 220.442076 
" style="fill:none;stroke:#424242;stroke-linecap:square;stroke-width:2.7;"/>
   </g>
   <g id="line2d_36">
    <path clip-path="url(#p70badd99ef)" d="M 529.298958 336.799219 
L 529.298958 191.35279 
" style="fill:none;stroke:#424242;stroke-linecap:square;stroke-width:2.7;"/>
   </g>
   <g id="line2d_37">
    <path clip-path="url(#p70badd99ef)" d="M 634.887847 336.799219 
L 634.887847 220.442076 
" style="fill:none;stroke:#424242;stroke-linecap:square;stroke-width:2.7;"/>
   </g>
   <g id="line2d_38">
    <path clip-path="url(#p70badd99ef)" d="M 444.827847 336.799219 
L 444.827847 220.442076 
" style="fill:none;stroke:#424242;stroke-linecap:square;stroke-width:2.7;"/>
   </g>
   <g id="line2d_39">
    <path clip-path="url(#p70badd99ef)" d="M 550.416736 336.799219 
L 550.416736 181.656362 
" style="fill:none;stroke:#424242;stroke-linecap:square;stroke-width:2.7;"/>
   </g>
   <g id="line2d_40">
    <path clip-path="url(#p70badd99ef)" d="M 656.005625 336.799219 
L 656.005625 142.870647 
" style="fill:none;stroke:#424242;stroke-linecap:square;stroke-width:2.7;"/>
   </g>
   <g id="line2d_41">
    <path clip-path="url(#p70badd99ef)" d="M 465.945625 336.799219 
L 465.945625 220.442076 
" style="fill:none;stroke:#424242;stroke-linecap:square;stroke-width:2.7;"/>
   </g>
   <g id="line2d_42">
    <path clip-path="url(#p70badd99ef)" d="M 571.534514 298.013504 
L 571.534514 26.513504 
" style="fill:none;stroke:#424242;stroke-linecap:square;stroke-width:2.7;"/>
   </g>
   <g id="line2d_43">
    <path clip-path="url(#p70badd99ef)" d="M 677.123403 336.799219 
L 677.123403 181.656362 
" style="fill:none;stroke:#424242;stroke-linecap:square;stroke-width:2.7;"/>
   </g>
   <g id="line2d_44">
    <path clip-path="url(#p70badd99ef)" d="M 487.063403 336.799219 
L 487.063403 220.442076 
" style="fill:none;stroke:#424242;stroke-linecap:square;stroke-width:2.7;"/>
   </g>
   <g id="line2d_45">
    <path clip-path="url(#p70badd99ef)" d="M 592.652292 298.013504 
L 592.652292 26.513504 
" style="fill:none;stroke:#424242;stroke-linecap:square;stroke-width:2.7;"/>
   </g>
   <g id="line2d_46">
    <path clip-path="url(#p70badd99ef)" d="M 698.241181 336.799219 
L 698.241181 181.656362 
" style="fill:none;stroke:#424242;stroke-linecap:square;stroke-width:2.7;"/>
   </g>
   <g id="patch_37">
    <path d="M 402.592292 336.799219 
L 402.592292 10.999219 
" style="fill:none;stroke:#000000;stroke-linecap:square;stroke-linejoin:miter;stroke-width:0.8;"/>
   </g>
   <g id="patch_38">
    <path d="M 719.358958 336.799219 
L 719.358958 10.999219 
" style="fill:none;stroke:#000000;stroke-linecap:square;stroke-linejoin:miter;stroke-width:0.8;"/>
   </g>
   <g id="patch_39">
    <path d="M 402.592292 336.799219 
L 719.358958 336.799219 
" style="fill:none;stroke:#000000;stroke-linecap:square;stroke-linejoin:miter;stroke-width:0.8;"/>
   </g>
   <g id="patch_40">
    <path d="M 402.592292 10.999219 
L 719.358958 10.999219 
" style="fill:none;stroke:#000000;stroke-linecap:square;stroke-linejoin:miter;stroke-width:0.8;"/>
   </g>
  </g>
  <g id="axes_3">
   <g id="patch_41">
    <path d="M 755.596458 336.799219 
L 1072.363125 336.799219 
L 1072.363125 10.999219 
L 755.596458 10.999219 
z
" style="fill:#ffffff;"/>
   </g>
   <g id="patch_42">
    <path clip-path="url(#pf058e86ea1)" d="M 766.155347 336.799219 
L 787.273125 336.799219 
L 787.273125 336.799219 
L 766.155347 336.799219 
z
" style="fill:#3274a1;"/>
   </g>
   <g id="patch_43">
    <path clip-path="url(#pf058e86ea1)" d="M 871.744236 336.799219 
L 892.862014 336.799219 
L 892.862014 259.22779 
L 871.744236 259.22779 
z
" style="fill:#3274a1;"/>
   </g>
   <g id="patch_44">
    <path clip-path="url(#pf058e86ea1)" d="M 977.333125 336.799219 
L 998.450903 336.799219 
L 998.450903 336.799219 
L 977.333125 336.799219 
z
" style="fill:#3274a1;"/>
   </g>
   <g id="patch_45">
    <path clip-path="url(#pf058e86ea1)" d="M 787.273125 336.799219 
L 808.390903 336.799219 
L 808.390903 336.799219 
L 787.273125 336.799219 
z
" style="fill:#e1812c;"/>
   </g>
   <g id="patch_46">
    <path clip-path="url(#pf058e86ea1)" d="M 892.862014 336.799219 
L 913.979792 336.799219 
L 913.979792 259.22779 
L 892.862014 259.22779 
z
" style="fill:#e1812c;"/>
   </g>
   <g id="patch_47">
    <path clip-path="url(#pf058e86ea1)" d="M 998.450903 336.799219 
L 1019.568681 336.799219 
L 1019.568681 336.799219 
L 998.450903 336.799219 
z
" style="fill:#e1812c;"/>
   </g>
   <g id="patch_48">
    <path clip-path="url(#pf058e86ea1)" d="M 808.390903 336.799219 
L 829.508681 336.799219 
L 829.508681 336.799219 
L 808.390903 336.799219 
z
" style="fill:#3a923a;"/>
   </g>
   <g id="patch_49">
    <path clip-path="url(#pf058e86ea1)" d="M 913.979792 336.799219 
L 935.097569 336.799219 
L 935.097569 336.799219 
L 913.979792 336.799219 
z
" style="fill:#3a923a;"/>
   </g>
   <g id="patch_50">
    <path clip-path="url(#pf058e86ea1)" d="M 1019.568681 336.799219 
L 1040.686458 336.799219 
L 1040.686458 336.799219 
L 1019.568681 336.799219 
z
" style="fill:#3a923a;"/>
   </g>
   <g id="patch_51">
    <path clip-path="url(#pf058e86ea1)" d="M 829.508681 336.799219 
L 850.626458 336.799219 
L 850.626458 336.799219 
L 829.508681 336.799219 
z
" style="fill:#c03d3e;"/>
   </g>
   <g id="patch_52">
    <path clip-path="url(#pf058e86ea1)" d="M 935.097569 336.799219 
L 956.215347 336.799219 
L 956.215347 336.799219 
L 935.097569 336.799219 
z
" style="fill:#c03d3e;"/>
   </g>
   <g id="patch_53">
    <path clip-path="url(#pf058e86ea1)" d="M 1040.686458 336.799219 
L 1061.804236 336.799219 
L 1061.804236 336.799219 
L 1040.686458 336.799219 
z
" style="fill:#c03d3e;"/>
   </g>
   <g id="matplotlib.axis_5">
    <g id="xtick_7">
     <g id="line2d_47">
      <g>
       <use style="stroke:#000000;stroke-width:0.8;" x="808.390903" xlink:href="#m19de42053a" y="336.799219"/>
      </g>
     </g>
    </g>
    <g id="xtick_8">
     <g id="line2d_48">
      <g>
       <use style="stroke:#000000;stroke-width:0.8;" x="913.979792" xlink:href="#m19de42053a" y="336.799219"/>
      </g>
     </g>
    </g>
    <g id="xtick_9">
     <g id="line2d_49">
      <g>
       <use style="stroke:#000000;stroke-width:0.8;" x="1019.568681" xlink:href="#m19de42053a" y="336.799219"/>
      </g>
     </g>
    </g>
   </g>
   <g id="matplotlib.axis_6">
    <g id="ytick_17">
     <g id="line2d_50">
      <g>
       <use style="stroke:#000000;stroke-width:0.8;" x="755.596458" xlink:href="#mca1caf1b9a" y="336.799219"/>
      </g>
     </g>
    </g>
    <g id="ytick_18">
     <g id="line2d_51">
      <g>
       <use style="stroke:#000000;stroke-width:0.8;" x="755.596458" xlink:href="#mca1caf1b9a" y="290.256362"/>
      </g>
     </g>
    </g>
    <g id="ytick_19">
     <g id="line2d_52">
      <g>
       <use style="stroke:#000000;stroke-width:0.8;" x="755.596458" xlink:href="#mca1caf1b9a" y="243.713504"/>
      </g>
     </g>
    </g>
    <g id="ytick_20">
     <g id="line2d_53">
      <g>
       <use style="stroke:#000000;stroke-width:0.8;" x="755.596458" xlink:href="#mca1caf1b9a" y="197.170647"/>
      </g>
     </g>
    </g>
    <g id="ytick_21">
     <g id="line2d_54">
      <g>
       <use style="stroke:#000000;stroke-width:0.8;" x="755.596458" xlink:href="#mca1caf1b9a" y="150.62779"/>
      </g>
     </g>
    </g>
    <g id="ytick_22">
     <g id="line2d_55">
      <g>
       <use style="stroke:#000000;stroke-width:0.8;" x="755.596458" xlink:href="#mca1caf1b9a" y="104.084933"/>
      </g>
     </g>
    </g>
    <g id="ytick_23">
     <g id="line2d_56">
      <g>
       <use style="stroke:#000000;stroke-width:0.8;" x="755.596458" xlink:href="#mca1caf1b9a" y="57.542076"/>
      </g>
     </g>
    </g>
    <g id="ytick_24">
     <g id="line2d_57">
      <g>
       <use style="stroke:#000000;stroke-width:0.8;" x="755.596458" xlink:href="#mca1caf1b9a" y="10.999219"/>
      </g>
     </g>
    </g>
    <g id="text_16">
     <!-- SNL FN -->
     <g transform="translate(748.268958 202.549219)rotate(-90)scale(0.16 -0.16)">
      <defs>
       <path d="M 53.515625 70.515625 
L 53.515625 60.890625 
Q 47.90625 63.578125 42.921875 64.890625 
Q 37.9375 66.21875 33.296875 66.21875 
Q 25.25 66.21875 20.875 63.09375 
Q 16.5 59.96875 16.5 54.203125 
Q 16.5 49.359375 19.40625 46.890625 
Q 22.3125 44.4375 30.421875 42.921875 
L 36.375 41.703125 
Q 47.40625 39.59375 52.65625 34.296875 
Q 57.90625 29 57.90625 20.125 
Q 57.90625 9.515625 50.796875 4.046875 
Q 43.703125 -1.421875 29.984375 -1.421875 
Q 24.8125 -1.421875 18.96875 -0.25 
Q 13.140625 0.921875 6.890625 3.21875 
L 6.890625 13.375 
Q 12.890625 10.015625 18.65625 8.296875 
Q 24.421875 6.59375 29.984375 6.59375 
Q 38.421875 6.59375 43.015625 9.90625 
Q 47.609375 13.234375 47.609375 19.390625 
Q 47.609375 24.75 44.3125 27.78125 
Q 41.015625 30.8125 33.5 32.328125 
L 27.484375 33.5 
Q 16.453125 35.6875 11.515625 40.375 
Q 6.59375 45.0625 6.59375 53.421875 
Q 6.59375 63.09375 13.40625 68.65625 
Q 20.21875 74.21875 32.171875 74.21875 
Q 37.3125 74.21875 42.625 73.28125 
Q 47.953125 72.359375 53.515625 70.515625 
z
" id="DejaVuSans-83"/>
       <path d="M 9.8125 72.90625 
L 19.671875 72.90625 
L 19.671875 8.296875 
L 55.171875 8.296875 
L 55.171875 0 
L 9.8125 0 
z
" id="DejaVuSans-76"/>
      </defs>
      <use xlink:href="#DejaVuSans-83"/>
      <use x="63.476562" xlink:href="#DejaVuSans-78"/>
      <use x="138.28125" xlink:href="#DejaVuSans-76"/>
      <use x="193.994141" xlink:href="#DejaVuSans-32"/>
      <use x="225.78125" xlink:href="#DejaVuSans-70"/>
      <use x="283.300781" xlink:href="#DejaVuSans-78"/>
     </g>
    </g>
   </g>
   <g id="line2d_58">
    <path clip-path="url(#pf058e86ea1)" d="M 776.714236 336.799219 
L 776.714236 336.799219 
" style="fill:none;stroke:#424242;stroke-linecap:square;stroke-width:2.7;"/>
   </g>
   <g id="line2d_59">
    <path clip-path="url(#pf058e86ea1)" d="M 882.303125 336.799219 
L 882.303125 104.084933 
" style="fill:none;stroke:#424242;stroke-linecap:square;stroke-width:2.7;"/>
   </g>
   <g id="line2d_60">
    <path clip-path="url(#pf058e86ea1)" d="M 987.892014 336.799219 
L 987.892014 336.799219 
" style="fill:none;stroke:#424242;stroke-linecap:square;stroke-width:2.7;"/>
   </g>
   <g id="line2d_61">
    <path clip-path="url(#pf058e86ea1)" d="M 797.832014 336.799219 
L 797.832014 336.799219 
" style="fill:none;stroke:#424242;stroke-linecap:square;stroke-width:2.7;"/>
   </g>
   <g id="line2d_62">
    <path clip-path="url(#pf058e86ea1)" d="M 903.420903 336.799219 
L 903.420903 104.084933 
" style="fill:none;stroke:#424242;stroke-linecap:square;stroke-width:2.7;"/>
   </g>
   <g id="line2d_63">
    <path clip-path="url(#pf058e86ea1)" d="M 1009.009792 336.799219 
L 1009.009792 336.799219 
" style="fill:none;stroke:#424242;stroke-linecap:square;stroke-width:2.7;"/>
   </g>
   <g id="line2d_64">
    <path clip-path="url(#pf058e86ea1)" d="M 818.949792 336.799219 
L 818.949792 336.799219 
" style="fill:none;stroke:#424242;stroke-linecap:square;stroke-width:2.7;"/>
   </g>
   <g id="line2d_65">
    <path clip-path="url(#pf058e86ea1)" d="M 924.538681 336.799219 
L 924.538681 336.799219 
" style="fill:none;stroke:#424242;stroke-linecap:square;stroke-width:2.7;"/>
   </g>
   <g id="line2d_66">
    <path clip-path="url(#pf058e86ea1)" d="M 1030.127569 336.799219 
L 1030.127569 336.799219 
" style="fill:none;stroke:#424242;stroke-linecap:square;stroke-width:2.7;"/>
   </g>
   <g id="line2d_67">
    <path clip-path="url(#pf058e86ea1)" d="M 840.067569 336.799219 
L 840.067569 336.799219 
" style="fill:none;stroke:#424242;stroke-linecap:square;stroke-width:2.7;"/>
   </g>
   <g id="line2d_68">
    <path clip-path="url(#pf058e86ea1)" d="M 945.656458 336.799219 
L 945.656458 336.799219 
" style="fill:none;stroke:#424242;stroke-linecap:square;stroke-width:2.7;"/>
   </g>
   <g id="line2d_69">
    <path clip-path="url(#pf058e86ea1)" d="M 1051.245347 336.799219 
L 1051.245347 336.799219 
" style="fill:none;stroke:#424242;stroke-linecap:square;stroke-width:2.7;"/>
   </g>
   <g id="patch_54">
    <path d="M 755.596458 336.799219 
L 755.596458 10.999219 
" style="fill:none;stroke:#000000;stroke-linecap:square;stroke-linejoin:miter;stroke-width:0.8;"/>
   </g>
   <g id="patch_55">
    <path d="M 1072.363125 336.799219 
L 1072.363125 10.999219 
" style="fill:none;stroke:#000000;stroke-linecap:square;stroke-linejoin:miter;stroke-width:0.8;"/>
   </g>
   <g id="patch_56">
    <path d="M 755.596458 336.799219 
L 1072.363125 336.799219 
" style="fill:none;stroke:#000000;stroke-linecap:square;stroke-linejoin:miter;stroke-width:0.8;"/>
   </g>
   <g id="patch_57">
    <path d="M 755.596458 10.999219 
L 1072.363125 10.999219 
" style="fill:none;stroke:#000000;stroke-linecap:square;stroke-linejoin:miter;stroke-width:0.8;"/>
   </g>
  </g>
  <g id="axes_4">
   <g id="patch_58">
    <path d="M 49.588125 683.399219 
L 366.354792 683.399219 
L 366.354792 357.599219 
L 49.588125 357.599219 
z
" style="fill:#ffffff;"/>
   </g>
   <g id="patch_59">
    <path clip-path="url(#p7b8c3d0ce4)" d="M 60.147014 683.399219 
L 81.264792 683.399219 
L 81.264792 494.217531 
L 60.147014 494.217531 
z
" style="fill:#3274a1;"/>
   </g>
   <g id="patch_60">
    <path clip-path="url(#p7b8c3d0ce4)" d="M 165.735903 683.399219 
L 186.853681 683.399219 
L 186.853681 622.450239 
L 165.735903 622.450239 
z
" style="fill:#3274a1;"/>
   </g>
   <g id="patch_61">
    <path clip-path="url(#p7b8c3d0ce4)" d="M 271.324792 683.399219 
L 292.442569 683.399219 
L 292.442569 646.480197 
L 271.324792 646.480197 
z
" style="fill:#3274a1;"/>
   </g>
   <g id="patch_62">
    <path clip-path="url(#p7b8c3d0ce4)" d="M 81.264792 683.399219 
L 102.382569 683.399219 
L 102.382569 495.141 
L 81.264792 495.141 
z
" style="fill:#e1812c;"/>
   </g>
   <g id="patch_63">
    <path clip-path="url(#p7b8c3d0ce4)" d="M 186.853681 683.399219 
L 207.971458 683.399219 
L 207.971458 595.484933 
L 186.853681 595.484933 
z
" style="fill:#e1812c;"/>
   </g>
   <g id="patch_64">
    <path clip-path="url(#p7b8c3d0ce4)" d="M 292.442569 683.399219 
L 313.560347 683.399219 
L 313.560347 630.965911 
L 292.442569 630.965911 
z
" style="fill:#e1812c;"/>
   </g>
   <g id="patch_65">
    <path clip-path="url(#p7b8c3d0ce4)" d="M 102.382569 683.399219 
L 123.500347 683.399219 
L 123.500347 495.141 
L 102.382569 495.141 
z
" style="fill:#3a923a;"/>
   </g>
   <g id="patch_66">
    <path clip-path="url(#p7b8c3d0ce4)" d="M 207.971458 683.399219 
L 229.089236 683.399219 
L 229.089236 618.017586 
L 207.971458 618.017586 
z
" style="fill:#3a923a;"/>
   </g>
   <g id="patch_67">
    <path clip-path="url(#p7b8c3d0ce4)" d="M 313.560347 683.399219 
L 334.678125 683.399219 
L 334.678125 630.965911 
L 313.560347 630.965911 
z
" style="fill:#3a923a;"/>
   </g>
   <g id="patch_68">
    <path clip-path="url(#p7b8c3d0ce4)" d="M 123.500347 683.399219 
L 144.618125 683.399219 
L 144.618125 497.130011 
L 123.500347 497.130011 
z
" style="fill:#c03d3e;"/>
   </g>
   <g id="patch_69">
    <path clip-path="url(#p7b8c3d0ce4)" d="M 229.089236 683.399219 
L 250.207014 683.399219 
L 250.207014 648.492076 
L 229.089236 648.492076 
z
" style="fill:#c03d3e;"/>
   </g>
   <g id="patch_70">
    <path clip-path="url(#p7b8c3d0ce4)" d="M 334.678125 683.399219 
L 355.795903 683.399219 
L 355.795903 630.965911 
L 334.678125 630.965911 
z
" style="fill:#c03d3e;"/>
   </g>
   <g id="matplotlib.axis_7">
    <g id="xtick_10">
     <g id="line2d_70">
      <g>
       <use style="stroke:#000000;stroke-width:0.8;" x="102.382569" xlink:href="#m19de42053a" y="683.399219"/>
      </g>
     </g>
     <g id="text_17">
      <!-- PhISCS-I -->
      <g transform="translate(38.766684 724.563596)rotate(-20)scale(0.16 -0.16)">
       <defs>
        <path d="M 19.671875 64.796875 
L 19.671875 37.40625 
L 32.078125 37.40625 
Q 38.96875 37.40625 42.71875 40.96875 
Q 46.484375 44.53125 46.484375 51.125 
Q 46.484375 57.671875 42.71875 61.234375 
Q 38.96875 64.796875 32.078125 64.796875 
z
M 9.8125 72.90625 
L 32.078125 72.90625 
Q 44.34375 72.90625 50.609375 67.359375 
Q 56.890625 61.8125 56.890625 51.125 
Q 56.890625 40.328125 50.609375 34.8125 
Q 44.34375 29.296875 32.078125 29.296875 
L 19.671875 29.296875 
L 19.671875 0 
L 9.8125 0 
z
" id="DejaVuSans-80"/>
        <path d="M 54.890625 33.015625 
L 54.890625 0 
L 45.90625 0 
L 45.90625 32.71875 
Q 45.90625 40.484375 42.875 44.328125 
Q 39.84375 48.1875 33.796875 48.1875 
Q 26.515625 48.1875 22.3125 43.546875 
Q 18.109375 38.921875 18.109375 30.90625 
L 18.109375 0 
L 9.078125 0 
L 9.078125 75.984375 
L 18.109375 75.984375 
L 18.109375 46.1875 
Q 21.34375 51.125 25.703125 53.5625 
Q 30.078125 56 35.796875 56 
Q 45.21875 56 50.046875 50.171875 
Q 54.890625 44.34375 54.890625 33.015625 
z
" id="DejaVuSans-104"/>
        <path d="M 9.8125 72.90625 
L 19.671875 72.90625 
L 19.671875 0 
L 9.8125 0 
z
" id="DejaVuSans-73"/>
        <path d="M 64.40625 67.28125 
L 64.40625 56.890625 
Q 59.421875 61.53125 53.78125 63.8125 
Q 48.140625 66.109375 41.796875 66.109375 
Q 29.296875 66.109375 22.65625 58.46875 
Q 16.015625 50.828125 16.015625 36.375 
Q 16.015625 21.96875 22.65625 14.328125 
Q 29.296875 6.6875 41.796875 6.6875 
Q 48.140625 6.6875 53.78125 8.984375 
Q 59.421875 11.28125 64.40625 15.921875 
L 64.40625 5.609375 
Q 59.234375 2.09375 53.4375 0.328125 
Q 47.65625 -1.421875 41.21875 -1.421875 
Q 24.65625 -1.421875 15.125 8.703125 
Q 5.609375 18.84375 5.609375 36.375 
Q 5.609375 53.953125 15.125 64.078125 
Q 24.65625 74.21875 41.21875 74.21875 
Q 47.75 74.21875 53.53125 72.484375 
Q 59.328125 70.75 64.40625 67.28125 
z
" id="DejaVuSans-67"/>
        <path d="M 4.890625 31.390625 
L 31.203125 31.390625 
L 31.203125 23.390625 
L 4.890625 23.390625 
z
" id="DejaVuSans-45"/>
       </defs>
       <use xlink:href="#DejaVuSans-80"/>
       <use x="60.302734" xlink:href="#DejaVuSans-104"/>
       <use x="123.681641" xlink:href="#DejaVuSans-73"/>
       <use x="153.173828" xlink:href="#DejaVuSans-83"/>
       <use x="216.650391" xlink:href="#DejaVuSans-67"/>
       <use x="286.474609" xlink:href="#DejaVuSans-83"/>
       <use x="349.951172" xlink:href="#DejaVuSans-45"/>
       <use x="386.035156" xlink:href="#DejaVuSans-73"/>
      </g>
     </g>
    </g>
    <g id="xtick_11">
     <g id="line2d_71">
      <g>
       <use style="stroke:#000000;stroke-width:0.8;" x="207.971458" xlink:href="#m19de42053a" y="683.399219"/>
      </g>
     </g>
     <g id="text_18">
      <!-- PhISCS-I, -->
      <g transform="translate(133.449432 726.302768)rotate(-20)scale(0.16 -0.16)">
       <defs>
        <path d="M 11.71875 12.40625 
L 22.015625 12.40625 
L 22.015625 4 
L 14.015625 -11.625 
L 7.71875 -11.625 
L 11.71875 4 
z
" id="DejaVuSans-44"/>
       </defs>
       <use xlink:href="#DejaVuSans-80"/>
       <use x="60.302734" xlink:href="#DejaVuSans-104"/>
       <use x="123.681641" xlink:href="#DejaVuSans-73"/>
       <use x="153.173828" xlink:href="#DejaVuSans-83"/>
       <use x="216.650391" xlink:href="#DejaVuSans-67"/>
       <use x="286.474609" xlink:href="#DejaVuSans-83"/>
       <use x="349.951172" xlink:href="#DejaVuSans-45"/>
       <use x="386.035156" xlink:href="#DejaVuSans-73"/>
       <use x="415.527344" xlink:href="#DejaVuSans-44"/>
      </g>
      <!--  with true kmax -->
      <g transform="translate(88.284114 761.807941)rotate(-20)scale(0.16 -0.16)">
       <defs>
        <path d="M 4.203125 54.6875 
L 13.1875 54.6875 
L 24.421875 12.015625 
L 35.59375 54.6875 
L 46.1875 54.6875 
L 57.421875 12.015625 
L 68.609375 54.6875 
L 77.59375 54.6875 
L 63.28125 0 
L 52.6875 0 
L 40.921875 44.828125 
L 29.109375 0 
L 18.5 0 
z
" id="DejaVuSans-119"/>
        <path d="M 8.5 21.578125 
L 8.5 54.6875 
L 17.484375 54.6875 
L 17.484375 21.921875 
Q 17.484375 14.15625 20.5 10.265625 
Q 23.53125 6.390625 29.59375 6.390625 
Q 36.859375 6.390625 41.078125 11.03125 
Q 45.3125 15.671875 45.3125 23.6875 
L 45.3125 54.6875 
L 54.296875 54.6875 
L 54.296875 0 
L 45.3125 0 
L 45.3125 8.40625 
Q 42.046875 3.421875 37.71875 1 
Q 33.40625 -1.421875 27.6875 -1.421875 
Q 18.265625 -1.421875 13.375 4.4375 
Q 8.5 10.296875 8.5 21.578125 
z
M 31.109375 56 
z
" id="DejaVuSans-117"/>
        <path d="M 9.078125 75.984375 
L 18.109375 75.984375 
L 18.109375 31.109375 
L 44.921875 54.6875 
L 56.390625 54.6875 
L 27.390625 29.109375 
L 57.625 0 
L 45.90625 0 
L 18.109375 26.703125 
L 18.109375 0 
L 9.078125 0 
z
" id="DejaVuSans-107"/>
        <path d="M 54.890625 54.6875 
L 35.109375 28.078125 
L 55.90625 0 
L 45.3125 0 
L 29.390625 21.484375 
L 13.484375 0 
L 2.875 0 
L 24.125 28.609375 
L 4.6875 54.6875 
L 15.28125 54.6875 
L 29.78125 35.203125 
L 44.28125 54.6875 
z
" id="DejaVuSans-120"/>
       </defs>
       <use xlink:href="#DejaVuSans-32"/>
       <use x="31.787109" xlink:href="#DejaVuSans-119"/>
       <use x="113.574219" xlink:href="#DejaVuSans-105"/>
       <use x="141.357422" xlink:href="#DejaVuSans-116"/>
       <use x="180.566406" xlink:href="#DejaVuSans-104"/>
       <use x="243.945312" xlink:href="#DejaVuSans-32"/>
       <use x="275.732422" xlink:href="#DejaVuSans-116"/>
       <use x="314.941406" xlink:href="#DejaVuSans-114"/>
       <use x="356.054688" xlink:href="#DejaVuSans-117"/>
       <use x="419.433594" xlink:href="#DejaVuSans-101"/>
       <use x="480.957031" xlink:href="#DejaVuSans-32"/>
       <use x="512.744141" xlink:href="#DejaVuSans-107"/>
       <use x="570.654297" xlink:href="#DejaVuSans-109"/>
       <use x="668.066406" xlink:href="#DejaVuSans-97"/>
       <use x="729.345703" xlink:href="#DejaVuSans-120"/>
      </g>
     </g>
    </g>
    <g id="xtick_12">
     <g id="line2d_72">
      <g>
       <use style="stroke:#000000;stroke-width:0.8;" x="313.560347" xlink:href="#m19de42053a" y="683.399219"/>
      </g>
     </g>
     <g id="text_19">
      <!-- PhISCS-MI -->
      <g transform="translate(236.972005 729.285184)rotate(-20)scale(0.16 -0.16)">
       <defs>
        <path d="M 9.8125 72.90625 
L 24.515625 72.90625 
L 43.109375 23.296875 
L 61.8125 72.90625 
L 76.515625 72.90625 
L 76.515625 0 
L 66.890625 0 
L 66.890625 64.015625 
L 48.09375 14.015625 
L 38.1875 14.015625 
L 19.390625 64.015625 
L 19.390625 0 
L 9.8125 0 
z
" id="DejaVuSans-77"/>
       </defs>
       <use xlink:href="#DejaVuSans-80"/>
       <use x="60.302734" xlink:href="#DejaVuSans-104"/>
       <use x="123.681641" xlink:href="#DejaVuSans-73"/>
       <use x="153.173828" xlink:href="#DejaVuSans-83"/>
       <use x="216.650391" xlink:href="#DejaVuSans-67"/>
       <use x="286.474609" xlink:href="#DejaVuSans-83"/>
       <use x="349.951172" xlink:href="#DejaVuSans-45"/>
       <use x="386.035156" xlink:href="#DejaVuSans-77"/>
       <use x="472.314453" xlink:href="#DejaVuSans-73"/>
      </g>
     </g>
    </g>
   </g>
   <g id="matplotlib.axis_8">
    <g id="ytick_25">
     <g id="line2d_73">
      <g>
       <use style="stroke:#000000;stroke-width:0.8;" x="49.588125" xlink:href="#mca1caf1b9a" y="683.399219"/>
      </g>
     </g>
     <g id="text_20">
      <!-- 0.0 -->
      <g transform="translate(26.685 687.198438)scale(0.1 -0.1)">
       <use xlink:href="#DejaVuSans-48"/>
       <use x="63.623047" xlink:href="#DejaVuSans-46"/>
       <use x="95.410156" xlink:href="#DejaVuSans-48"/>
      </g>
     </g>
    </g>
    <g id="ytick_26">
     <g id="line2d_74">
      <g>
       <use style="stroke:#000000;stroke-width:0.8;" x="49.588125" xlink:href="#mca1caf1b9a" y="636.856362"/>
      </g>
     </g>
     <g id="text_21">
      <!-- 0.1 -->
      <g transform="translate(26.685 640.65558)scale(0.1 -0.1)">
       <use xlink:href="#DejaVuSans-48"/>
       <use x="63.623047" xlink:href="#DejaVuSans-46"/>
       <use x="95.410156" xlink:href="#DejaVuSans-49"/>
      </g>
     </g>
    </g>
    <g id="ytick_27">
     <g id="line2d_75">
      <g>
       <use style="stroke:#000000;stroke-width:0.8;" x="49.588125" xlink:href="#mca1caf1b9a" y="590.313504"/>
      </g>
     </g>
     <g id="text_22">
      <!-- 0.2 -->
      <g transform="translate(26.685 594.112723)scale(0.1 -0.1)">
       <use xlink:href="#DejaVuSans-48"/>
       <use x="63.623047" xlink:href="#DejaVuSans-46"/>
       <use x="95.410156" xlink:href="#DejaVuSans-50"/>
      </g>
     </g>
    </g>
    <g id="ytick_28">
     <g id="line2d_76">
      <g>
       <use style="stroke:#000000;stroke-width:0.8;" x="49.588125" xlink:href="#mca1caf1b9a" y="543.770647"/>
      </g>
     </g>
     <g id="text_23">
      <!-- 0.3 -->
      <g transform="translate(26.685 547.569866)scale(0.1 -0.1)">
       <use xlink:href="#DejaVuSans-48"/>
       <use x="63.623047" xlink:href="#DejaVuSans-46"/>
       <use x="95.410156" xlink:href="#DejaVuSans-51"/>
      </g>
     </g>
    </g>
    <g id="ytick_29">
     <g id="line2d_77">
      <g>
       <use style="stroke:#000000;stroke-width:0.8;" x="49.588125" xlink:href="#mca1caf1b9a" y="497.22779"/>
      </g>
     </g>
     <g id="text_24">
      <!-- 0.4 -->
      <g transform="translate(26.685 501.027009)scale(0.1 -0.1)">
       <use xlink:href="#DejaVuSans-48"/>
       <use x="63.623047" xlink:href="#DejaVuSans-46"/>
       <use x="95.410156" xlink:href="#DejaVuSans-52"/>
      </g>
     </g>
    </g>
    <g id="ytick_30">
     <g id="line2d_78">
      <g>
       <use style="stroke:#000000;stroke-width:0.8;" x="49.588125" xlink:href="#mca1caf1b9a" y="450.684933"/>
      </g>
     </g>
     <g id="text_25">
      <!-- 0.5 -->
      <g transform="translate(26.685 454.484152)scale(0.1 -0.1)">
       <use xlink:href="#DejaVuSans-48"/>
       <use x="63.623047" xlink:href="#DejaVuSans-46"/>
       <use x="95.410156" xlink:href="#DejaVuSans-53"/>
      </g>
     </g>
    </g>
    <g id="ytick_31">
     <g id="line2d_79">
      <g>
       <use style="stroke:#000000;stroke-width:0.8;" x="49.588125" xlink:href="#mca1caf1b9a" y="404.142076"/>
      </g>
     </g>
     <g id="text_26">
      <!-- 0.6 -->
      <g transform="translate(26.685 407.941295)scale(0.1 -0.1)">
       <use xlink:href="#DejaVuSans-48"/>
       <use x="63.623047" xlink:href="#DejaVuSans-46"/>
       <use x="95.410156" xlink:href="#DejaVuSans-54"/>
      </g>
     </g>
    </g>
    <g id="ytick_32">
     <g id="line2d_80">
      <g>
       <use style="stroke:#000000;stroke-width:0.8;" x="49.588125" xlink:href="#mca1caf1b9a" y="357.599219"/>
      </g>
     </g>
     <g id="text_27">
      <!-- 0.7 -->
      <g transform="translate(26.685 361.398438)scale(0.1 -0.1)">
       <use xlink:href="#DejaVuSans-48"/>
       <use x="63.623047" xlink:href="#DejaVuSans-46"/>
       <use x="95.410156" xlink:href="#DejaVuSans-55"/>
      </g>
     </g>
    </g>
    <g id="text_28">
     <!-- AD FP -->
     <g transform="translate(19.3575 544.099219)rotate(-90)scale(0.16 -0.16)">
      <use xlink:href="#DejaVuSans-65"/>
      <use x="68.408203" xlink:href="#DejaVuSans-68"/>
      <use x="145.410156" xlink:href="#DejaVuSans-32"/>
      <use x="177.197266" xlink:href="#DejaVuSans-70"/>
      <use x="234.716797" xlink:href="#DejaVuSans-80"/>
     </g>
    </g>
   </g>
   <g id="line2d_81">
    <path clip-path="url(#p7b8c3d0ce4)" d="M 70.705903 532.493456 
L 70.705903 438.525223 
" style="fill:none;stroke:#424242;stroke-linecap:square;stroke-width:2.7;"/>
   </g>
   <g id="line2d_82">
    <path clip-path="url(#p7b8c3d0ce4)" d="M 176.294792 670.470647 
L 176.294792 570.735953 
" style="fill:none;stroke:#424242;stroke-linecap:square;stroke-width:2.7;"/>
   </g>
   <g id="line2d_83">
    <path clip-path="url(#p7b8c3d0ce4)" d="M 281.883681 683.399219 
L 281.883681 600.849944 
" style="fill:none;stroke:#424242;stroke-linecap:square;stroke-width:2.7;"/>
   </g>
   <g id="line2d_84">
    <path clip-path="url(#p7b8c3d0ce4)" d="M 91.823681 532.493456 
L 91.823681 441.295631 
" style="fill:none;stroke:#424242;stroke-linecap:square;stroke-width:2.7;"/>
   </g>
   <g id="line2d_85">
    <path clip-path="url(#p7b8c3d0ce4)" d="M 197.412569 667.884933 
L 197.412569 502.399219 
" style="fill:none;stroke:#424242;stroke-linecap:square;stroke-width:2.7;"/>
   </g>
   <g id="line2d_86">
    <path clip-path="url(#p7b8c3d0ce4)" d="M 303.001458 669.295323 
L 303.001458 585.335659 
" style="fill:none;stroke:#424242;stroke-linecap:square;stroke-width:2.7;"/>
   </g>
   <g id="line2d_87">
    <path clip-path="url(#p7b8c3d0ce4)" d="M 112.941458 532.493456 
L 112.941458 439.448692 
" style="fill:none;stroke:#424242;stroke-linecap:square;stroke-width:2.7;"/>
   </g>
   <g id="line2d_88">
    <path clip-path="url(#p7b8c3d0ce4)" d="M 218.530347 667.884933 
L 218.530347 562.609423 
" style="fill:none;stroke:#424242;stroke-linecap:square;stroke-width:2.7;"/>
   </g>
   <g id="line2d_89">
    <path clip-path="url(#p7b8c3d0ce4)" d="M 324.119236 683.399219 
L 324.119236 585.335659 
" style="fill:none;stroke:#424242;stroke-linecap:square;stroke-width:2.7;"/>
   </g>
   <g id="line2d_90">
    <path clip-path="url(#p7b8c3d0ce4)" d="M 134.059236 544.256827 
L 134.059236 427.863017 
" style="fill:none;stroke:#424242;stroke-linecap:square;stroke-width:2.7;"/>
   </g>
   <g id="line2d_91">
    <path clip-path="url(#p7b8c3d0ce4)" d="M 239.648125 683.399219 
L 239.648125 609.706362 
" style="fill:none;stroke:#424242;stroke-linecap:square;stroke-width:2.7;"/>
   </g>
   <g id="line2d_92">
    <path clip-path="url(#p7b8c3d0ce4)" d="M 345.237014 669.295323 
L 345.237014 585.335659 
" style="fill:none;stroke:#424242;stroke-linecap:square;stroke-width:2.7;"/>
   </g>
   <g id="patch_71">
    <path d="M 49.588125 683.399219 
L 49.588125 357.599219 
" style="fill:none;stroke:#000000;stroke-linecap:square;stroke-linejoin:miter;stroke-width:0.8;"/>
   </g>
   <g id="patch_72">
    <path d="M 366.354792 683.399219 
L 366.354792 357.599219 
" style="fill:none;stroke:#000000;stroke-linecap:square;stroke-linejoin:miter;stroke-width:0.8;"/>
   </g>
   <g id="patch_73">
    <path d="M 49.588125 683.399219 
L 366.354792 683.399219 
" style="fill:none;stroke:#000000;stroke-linecap:square;stroke-linejoin:miter;stroke-width:0.8;"/>
   </g>
   <g id="patch_74">
    <path d="M 49.588125 357.599219 
L 366.354792 357.599219 
" style="fill:none;stroke:#000000;stroke-linecap:square;stroke-linejoin:miter;stroke-width:0.8;"/>
   </g>
  </g>
  <g id="axes_5">
   <g id="patch_75">
    <path d="M 402.592292 683.399219 
L 719.358958 683.399219 
L 719.358958 357.599219 
L 402.592292 357.599219 
z
" style="fill:#ffffff;"/>
   </g>
   <g id="patch_76">
    <path clip-path="url(#p4114123e5b)" d="M 413.151181 683.399219 
L 434.268958 683.399219 
L 434.268958 513.480851 
L 413.151181 513.480851 
z
" style="fill:#3274a1;"/>
   </g>
   <g id="patch_77">
    <path clip-path="url(#p4114123e5b)" d="M 518.740069 683.399219 
L 539.857847 683.399219 
L 539.857847 570.274219 
L 518.740069 570.274219 
z
" style="fill:#3274a1;"/>
   </g>
   <g id="patch_78">
    <path clip-path="url(#p4114123e5b)" d="M 624.328958 683.399219 
L 645.446736 683.399219 
L 645.446736 590.744457 
L 624.328958 590.744457 
z
" style="fill:#3274a1;"/>
   </g>
   <g id="patch_79">
    <path clip-path="url(#p4114123e5b)" d="M 434.268958 683.399219 
L 455.386736 683.399219 
L 455.386736 496.242756 
L 434.268958 496.242756 
z
" style="fill:#e1812c;"/>
   </g>
   <g id="patch_80">
    <path clip-path="url(#p4114123e5b)" d="M 539.857847 683.399219 
L 560.975625 683.399219 
L 560.975625 540.323028 
L 539.857847 540.323028 
z
" style="fill:#e1812c;"/>
   </g>
   <g id="patch_81">
    <path clip-path="url(#p4114123e5b)" d="M 645.446736 683.399219 
L 666.564514 683.399219 
L 666.564514 544.2016 
L 645.446736 544.2016 
z
" style="fill:#e1812c;"/>
   </g>
   <g id="patch_82">
    <path clip-path="url(#p4114123e5b)" d="M 455.386736 683.399219 
L 476.504514 683.399219 
L 476.504514 496.242756 
L 455.386736 496.242756 
z
" style="fill:#3a923a;"/>
   </g>
   <g id="patch_83">
    <path clip-path="url(#p4114123e5b)" d="M 560.975625 683.399219 
L 582.093403 683.399219 
L 582.093403 576.523028 
L 560.975625 576.523028 
z
" style="fill:#3a923a;"/>
   </g>
   <g id="patch_84">
    <path clip-path="url(#p4114123e5b)" d="M 666.564514 683.399219 
L 687.682292 683.399219 
L 687.682292 544.2016 
L 666.564514 544.2016 
z
" style="fill:#3a923a;"/>
   </g>
   <g id="patch_85">
    <path clip-path="url(#p4114123e5b)" d="M 476.504514 683.399219 
L 497.622292 683.399219 
L 497.622292 492.264734 
L 476.504514 492.264734 
z
" style="fill:#c03d3e;"/>
   </g>
   <g id="patch_86">
    <path clip-path="url(#p4114123e5b)" d="M 582.093403 683.399219 
L 603.211181 683.399219 
L 603.211181 550.665885 
L 582.093403 550.665885 
z
" style="fill:#c03d3e;"/>
   </g>
   <g id="patch_87">
    <path clip-path="url(#p4114123e5b)" d="M 687.682292 683.399219 
L 708.800069 683.399219 
L 708.800069 544.2016 
L 687.682292 544.2016 
z
" style="fill:#c03d3e;"/>
   </g>
   <g id="matplotlib.axis_9">
    <g id="xtick_13">
     <g id="line2d_93">
      <g>
       <use style="stroke:#000000;stroke-width:0.8;" x="455.386736" xlink:href="#m19de42053a" y="683.399219"/>
      </g>
     </g>
     <g id="text_29">
      <!-- PhISCS-I -->
      <g transform="translate(391.770851 724.563596)rotate(-20)scale(0.16 -0.16)">
       <use xlink:href="#DejaVuSans-80"/>
       <use x="60.302734" xlink:href="#DejaVuSans-104"/>
       <use x="123.681641" xlink:href="#DejaVuSans-73"/>
       <use x="153.173828" xlink:href="#DejaVuSans-83"/>
       <use x="216.650391" xlink:href="#DejaVuSans-67"/>
       <use x="286.474609" xlink:href="#DejaVuSans-83"/>
       <use x="349.951172" xlink:href="#DejaVuSans-45"/>
       <use x="386.035156" xlink:href="#DejaVuSans-73"/>
      </g>
     </g>
    </g>
    <g id="xtick_14">
     <g id="line2d_94">
      <g>
       <use style="stroke:#000000;stroke-width:0.8;" x="560.975625" xlink:href="#m19de42053a" y="683.399219"/>
      </g>
     </g>
     <g id="text_30">
      <!-- PhISCS-I, -->
      <g transform="translate(486.453599 726.302768)rotate(-20)scale(0.16 -0.16)">
       <use xlink:href="#DejaVuSans-80"/>
       <use x="60.302734" xlink:href="#DejaVuSans-104"/>
       <use x="123.681641" xlink:href="#DejaVuSans-73"/>
       <use x="153.173828" xlink:href="#DejaVuSans-83"/>
       <use x="216.650391" xlink:href="#DejaVuSans-67"/>
       <use x="286.474609" xlink:href="#DejaVuSans-83"/>
       <use x="349.951172" xlink:href="#DejaVuSans-45"/>
       <use x="386.035156" xlink:href="#DejaVuSans-73"/>
       <use x="415.527344" xlink:href="#DejaVuSans-44"/>
      </g>
      <!--  with true kmax -->
      <g transform="translate(441.288281 761.807941)rotate(-20)scale(0.16 -0.16)">
       <use xlink:href="#DejaVuSans-32"/>
       <use x="31.787109" xlink:href="#DejaVuSans-119"/>
       <use x="113.574219" xlink:href="#DejaVuSans-105"/>
       <use x="141.357422" xlink:href="#DejaVuSans-116"/>
       <use x="180.566406" xlink:href="#DejaVuSans-104"/>
       <use x="243.945312" xlink:href="#DejaVuSans-32"/>
       <use x="275.732422" xlink:href="#DejaVuSans-116"/>
       <use x="314.941406" xlink:href="#DejaVuSans-114"/>
       <use x="356.054688" xlink:href="#DejaVuSans-117"/>
       <use x="419.433594" xlink:href="#DejaVuSans-101"/>
       <use x="480.957031" xlink:href="#DejaVuSans-32"/>
       <use x="512.744141" xlink:href="#DejaVuSans-107"/>
       <use x="570.654297" xlink:href="#DejaVuSans-109"/>
       <use x="668.066406" xlink:href="#DejaVuSans-97"/>
       <use x="729.345703" xlink:href="#DejaVuSans-120"/>
      </g>
     </g>
    </g>
    <g id="xtick_15">
     <g id="line2d_95">
      <g>
       <use style="stroke:#000000;stroke-width:0.8;" x="666.564514" xlink:href="#m19de42053a" y="683.399219"/>
      </g>
     </g>
     <g id="text_31">
      <!-- PhISCS-MI -->
      <g transform="translate(589.976172 729.285184)rotate(-20)scale(0.16 -0.16)">
       <use xlink:href="#DejaVuSans-80"/>
       <use x="60.302734" xlink:href="#DejaVuSans-104"/>
       <use x="123.681641" xlink:href="#DejaVuSans-73"/>
       <use x="153.173828" xlink:href="#DejaVuSans-83"/>
       <use x="216.650391" xlink:href="#DejaVuSans-67"/>
       <use x="286.474609" xlink:href="#DejaVuSans-83"/>
       <use x="349.951172" xlink:href="#DejaVuSans-45"/>
       <use x="386.035156" xlink:href="#DejaVuSans-77"/>
       <use x="472.314453" xlink:href="#DejaVuSans-73"/>
      </g>
     </g>
    </g>
   </g>
   <g id="matplotlib.axis_10">
    <g id="ytick_33">
     <g id="line2d_96">
      <g>
       <use style="stroke:#000000;stroke-width:0.8;" x="402.592292" xlink:href="#mca1caf1b9a" y="683.399219"/>
      </g>
     </g>
    </g>
    <g id="ytick_34">
     <g id="line2d_97">
      <g>
       <use style="stroke:#000000;stroke-width:0.8;" x="402.592292" xlink:href="#mca1caf1b9a" y="636.856362"/>
      </g>
     </g>
    </g>
    <g id="ytick_35">
     <g id="line2d_98">
      <g>
       <use style="stroke:#000000;stroke-width:0.8;" x="402.592292" xlink:href="#mca1caf1b9a" y="590.313504"/>
      </g>
     </g>
    </g>
    <g id="ytick_36">
     <g id="line2d_99">
      <g>
       <use style="stroke:#000000;stroke-width:0.8;" x="402.592292" xlink:href="#mca1caf1b9a" y="543.770647"/>
      </g>
     </g>
    </g>
    <g id="ytick_37">
     <g id="line2d_100">
      <g>
       <use style="stroke:#000000;stroke-width:0.8;" x="402.592292" xlink:href="#mca1caf1b9a" y="497.22779"/>
      </g>
     </g>
    </g>
    <g id="ytick_38">
     <g id="line2d_101">
      <g>
       <use style="stroke:#000000;stroke-width:0.8;" x="402.592292" xlink:href="#mca1caf1b9a" y="450.684933"/>
      </g>
     </g>
    </g>
    <g id="ytick_39">
     <g id="line2d_102">
      <g>
       <use style="stroke:#000000;stroke-width:0.8;" x="402.592292" xlink:href="#mca1caf1b9a" y="404.142076"/>
      </g>
     </g>
    </g>
    <g id="ytick_40">
     <g id="line2d_103">
      <g>
       <use style="stroke:#000000;stroke-width:0.8;" x="402.592292" xlink:href="#mca1caf1b9a" y="357.599219"/>
      </g>
     </g>
    </g>
    <g id="text_32">
     <!-- DB FP -->
     <g transform="translate(395.264792 544.115469)rotate(-90)scale(0.16 -0.16)">
      <use xlink:href="#DejaVuSans-68"/>
      <use x="77.001953" xlink:href="#DejaVuSans-66"/>
      <use x="145.605469" xlink:href="#DejaVuSans-32"/>
      <use x="177.392578" xlink:href="#DejaVuSans-70"/>
      <use x="234.912109" xlink:href="#DejaVuSans-80"/>
     </g>
    </g>
   </g>
   <g id="line2d_104">
    <path clip-path="url(#p4114123e5b)" d="M 423.710069 631.684933 
L 423.710069 395.27677 
" style="fill:none;stroke:#424242;stroke-linecap:square;stroke-width:2.7;"/>
   </g>
   <g id="line2d_105">
    <path clip-path="url(#p4114123e5b)" d="M 529.298958 657.542076 
L 529.298958 479.208594 
" style="fill:none;stroke:#424242;stroke-linecap:square;stroke-width:2.7;"/>
   </g>
   <g id="line2d_106">
    <path clip-path="url(#p4114123e5b)" d="M 634.887847 674.780171 
L 634.887847 483.006362 
" style="fill:none;stroke:#424242;stroke-linecap:square;stroke-width:2.7;"/>
   </g>
   <g id="line2d_107">
    <path clip-path="url(#p4114123e5b)" d="M 444.827847 597.208743 
L 444.827847 389.120307 
" style="fill:none;stroke:#424242;stroke-linecap:square;stroke-width:2.7;"/>
   </g>
   <g id="line2d_108">
    <path clip-path="url(#p4114123e5b)" d="M 550.416736 648.923028 
L 550.416736 419.570171 
" style="fill:none;stroke:#424242;stroke-linecap:square;stroke-width:2.7;"/>
   </g>
   <g id="line2d_109">
    <path clip-path="url(#p4114123e5b)" d="M 656.005625 648.923028 
L 656.005625 433.867016 
" style="fill:none;stroke:#424242;stroke-linecap:square;stroke-width:2.7;"/>
   </g>
   <g id="line2d_110">
    <path clip-path="url(#p4114123e5b)" d="M 465.945625 597.208743 
L 465.945625 395.184423 
" style="fill:none;stroke:#424242;stroke-linecap:square;stroke-width:2.7;"/>
   </g>
   <g id="line2d_111">
    <path clip-path="url(#p4114123e5b)" d="M 571.534514 674.780171 
L 571.534514 467.923028 
" style="fill:none;stroke:#424242;stroke-linecap:square;stroke-width:2.7;"/>
   </g>
   <g id="line2d_112">
    <path clip-path="url(#p4114123e5b)" d="M 677.123403 648.923028 
L 677.123403 442.065885 
" style="fill:none;stroke:#424242;stroke-linecap:square;stroke-width:2.7;"/>
   </g>
   <g id="line2d_113">
    <path clip-path="url(#p4114123e5b)" d="M 487.063403 589.297688 
L 487.063403 380.50126 
" style="fill:none;stroke:#424242;stroke-linecap:square;stroke-width:2.7;"/>
   </g>
   <g id="line2d_114">
    <path clip-path="url(#p4114123e5b)" d="M 592.652292 674.780171 
L 592.652292 395.523028 
" style="fill:none;stroke:#424242;stroke-linecap:square;stroke-width:2.7;"/>
   </g>
   <g id="line2d_115">
    <path clip-path="url(#p4114123e5b)" d="M 698.241181 648.923028 
L 698.241181 424.82779 
" style="fill:none;stroke:#424242;stroke-linecap:square;stroke-width:2.7;"/>
   </g>
   <g id="patch_88">
    <path d="M 402.592292 683.399219 
L 402.592292 357.599219 
" style="fill:none;stroke:#000000;stroke-linecap:square;stroke-linejoin:miter;stroke-width:0.8;"/>
   </g>
   <g id="patch_89">
    <path d="M 719.358958 683.399219 
L 719.358958 357.599219 
" style="fill:none;stroke:#000000;stroke-linecap:square;stroke-linejoin:miter;stroke-width:0.8;"/>
   </g>
   <g id="patch_90">
    <path d="M 402.592292 683.399219 
L 719.358958 683.399219 
" style="fill:none;stroke:#000000;stroke-linecap:square;stroke-linejoin:miter;stroke-width:0.8;"/>
   </g>
   <g id="patch_91">
    <path d="M 402.592292 357.599219 
L 719.358958 357.599219 
" style="fill:none;stroke:#000000;stroke-linecap:square;stroke-linejoin:miter;stroke-width:0.8;"/>
   </g>
  </g>
  <g id="axes_6">
   <g id="patch_92">
    <path d="M 755.596458 683.399219 
L 1072.363125 683.399219 
L 1072.363125 357.599219 
L 755.596458 357.599219 
z
" style="fill:#ffffff;"/>
   </g>
   <g id="patch_93">
    <path clip-path="url(#p490aca6b44)" d="M 766.155347 683.399219 
L 787.273125 683.399219 
L 787.273125 683.399219 
L 766.155347 683.399219 
z
" style="fill:#3274a1;"/>
   </g>
   <g id="patch_94">
    <path clip-path="url(#p490aca6b44)" d="M 871.744236 683.399219 
L 892.862014 683.399219 
L 892.862014 683.399219 
L 871.744236 683.399219 
z
" style="fill:#3274a1;"/>
   </g>
   <g id="patch_95">
    <path clip-path="url(#p490aca6b44)" d="M 977.333125 683.399219 
L 998.450903 683.399219 
L 998.450903 683.399219 
L 977.333125 683.399219 
z
" style="fill:#3274a1;"/>
   </g>
   <g id="patch_96">
    <path clip-path="url(#p490aca6b44)" d="M 787.273125 683.399219 
L 808.390903 683.399219 
L 808.390903 683.399219 
L 787.273125 683.399219 
z
" style="fill:#e1812c;"/>
   </g>
   <g id="patch_97">
    <path clip-path="url(#p490aca6b44)" d="M 892.862014 683.399219 
L 913.979792 683.399219 
L 913.979792 683.399219 
L 892.862014 683.399219 
z
" style="fill:#e1812c;"/>
   </g>
   <g id="patch_98">
    <path clip-path="url(#p490aca6b44)" d="M 998.450903 683.399219 
L 1019.568681 683.399219 
L 1019.568681 683.399219 
L 998.450903 683.399219 
z
" style="fill:#e1812c;"/>
   </g>
   <g id="patch_99">
    <path clip-path="url(#p490aca6b44)" d="M 808.390903 683.399219 
L 829.508681 683.399219 
L 829.508681 683.399219 
L 808.390903 683.399219 
z
" style="fill:#3a923a;"/>
   </g>
   <g id="patch_100">
    <path clip-path="url(#p490aca6b44)" d="M 913.979792 683.399219 
L 935.097569 683.399219 
L 935.097569 683.399219 
L 913.979792 683.399219 
z
" style="fill:#3a923a;"/>
   </g>
   <g id="patch_101">
    <path clip-path="url(#p490aca6b44)" d="M 1019.568681 683.399219 
L 1040.686458 683.399219 
L 1040.686458 683.399219 
L 1019.568681 683.399219 
z
" style="fill:#3a923a;"/>
   </g>
   <g id="patch_102">
    <path clip-path="url(#p490aca6b44)" d="M 829.508681 683.399219 
L 850.626458 683.399219 
L 850.626458 605.82779 
L 829.508681 605.82779 
z
" style="fill:#c03d3e;"/>
   </g>
   <g id="patch_103">
    <path clip-path="url(#p490aca6b44)" d="M 935.097569 683.399219 
L 956.215347 683.399219 
L 956.215347 683.399219 
L 935.097569 683.399219 
z
" style="fill:#c03d3e;"/>
   </g>
   <g id="patch_104">
    <path clip-path="url(#p490aca6b44)" d="M 1040.686458 683.399219 
L 1061.804236 683.399219 
L 1061.804236 683.399219 
L 1040.686458 683.399219 
z
" style="fill:#c03d3e;"/>
   </g>
   <g id="matplotlib.axis_11">
    <g id="xtick_16">
     <g id="line2d_116">
      <g>
       <use style="stroke:#000000;stroke-width:0.8;" x="808.390903" xlink:href="#m19de42053a" y="683.399219"/>
      </g>
     </g>
     <g id="text_33">
      <!-- PhISCS-I -->
      <g transform="translate(744.775018 724.563596)rotate(-20)scale(0.16 -0.16)">
       <use xlink:href="#DejaVuSans-80"/>
       <use x="60.302734" xlink:href="#DejaVuSans-104"/>
       <use x="123.681641" xlink:href="#DejaVuSans-73"/>
       <use x="153.173828" xlink:href="#DejaVuSans-83"/>
       <use x="216.650391" xlink:href="#DejaVuSans-67"/>
       <use x="286.474609" xlink:href="#DejaVuSans-83"/>
       <use x="349.951172" xlink:href="#DejaVuSans-45"/>
       <use x="386.035156" xlink:href="#DejaVuSans-73"/>
      </g>
     </g>
    </g>
    <g id="xtick_17">
     <g id="line2d_117">
      <g>
       <use style="stroke:#000000;stroke-width:0.8;" x="913.979792" xlink:href="#m19de42053a" y="683.399219"/>
      </g>
     </g>
     <g id="text_34">
      <!-- PhISCS-I, -->
      <g transform="translate(839.457766 726.302768)rotate(-20)scale(0.16 -0.16)">
       <use xlink:href="#DejaVuSans-80"/>
       <use x="60.302734" xlink:href="#DejaVuSans-104"/>
       <use x="123.681641" xlink:href="#DejaVuSans-73"/>
       <use x="153.173828" xlink:href="#DejaVuSans-83"/>
       <use x="216.650391" xlink:href="#DejaVuSans-67"/>
       <use x="286.474609" xlink:href="#DejaVuSans-83"/>
       <use x="349.951172" xlink:href="#DejaVuSans-45"/>
       <use x="386.035156" xlink:href="#DejaVuSans-73"/>
       <use x="415.527344" xlink:href="#DejaVuSans-44"/>
      </g>
      <!--  with true kmax -->
      <g transform="translate(794.292448 761.807941)rotate(-20)scale(0.16 -0.16)">
       <use xlink:href="#DejaVuSans-32"/>
       <use x="31.787109" xlink:href="#DejaVuSans-119"/>
       <use x="113.574219" xlink:href="#DejaVuSans-105"/>
       <use x="141.357422" xlink:href="#DejaVuSans-116"/>
       <use x="180.566406" xlink:href="#DejaVuSans-104"/>
       <use x="243.945312" xlink:href="#DejaVuSans-32"/>
       <use x="275.732422" xlink:href="#DejaVuSans-116"/>
       <use x="314.941406" xlink:href="#DejaVuSans-114"/>
       <use x="356.054688" xlink:href="#DejaVuSans-117"/>
       <use x="419.433594" xlink:href="#DejaVuSans-101"/>
       <use x="480.957031" xlink:href="#DejaVuSans-32"/>
       <use x="512.744141" xlink:href="#DejaVuSans-107"/>
       <use x="570.654297" xlink:href="#DejaVuSans-109"/>
       <use x="668.066406" xlink:href="#DejaVuSans-97"/>
       <use x="729.345703" xlink:href="#DejaVuSans-120"/>
      </g>
     </g>
    </g>
    <g id="xtick_18">
     <g id="line2d_118">
      <g>
       <use style="stroke:#000000;stroke-width:0.8;" x="1019.568681" xlink:href="#m19de42053a" y="683.399219"/>
      </g>
     </g>
     <g id="text_35">
      <!-- PhISCS-MI -->
      <g transform="translate(942.980339 729.285184)rotate(-20)scale(0.16 -0.16)">
       <use xlink:href="#DejaVuSans-80"/>
       <use x="60.302734" xlink:href="#DejaVuSans-104"/>
       <use x="123.681641" xlink:href="#DejaVuSans-73"/>
       <use x="153.173828" xlink:href="#DejaVuSans-83"/>
       <use x="216.650391" xlink:href="#DejaVuSans-67"/>
       <use x="286.474609" xlink:href="#DejaVuSans-83"/>
       <use x="349.951172" xlink:href="#DejaVuSans-45"/>
       <use x="386.035156" xlink:href="#DejaVuSans-77"/>
       <use x="472.314453" xlink:href="#DejaVuSans-73"/>
      </g>
     </g>
    </g>
   </g>
   <g id="matplotlib.axis_12">
    <g id="ytick_41">
     <g id="line2d_119">
      <g>
       <use style="stroke:#000000;stroke-width:0.8;" x="755.596458" xlink:href="#mca1caf1b9a" y="683.399219"/>
      </g>
     </g>
    </g>
    <g id="ytick_42">
     <g id="line2d_120">
      <g>
       <use style="stroke:#000000;stroke-width:0.8;" x="755.596458" xlink:href="#mca1caf1b9a" y="636.856362"/>
      </g>
     </g>
    </g>
    <g id="ytick_43">
     <g id="line2d_121">
      <g>
       <use style="stroke:#000000;stroke-width:0.8;" x="755.596458" xlink:href="#mca1caf1b9a" y="590.313504"/>
      </g>
     </g>
    </g>
    <g id="ytick_44">
     <g id="line2d_122">
      <g>
       <use style="stroke:#000000;stroke-width:0.8;" x="755.596458" xlink:href="#mca1caf1b9a" y="543.770647"/>
      </g>
     </g>
    </g>
    <g id="ytick_45">
     <g id="line2d_123">
      <g>
       <use style="stroke:#000000;stroke-width:0.8;" x="755.596458" xlink:href="#mca1caf1b9a" y="497.22779"/>
      </g>
     </g>
    </g>
    <g id="ytick_46">
     <g id="line2d_124">
      <g>
       <use style="stroke:#000000;stroke-width:0.8;" x="755.596458" xlink:href="#mca1caf1b9a" y="450.684933"/>
      </g>
     </g>
    </g>
    <g id="ytick_47">
     <g id="line2d_125">
      <g>
       <use style="stroke:#000000;stroke-width:0.8;" x="755.596458" xlink:href="#mca1caf1b9a" y="404.142076"/>
      </g>
     </g>
    </g>
    <g id="ytick_48">
     <g id="line2d_126">
      <g>
       <use style="stroke:#000000;stroke-width:0.8;" x="755.596458" xlink:href="#mca1caf1b9a" y="357.599219"/>
      </g>
     </g>
    </g>
    <g id="text_36">
     <!-- SNL FP -->
     <g transform="translate(748.268958 547.987969)rotate(-90)scale(0.16 -0.16)">
      <use xlink:href="#DejaVuSans-83"/>
      <use x="63.476562" xlink:href="#DejaVuSans-78"/>
      <use x="138.28125" xlink:href="#DejaVuSans-76"/>
      <use x="193.994141" xlink:href="#DejaVuSans-32"/>
      <use x="225.78125" xlink:href="#DejaVuSans-70"/>
      <use x="283.300781" xlink:href="#DejaVuSans-80"/>
     </g>
    </g>
   </g>
   <g id="line2d_127">
    <path clip-path="url(#p490aca6b44)" d="M 776.714236 683.399219 
L 776.714236 683.399219 
" style="fill:none;stroke:#424242;stroke-linecap:square;stroke-width:2.7;"/>
   </g>
   <g id="line2d_128">
    <path clip-path="url(#p490aca6b44)" d="M 882.303125 683.399219 
L 882.303125 683.399219 
" style="fill:none;stroke:#424242;stroke-linecap:square;stroke-width:2.7;"/>
   </g>
   <g id="line2d_129">
    <path clip-path="url(#p490aca6b44)" d="M 987.892014 683.399219 
L 987.892014 683.399219 
" style="fill:none;stroke:#424242;stroke-linecap:square;stroke-width:2.7;"/>
   </g>
   <g id="line2d_130">
    <path clip-path="url(#p490aca6b44)" d="M 797.832014 683.399219 
L 797.832014 683.399219 
" style="fill:none;stroke:#424242;stroke-linecap:square;stroke-width:2.7;"/>
   </g>
   <g id="line2d_131">
    <path clip-path="url(#p490aca6b44)" d="M 903.420903 683.399219 
L 903.420903 683.399219 
" style="fill:none;stroke:#424242;stroke-linecap:square;stroke-width:2.7;"/>
   </g>
   <g id="line2d_132">
    <path clip-path="url(#p490aca6b44)" d="M 1009.009792 683.399219 
L 1009.009792 683.399219 
" style="fill:none;stroke:#424242;stroke-linecap:square;stroke-width:2.7;"/>
   </g>
   <g id="line2d_133">
    <path clip-path="url(#p490aca6b44)" d="M 818.949792 683.399219 
L 818.949792 683.399219 
" style="fill:none;stroke:#424242;stroke-linecap:square;stroke-width:2.7;"/>
   </g>
   <g id="line2d_134">
    <path clip-path="url(#p490aca6b44)" d="M 924.538681 683.399219 
L 924.538681 683.399219 
" style="fill:none;stroke:#424242;stroke-linecap:square;stroke-width:2.7;"/>
   </g>
   <g id="line2d_135">
    <path clip-path="url(#p490aca6b44)" d="M 1030.127569 683.399219 
L 1030.127569 683.399219 
" style="fill:none;stroke:#424242;stroke-linecap:square;stroke-width:2.7;"/>
   </g>
   <g id="line2d_136">
    <path clip-path="url(#p490aca6b44)" d="M 840.067569 683.399219 
L 840.067569 450.684933 
" style="fill:none;stroke:#424242;stroke-linecap:square;stroke-width:2.7;"/>
   </g>
   <g id="line2d_137">
    <path clip-path="url(#p490aca6b44)" d="M 945.656458 683.399219 
L 945.656458 683.399219 
" style="fill:none;stroke:#424242;stroke-linecap:square;stroke-width:2.7;"/>
   </g>
   <g id="line2d_138">
    <path clip-path="url(#p490aca6b44)" d="M 1051.245347 683.399219 
L 1051.245347 683.399219 
" style="fill:none;stroke:#424242;stroke-linecap:square;stroke-width:2.7;"/>
   </g>
   <g id="patch_105">
    <path d="M 755.596458 683.399219 
L 755.596458 357.599219 
" style="fill:none;stroke:#000000;stroke-linecap:square;stroke-linejoin:miter;stroke-width:0.8;"/>
   </g>
   <g id="patch_106">
    <path d="M 1072.363125 683.399219 
L 1072.363125 357.599219 
" style="fill:none;stroke:#000000;stroke-linecap:square;stroke-linejoin:miter;stroke-width:0.8;"/>
   </g>
   <g id="patch_107">
    <path d="M 755.596458 683.399219 
L 1072.363125 683.399219 
" style="fill:none;stroke:#000000;stroke-linecap:square;stroke-linejoin:miter;stroke-width:0.8;"/>
   </g>
   <g id="patch_108">
    <path d="M 755.596458 357.599219 
L 1072.363125 357.599219 
" style="fill:none;stroke:#000000;stroke-linecap:square;stroke-linejoin:miter;stroke-width:0.8;"/>
   </g>
  </g>
 </g>
 <defs>
  <clipPath id="pd552977db1">
   <rect height="325.8" width="316.766667" x="49.588125" y="10.999219"/>
  </clipPath>
  <clipPath id="p70badd99ef">
   <rect height="325.8" width="316.766667" x="402.592292" y="10.999219"/>
  </clipPath>
  <clipPath id="pf058e86ea1">
   <rect height="325.8" width="316.766667" x="755.596458" y="10.999219"/>
  </clipPath>
  <clipPath id="p7b8c3d0ce4">
   <rect height="325.8" width="316.766667" x="49.588125" y="357.599219"/>
  </clipPath>
  <clipPath id="p4114123e5b">
   <rect height="325.8" width="316.766667" x="402.592292" y="357.599219"/>
  </clipPath>
  <clipPath id="p490aca6b44">
   <rect height="325.8" width="316.766667" x="755.596458" y="357.599219"/>
  </clipPath>
 </defs>
</svg>
